<svg width="1283" height="512" viewBox="0 0 1283 512" fill="none" xmlns="http://www.w3.org/2000/svg">
<path d="M1140.1 319.529C1140.13 318.772 1140 318.022 1139.71 317.321C1139.43 316.621 1139 315.988 1138.46 315.464C1137.91 314.941 1137.26 314.54 1136.55 314.287C1135.83 314.034 1135.07 313.937 1134.32 313.999H1128.6V330.118H1131.73V325.056H1133.58L1136.54 329.915H1140.23L1136.7 324.485C1137.72 324.114 1138.59 323.437 1139.2 322.548C1139.81 321.659 1140.12 320.603 1140.1 319.526V319.529ZM1134.32 321.974H1131.73V317.051H1134.32C1134.66 317.001 1135.02 317.027 1135.35 317.13C1135.69 317.236 1136 317.413 1136.26 317.651C1136.51 317.889 1136.71 318.181 1136.85 318.507C1136.97 318.831 1137.03 319.184 1137.01 319.532C1137.01 319.876 1136.95 320.217 1136.81 320.532C1136.67 320.847 1136.47 321.133 1136.22 321.362C1135.96 321.595 1135.66 321.768 1135.33 321.874C1135.01 321.98 1134.66 322.016 1134.32 321.977V321.974Z" fill="white"/>
<path d="M1133.94 307.094C1130.93 307.094 1128 307.983 1125.5 309.645C1123 311.308 1121.05 313.674 1119.9 316.441C1118.75 319.21 1118.46 322.253 1119.04 325.193C1119.63 328.13 1121.07 330.829 1123.2 332.948C1125.32 335.067 1128.03 336.509 1130.98 337.092C1133.92 337.675 1136.98 337.377 1139.75 336.23C1142.53 335.085 1144.9 333.142 1146.57 330.653C1148.24 328.16 1149.13 325.234 1149.13 322.239C1149.13 318.221 1147.53 314.369 1144.68 311.529C1141.83 308.689 1137.97 307.094 1133.94 307.094ZM1133.94 334.27C1131.54 334.275 1129.2 333.575 1127.21 332.251C1125.21 330.926 1123.65 329.046 1122.74 326.838C1121.81 324.634 1121.57 322.206 1122.04 319.864C1122.5 317.521 1123.66 315.37 1125.35 313.677C1127.04 311.988 1129.2 310.84 1131.55 310.375C1133.9 309.91 1136.34 310.152 1138.55 311.07C1140.76 311.988 1142.65 313.539 1143.98 315.529C1145.3 317.515 1146.01 319.855 1146 322.241C1146 325.429 1144.72 328.484 1142.46 330.738C1140.2 332.992 1137.14 334.261 1133.94 334.27Z" fill="white"/>
<path d="M1111.12 263.376C1114.12 263.441 1117.07 264.075 1119.82 265.242L1123.44 241.639C1120.46 239.394 1116.79 238.218 1113.05 238.312C1106.3 238.312 1099.72 241.908 1093.35 248.999L1092.17 250.329L1090.65 240.341H1065.05V334.053H1092.27V296.333C1092.27 275.061 1098.95 263.376 1111.12 263.376Z" fill="white"/>
<path d="M1053.38 288.667C1053.38 259.479 1033.76 238.306 1006.69 238.306C979.622 238.306 959.968 258.71 959.968 286.764C959.968 314.817 980.318 336.388 1008.38 336.388C1033.85 336.388 1048.75 318.522 1051.39 305.331L1028.23 302.826C1025.96 305.968 1022.97 308.505 1019.51 310.218C1016.05 311.928 1012.23 312.761 1008.38 312.647C993.157 312.647 987.133 304.096 986.539 296.15V295.25H1053.28L1053.38 288.67V288.667ZM986.638 277.377V276.474C987.266 268.126 995.673 262.048 1006.49 262.048C1018.87 262.048 1025.88 269.296 1026.34 276.474V277.377H986.638Z" fill="white"/>
<path d="M955.298 238.976H932.779V210.282H905.823V238.976H889.91V264.472H905.823V334.052H932.779V264.472H955.298V238.976Z" fill="white"/>
<path d="M845.147 336.388C865.06 336.388 885.239 327.68 885.239 308.224C885.239 294.542 875.979 284.863 856.962 278.89C853.047 277.588 849.661 276.519 846.807 275.551C834.326 271.547 830.94 270.481 830.94 266.673C830.94 262.866 836.384 260.333 841.761 260.333C846.043 260.333 853.245 261.969 854.009 267.907H881.057C880.162 250.453 863.766 238.306 840.831 238.306C817.896 238.306 803.957 252.924 803.957 266.67C803.957 280.417 813.185 289.729 832.931 295.236L839.14 296.936C853.576 300.94 858.424 302.277 858.424 307.582C858.424 312.887 851.585 314.256 845.711 314.256C835.954 314.256 829.115 310.718 828.054 305.146H801.169C802.096 325.069 818.097 336.382 845.147 336.382V336.388Z" fill="white"/>
<path d="M748.148 238.309C734.524 238.309 722.535 244.696 717.628 254.557L716.359 257.065L714.42 240.347H689.076V378.423H716.058V317.107L717.628 320.249C722.535 330.112 734.524 336.496 748.148 336.496C774.396 336.496 794.164 315.401 794.164 287.419C794.164 259.437 774.396 238.306 748.148 238.306V238.309ZM743.04 311.025C736.761 311.025 730.737 308.529 726.299 304.083C721.86 299.638 719.362 293.609 719.362 287.322C719.362 281.035 721.86 275.007 726.299 270.561C730.737 266.115 736.761 263.619 743.04 263.619C749.318 263.619 755.342 266.115 759.781 270.561C764.22 275.007 766.717 281.035 766.717 287.322C766.717 293.609 764.22 299.638 759.781 304.083C755.342 308.529 749.318 311.025 743.04 311.025Z" fill="white"/>
<path d="M649.129 238.055L647.147 255.152L645.886 252.587C640.834 242.331 628.817 235.971 614.858 235.971C587.922 235.971 567.646 257.545 567.646 286.197C567.646 314.85 587.922 336.388 614.858 336.388C628.509 336.388 640.834 329.859 645.886 319.772L647.147 317.207L649.129 334.304H675.069V238.055H649.129ZM619.874 310.471C615.088 310.459 610.41 309.024 606.437 306.345C602.465 303.669 599.371 299.87 597.553 295.435C595.736 290.999 595.272 286.122 596.223 281.42C597.171 276.72 599.493 272.407 602.889 269.026C606.288 265.647 610.61 263.353 615.309 262.434C620.008 261.515 624.875 262.014 629.29 263.867C633.708 265.719 637.477 268.843 640.12 272.84C642.765 276.84 644.164 281.534 644.146 286.33C644.215 289.534 643.635 292.717 642.436 295.69C641.24 298.663 639.453 301.36 637.184 303.615C634.912 305.874 632.207 307.645 629.23 308.823C626.256 310 623.072 310.561 619.874 310.465V310.471Z" fill="white"/>
<path d="M558.305 334.053V200.942H531.067V289.46L466.816 200.942H439.206V334.053H466.412V245.568L530.662 334.053H558.305Z" fill="white"/>
<path d="M352.442 174.221C350.09 174.221 347.744 174.365 345.41 174.656H344.941L344.638 174.289C334.878 161.518 322.309 151.169 307.9 144.047C293.495 136.925 277.637 133.219 261.566 133.219C245.494 133.219 229.64 136.925 215.232 144.047C200.823 151.169 188.253 161.518 178.493 174.289L178.226 174.656H177.757C175.414 174.365 173.053 174.221 170.689 174.221H156.556V200.447L156.087 200.682C149.269 203.886 143.503 208.966 139.461 215.326C135.423 221.686 133.279 229.067 133.279 236.601C133.279 244.135 135.423 251.516 139.464 257.876C143.503 264.236 149.269 269.316 156.09 272.52L156.559 272.72V273.255C156.559 301.146 167.639 327.899 187.359 347.62C207.079 367.342 233.828 378.423 261.718 378.423C289.609 378.423 316.355 367.342 336.078 347.62C355.8 327.899 366.88 301.146 366.88 273.255V272.72L367.35 272.52C374.171 269.316 379.937 264.236 383.975 257.876C388.014 251.516 390.16 244.135 390.16 236.601C390.16 229.067 388.016 221.686 383.975 215.326C379.937 208.966 374.171 203.886 367.35 200.682L366.88 200.447V174.221H352.442ZM206.023 182.796C213.293 175.454 221.948 169.626 231.485 165.649C241.022 161.671 251.251 159.624 261.583 159.624C271.915 159.624 282.145 161.671 291.682 165.649C301.219 169.626 309.871 175.454 317.144 182.796L317.915 183.599L316.945 184.135C312.947 186.329 309.108 188.803 305.457 191.536L305.02 191.836L304.586 191.601C291.266 184.773 276.549 181.117 261.586 180.916C246.621 181.117 231.904 184.773 218.584 191.601L218.114 191.836L217.713 191.536C214.05 188.803 210.202 186.329 206.193 184.135L205.222 183.499L206.026 182.796H206.023ZM338.14 272.388C338.14 292.692 330.074 312.169 315.716 326.528C301.357 340.886 281.884 348.953 261.581 348.953C241.277 348.953 221.804 340.886 207.445 326.528C193.087 312.169 185.022 292.695 185.022 272.388V205.836L186.06 206.104C199.456 209.454 212.149 224.157 215.097 227.74C221.25 221.775 228.529 217.097 236.512 213.973C244.491 210.852 253.014 209.349 261.583 209.555C270.15 209.349 278.672 210.852 286.652 213.973C294.635 217.094 301.911 221.775 308.067 227.74C310.982 224.157 323.573 209.454 337.104 206.104L338.142 205.836V272.388H338.14Z" fill="white"/>
</svg>
