<svg xmlns="http://www.w3.org/2000/svg" width="20" height="20" viewBox="0 0 20 20" fill="none">
  <path d="M 13.707 7.707 C 14.098 7.317 14.098 6.683 13.707 6.293 C 13.317 5.902 12.683 5.902 12.293 6.293 L 13 7 L 13.707 7.707 Z M 6.293 12.293 C 5.902 12.683 5.902 13.317 6.293 13.707 C 6.683 14.098 7.317 14.098 7.707 13.707 L 7 13 L 6.293 12.293 Z M 7.707 6.293 C 7.317 5.902 6.683 5.902 6.293 6.293 C 5.902 6.683 5.902 7.317 6.293 7.707 L 7 7 L 7.707 6.293 Z M 12.293 13.707 C 12.683 14.098 13.317 14.098 13.707 13.707 C 14.098 13.317 14.098 12.683 13.707 12.293 L 13 13 L 12.293 13.707 Z M 20 10 L 19 10 C 19 14.971 14.971 19 10 19 L 10 20 L 10 21 C 16.075 21 21 16.075 21 10 L 20 10 Z M 10 20 L 10 19 C 5.029 19 1 14.971 1 10 L 0 10 L -1 10 C -1 16.075 3.925 21 10 21 L 10 20 Z M 0 10 L 1 10 C 1 5.029 5.029 1 10 1 L 10 0 L 10 -1 C 3.925 -1 -1 3.925 -1 10 L 0 10 Z M 10 0 L 10 1 C 14.971 1 19 5.029 19 10 L 20 10 L 21 10 C 21 3.925 16.075 -1 10 -1 L 10 0 Z M 13 7 L 12.293 6.293 L 6.293 12.293 L 7 13 L 7.707 13.707 L 13.707 7.707 L 13 7 Z M 7 7 L 6.293 7.707 L 12.293 13.707 L 13 13 L 13.707 12.293 L 7.707 6.293 L 7 7 Z" fill="currentColor" fill-rule="nonzero"></path>
</svg>