<svg xmlns="http://www.w3.org/2000/svg" width="19.121" height="19.121" viewBox="0 0 19.121 19.121" fill="none">
  <path d="M 15.591 0.53 L 16.298 1.237 C 16.53 1.005 16.634 0.674 16.575 0.351 C 16.516 0.028 16.302 -0.246 16.003 -0.381 L 15.591 0.53 Z M 18.591 3.53 L 19.502 3.118 C 19.367 2.819 19.093 2.605 18.77 2.546 C 18.447 2.488 18.116 2.591 17.884 2.823 L 18.591 3.53 Z M 15.753 6.369 L 15.046 5.662 L 15.046 5.662 L 15.753 6.369 Z M 14.93 7.037 L 14.621 6.086 L 14.93 7.037 Z M 13.49 6.369 L 12.783 7.076 L 12.783 7.076 L 13.49 6.369 Z M 14.312 7.037 L 14.003 7.988 L 14.312 7.037 Z M 10.416 11.771 L 10.876 12.659 L 10.876 12.659 L 10.416 11.771 Z M 11.696 11.83 L 11.933 10.858 L 11.696 11.83 Z M 10.808 11.662 L 10.74 10.664 L 10.808 11.662 Z M 0.621 15.5 L -0.086 14.793 L -0.086 14.793 L 0.621 15.5 Z M 0.621 18.5 L -0.086 19.207 L 0.621 18.5 Z M 7.292 7.425 L 8.263 7.188 L 7.292 7.425 Z M 7.46 8.313 L 8.457 8.382 L 7.46 8.313 Z M 6.869 9.252 L 7.576 9.959 L 7.576 9.959 L 6.869 9.252 Z M 7.35 8.705 L 6.462 8.245 L 7.35 8.705 Z M 3.621 18.5 L 2.914 17.793 L 2.914 17.793 L 3.621 18.5 Z M 12.753 3.369 L 12.046 2.662 L 12.753 3.369 Z M 12.084 4.191 L 11.133 3.882 L 12.084 4.191 Z M 12.753 5.631 L 13.46 4.924 L 13.46 4.924 L 12.753 5.631 Z M 12.084 4.809 L 13.036 4.5 L 12.084 4.809 Z M 15.591 0.53 L 14.884 -0.177 L 12.046 2.662 L 12.753 3.369 L 13.46 4.076 L 16.298 1.237 L 15.591 0.53 Z M 13.121 0 L 13.121 1 C 13.857 1 14.553 1.158 15.179 1.441 L 15.591 0.53 L 16.003 -0.381 C 15.123 -0.779 14.147 -1 13.121 -1 L 13.121 0 Z M 7.121 6 L 8.121 6 C 8.121 3.239 10.36 1 13.121 1 L 13.121 0 L 13.121 -1 C 9.255 -1 6.121 2.134 6.121 6 L 7.121 6 Z M 7.292 7.425 L 8.263 7.188 C 8.171 6.809 8.121 6.411 8.121 6 L 7.121 6 L 6.121 6 C 6.121 6.571 6.19 7.128 6.32 7.662 L 7.292 7.425 Z M 0.621 15.5 L 1.328 16.207 L 7.576 9.959 L 6.869 9.252 L 6.162 8.545 L -0.086 14.793 L 0.621 15.5 Z M 9.869 12.252 L 9.162 11.545 L 2.914 17.793 L 3.621 18.5 L 4.328 19.207 L 10.576 12.959 L 9.869 12.252 Z M 13.121 12 L 13.121 11 C 12.711 11 12.313 10.951 11.933 10.858 L 11.696 11.83 L 11.46 12.801 C 11.993 12.931 12.55 13 13.121 13 L 13.121 12 Z M 19.121 6 L 18.121 6 C 18.121 8.761 15.883 11 13.121 11 L 13.121 12 L 13.121 13 C 16.987 13 20.121 9.866 20.121 6 L 19.121 6 Z M 18.591 3.53 L 17.68 3.942 C 17.963 4.569 18.121 5.264 18.121 6 L 19.121 6 L 20.121 6 C 20.121 4.975 19.9 3.998 19.502 3.118 L 18.591 3.53 Z M 15.753 6.369 L 16.46 7.076 L 19.298 4.237 L 18.591 3.53 L 17.884 2.823 L 15.046 5.662 L 15.753 6.369 Z M 12.753 5.631 L 12.046 6.338 L 12.783 7.076 L 13.49 6.369 L 14.197 5.662 L 13.46 4.924 L 12.753 5.631 Z M 15.753 6.369 L 15.046 5.662 C 14.836 5.871 14.721 5.985 14.631 6.061 C 14.551 6.129 14.56 6.106 14.621 6.086 L 14.93 7.037 L 15.239 7.988 C 15.529 7.894 15.751 7.734 15.926 7.586 C 16.092 7.445 16.273 7.262 16.46 7.076 L 15.753 6.369 Z M 13.49 6.369 L 12.783 7.076 C 12.969 7.262 13.151 7.445 13.317 7.586 C 13.492 7.734 13.714 7.894 14.003 7.988 L 14.312 7.037 L 14.621 6.086 C 14.683 6.106 14.691 6.129 14.611 6.061 C 14.522 5.985 14.407 5.871 14.197 5.662 L 13.49 6.369 Z M 14.93 7.037 L 14.621 6.086 L 14.621 6.086 L 14.312 7.037 L 14.003 7.988 C 14.405 8.118 14.838 8.118 15.239 7.988 L 14.93 7.037 Z M 9.869 12.252 L 10.576 12.959 C 10.72 12.815 10.802 12.734 10.864 12.678 C 10.923 12.624 10.918 12.638 10.876 12.659 L 10.416 11.771 L 9.956 10.883 C 9.645 11.045 9.377 11.33 9.162 11.545 L 9.869 12.252 Z M 11.696 11.83 L 11.933 10.858 C 11.697 10.801 11.49 10.75 11.324 10.717 C 11.17 10.686 10.959 10.649 10.74 10.664 L 10.808 11.662 L 10.876 12.659 C 10.811 12.664 10.8 12.651 10.93 12.677 C 11.046 12.701 11.206 12.74 11.46 12.801 L 11.696 11.83 Z M 10.416 11.771 L 10.876 12.659 C 10.896 12.649 10.903 12.646 10.902 12.647 C 10.901 12.647 10.898 12.648 10.893 12.65 C 10.888 12.652 10.882 12.654 10.875 12.656 C 10.869 12.657 10.863 12.659 10.857 12.66 C 10.852 12.661 10.849 12.662 10.848 12.662 C 10.846 12.662 10.854 12.661 10.876 12.659 L 10.808 11.662 L 10.74 10.664 C 10.441 10.684 10.222 10.746 9.956 10.883 L 10.416 11.771 Z M 0.621 15.5 L -0.086 14.793 C -1.305 16.012 -1.305 17.988 -0.086 19.207 L 0.621 18.5 L 1.328 17.793 C 0.891 17.355 0.891 16.645 1.328 16.207 L 0.621 15.5 Z M 7.292 7.425 L 6.32 7.662 C 6.382 7.915 6.42 8.075 6.444 8.192 C 6.47 8.321 6.458 8.31 6.462 8.245 L 7.46 8.313 L 8.457 8.382 C 8.472 8.162 8.436 7.951 8.405 7.798 C 8.371 7.631 8.321 7.424 8.263 7.188 L 7.292 7.425 Z M 6.869 9.252 L 7.576 9.959 C 7.791 9.744 8.077 9.476 8.238 9.165 L 7.35 8.705 L 6.462 8.245 C 6.484 8.203 6.497 8.198 6.443 8.258 C 6.387 8.32 6.306 8.401 6.162 8.545 L 6.869 9.252 Z M 7.46 8.313 L 6.462 8.245 C 6.461 8.268 6.459 8.275 6.46 8.273 C 6.46 8.272 6.46 8.269 6.461 8.264 C 6.462 8.259 6.464 8.253 6.466 8.246 C 6.468 8.239 6.47 8.234 6.471 8.229 C 6.473 8.224 6.474 8.22 6.475 8.219 C 6.475 8.218 6.472 8.225 6.462 8.245 L 7.35 8.705 L 8.238 9.165 C 8.375 8.9 8.437 8.68 8.457 8.382 L 7.46 8.313 Z M 0.621 18.5 L -0.086 19.207 C 1.133 20.426 3.109 20.426 4.328 19.207 L 3.621 18.5 L 2.914 17.793 C 2.476 18.231 1.766 18.231 1.328 17.793 L 0.621 18.5 Z M 12.753 3.369 L 12.046 2.662 C 11.859 2.848 11.676 3.03 11.536 3.196 C 11.387 3.37 11.228 3.592 11.133 3.882 L 12.084 4.191 L 13.036 4.5 C 13.016 4.561 12.992 4.57 13.06 4.49 C 13.136 4.401 13.25 4.285 13.46 4.076 L 12.753 3.369 Z M 12.753 5.631 L 13.46 4.924 C 13.25 4.715 13.136 4.599 13.06 4.51 C 12.992 4.43 13.016 4.439 13.036 4.5 L 12.084 4.809 L 11.133 5.118 C 11.228 5.408 11.387 5.63 11.536 5.804 C 11.676 5.97 11.859 6.152 12.046 6.338 L 12.753 5.631 Z M 12.084 4.191 L 11.133 3.882 C 11.003 4.284 11.003 4.716 11.133 5.118 L 12.084 4.809 L 13.036 4.5 L 13.036 4.5 L 12.084 4.191 Z" fill="currentColor" fill-rule="nonzero"></path>
</svg>