<svg xmlns="http://www.w3.org/2000/svg" width="18.605" height="18.605" viewBox="0 0 18.605 18.605" fill="none">
  <path d="M 5.451 6.299 L 4.549 6.731 L 4.549 6.731 L 5.451 6.299 Z M 12.307 13.155 L 12.74 12.253 L 12.74 12.253 L 12.307 13.155 Z M 0.242 5.207 L 1.204 4.934 L 1.204 4.934 L 0.242 5.207 Z M 13.399 18.364 L 13.672 17.402 L 13.672 17.402 L 13.399 18.364 Z M 17.449 13.096 L 16.742 13.803 L 16.742 13.803 L 17.449 13.096 Z M 17.254 12.901 L 17.961 12.194 L 17.961 12.194 L 17.254 12.901 Z M 16.554 12.263 L 17.099 11.424 L 17.099 11.424 L 16.554 12.263 Z M 14.373 12.263 L 14.918 13.101 L 14.918 13.101 L 14.373 12.263 Z M 18.39 15.984 L 17.498 15.533 L 17.498 15.533 L 18.39 15.984 Z M 18.39 14.179 L 17.498 14.63 L 17.498 14.63 L 18.39 14.179 Z M 6.343 2.052 L 7.181 1.507 L 7.181 1.507 L 6.343 2.052 Z M 6.343 4.232 L 5.504 3.687 L 5.504 3.687 L 6.343 4.232 Z M 2.621 0.215 L 2.17 -0.677 L 2.17 -0.677 L 2.621 0.215 Z M 4.427 0.215 L 3.975 1.108 L 3.975 1.108 L 4.427 0.215 Z M 14.658 18.605 L 14.661 17.605 L 14.661 17.605 L 14.658 18.605 Z M 16.137 18.221 L 15.647 17.349 L 15.647 17.349 L 16.137 18.221 Z M 0 3.947 L 1 3.944 L 1 3.944 L 0 3.947 Z M 0.384 2.469 L -0.487 1.979 L -0.487 1.979 L 0.384 2.469 Z M 12.573 13.268 L 12.853 12.308 L 12.853 12.308 L 12.573 13.268 Z M 13.435 13.121 L 14.017 13.934 L 14.017 13.934 L 13.435 13.121 Z M 5.338 6.033 L 4.378 6.313 L 4.378 6.313 L 5.338 6.033 Z M 5.485 5.171 L 4.672 4.589 L 4.672 4.589 L 5.485 5.171 Z M 8.297 10.309 L 9.004 9.601 C 7.883 8.481 7 7.215 6.352 5.866 L 5.451 6.299 L 4.549 6.731 C 5.293 8.281 6.307 9.733 7.59 11.016 L 8.297 10.309 Z M 12.307 13.155 L 12.74 12.253 C 11.39 11.606 10.125 10.722 9.004 9.601 L 8.297 10.309 L 7.59 11.016 C 8.872 12.298 10.324 13.312 11.874 14.056 L 12.307 13.155 Z M 5.115 13.49 L 5.822 12.783 C 3.558 10.519 2.019 7.807 1.204 4.934 L 0.242 5.207 L -0.72 5.48 C 0.186 8.673 1.896 11.686 4.408 14.198 L 5.115 13.49 Z M 13.399 18.364 L 13.672 17.402 C 10.798 16.586 8.086 15.048 5.822 12.783 L 5.115 13.49 L 4.408 14.198 C 6.92 16.709 9.932 18.42 13.126 19.326 L 13.399 18.364 Z M 1.381 1.314 L 2.088 2.022 L 2.246 1.864 L 1.539 1.157 L 0.832 0.45 L 0.674 0.607 L 1.381 1.314 Z M 5.509 1.157 L 4.802 1.864 L 4.997 2.059 L 5.704 1.352 L 6.411 0.645 L 6.216 0.45 L 5.509 1.157 Z M 17.291 17.224 L 17.998 17.931 L 18.156 17.774 L 17.449 17.067 L 16.742 16.36 L 16.584 16.517 L 17.291 17.224 Z M 17.449 13.096 L 18.156 12.389 L 17.961 12.194 L 17.254 12.901 L 16.547 13.608 L 16.742 13.803 L 17.449 13.096 Z M 17.254 12.901 L 17.961 12.194 C 17.647 11.881 17.385 11.61 17.099 11.424 L 16.554 12.263 L 16.008 13.101 C 16.074 13.144 16.161 13.223 16.547 13.608 L 17.254 12.901 Z M 13.673 12.901 L 14.38 13.608 C 14.766 13.223 14.853 13.144 14.918 13.101 L 14.373 12.263 L 13.828 11.424 C 13.542 11.61 13.279 11.881 12.966 12.194 L 13.673 12.901 Z M 16.554 12.263 L 17.099 11.424 C 16.104 10.778 14.822 10.778 13.828 11.424 L 14.373 12.263 L 14.918 13.101 C 15.25 12.886 15.677 12.886 16.008 13.101 L 16.554 12.263 Z M 17.449 17.067 L 18.156 17.774 C 18.632 17.298 19.048 16.9 19.283 16.436 L 18.39 15.984 L 17.498 15.533 C 17.444 15.64 17.329 15.773 16.742 16.36 L 17.449 17.067 Z M 17.449 13.096 L 16.742 13.803 C 17.329 14.39 17.444 14.523 17.498 14.63 L 18.39 14.179 L 19.283 13.727 C 19.048 13.263 18.632 12.865 18.156 12.389 L 17.449 13.096 Z M 18.39 15.984 L 19.283 16.436 C 19.713 15.584 19.713 14.579 19.283 13.727 L 18.39 14.179 L 17.498 14.63 C 17.641 14.914 17.641 15.249 17.498 15.533 L 18.39 15.984 Z M 5.704 1.352 L 4.997 2.059 C 5.383 2.444 5.462 2.531 5.504 2.597 L 6.343 2.052 L 7.181 1.507 C 6.995 1.221 6.725 0.958 6.411 0.645 L 5.704 1.352 Z M 5.704 4.932 L 6.411 5.64 C 6.725 5.326 6.995 5.063 7.181 4.777 L 6.343 4.232 L 5.504 3.687 C 5.462 3.753 5.383 3.84 4.997 4.225 L 5.704 4.932 Z M 6.343 2.052 L 5.504 2.597 C 5.72 2.928 5.72 3.356 5.504 3.687 L 6.343 4.232 L 7.181 4.777 C 7.828 3.783 7.828 2.501 7.181 1.507 L 6.343 2.052 Z M 1.539 1.157 L 2.246 1.864 C 2.833 1.277 2.966 1.162 3.073 1.108 L 2.621 0.215 L 2.17 -0.677 C 1.706 -0.442 1.307 -0.026 0.832 0.45 L 1.539 1.157 Z M 5.509 1.157 L 6.216 0.45 C 5.74 -0.026 5.342 -0.442 4.878 -0.677 L 4.427 0.215 L 3.975 1.108 C 4.082 1.162 4.215 1.277 4.802 1.864 L 5.509 1.157 Z M 2.621 0.215 L 3.073 1.108 C 3.356 0.964 3.692 0.964 3.975 1.108 L 4.427 0.215 L 4.878 -0.677 C 4.027 -1.108 3.021 -1.108 2.17 -0.677 L 2.621 0.215 Z M 13.399 18.364 L 13.126 19.326 C 13.672 19.481 14.084 19.604 14.655 19.605 L 14.658 18.605 L 14.661 17.605 C 14.407 17.605 14.254 17.567 13.672 17.402 L 13.399 18.364 Z M 17.291 17.224 L 16.584 16.517 C 16.024 17.077 15.862 17.228 15.647 17.349 L 16.137 18.221 L 16.626 19.093 C 17.131 18.809 17.499 18.43 17.998 17.931 L 17.291 17.224 Z M 14.658 18.605 L 14.655 19.605 C 15.286 19.607 16.076 19.402 16.626 19.093 L 16.137 18.221 L 15.647 17.349 C 15.398 17.489 14.947 17.606 14.661 17.605 L 14.658 18.605 Z M 0.242 5.207 L 1.204 4.934 C 1.038 4.351 1.001 4.198 1 3.944 L 0 3.947 L -1 3.95 C -0.998 4.522 -0.876 4.933 -0.72 5.48 L 0.242 5.207 Z M 1.381 1.314 L 0.674 0.607 C 0.175 1.106 -0.204 1.474 -0.487 1.979 L 0.384 2.469 L 1.256 2.959 C 1.377 2.744 1.528 2.582 2.088 2.022 L 1.381 1.314 Z M 0 3.947 L 1 3.944 C 0.999 3.658 1.116 3.208 1.256 2.959 L 0.384 2.469 L -0.487 1.979 C -0.796 2.529 -1.002 3.319 -1 3.95 L 0 3.947 Z M 12.307 13.155 L 11.874 14.056 C 11.98 14.107 12.12 14.177 12.293 14.228 L 12.573 13.268 L 12.853 12.308 C 12.862 12.31 12.867 12.313 12.856 12.308 C 12.848 12.305 12.836 12.299 12.816 12.29 C 12.795 12.28 12.772 12.269 12.74 12.253 L 12.307 13.155 Z M 13.673 12.901 L 12.966 12.194 C 12.904 12.256 12.875 12.285 12.853 12.306 C 12.836 12.322 12.839 12.317 12.853 12.308 L 13.435 13.121 L 14.017 13.934 C 14.166 13.827 14.287 13.702 14.38 13.608 L 13.673 12.901 Z M 12.573 13.268 L 12.293 14.228 C 12.868 14.395 13.53 14.282 14.017 13.934 L 13.435 13.121 L 12.853 12.308 C 12.864 12.3 12.869 12.298 12.867 12.299 C 12.865 12.3 12.859 12.302 12.852 12.303 C 12.844 12.304 12.839 12.304 12.836 12.304 C 12.834 12.304 12.84 12.304 12.853 12.308 L 12.573 13.268 Z M 5.451 6.299 L 6.352 5.866 C 6.337 5.834 6.325 5.81 6.316 5.79 C 6.306 5.77 6.301 5.758 6.297 5.75 C 6.293 5.739 6.295 5.743 6.298 5.753 L 5.338 6.033 L 4.378 6.313 C 4.428 6.486 4.498 6.626 4.549 6.731 L 5.451 6.299 Z M 5.704 4.932 L 4.997 4.225 C 4.904 4.318 4.778 4.44 4.672 4.589 L 5.485 5.171 L 6.298 5.753 C 6.288 5.766 6.284 5.769 6.3 5.753 C 6.32 5.731 6.35 5.701 6.411 5.64 L 5.704 4.932 Z M 5.338 6.033 L 6.298 5.753 C 6.302 5.766 6.302 5.771 6.301 5.769 C 6.301 5.767 6.301 5.761 6.303 5.754 C 6.304 5.746 6.306 5.741 6.307 5.739 C 6.307 5.737 6.306 5.742 6.298 5.753 L 5.485 5.171 L 4.672 4.589 C 4.323 5.075 4.21 5.738 4.378 6.313 L 5.338 6.033 Z" fill="currentColor" fill-rule="nonzero"></path>
</svg>