<svg xmlns="http://www.w3.org/2000/svg" width="19.688" height="14" viewBox="0 0 19.688 14" fill="none">
  <path d="M 19.424 6.287 L 20.27 5.753 L 19.424 6.287 Z M 19.667 6.777 L 18.692 7 L 19.667 6.777 Z M 19.424 7.713 L 18.579 7.179 L 18.579 7.179 L 19.424 7.713 Z M 19.667 7.223 L 18.692 7 L 19.667 7.223 Z M 0.264 6.287 L 1.109 6.821 L 1.109 6.821 L 0.264 6.287 Z M 0.021 6.777 L 0.996 7 L 0.021 6.777 Z M 0.264 7.713 L -0.582 8.247 L 0.264 7.713 Z M 0.021 7.223 L 0.996 7 L 0.021 7.223 Z M 0.264 6.287 L 1.109 6.821 C 1.642 5.977 2.696 4.5 4.202 3.243 C 5.706 1.988 7.601 1 9.844 1 L 9.844 0 L 9.844 -1 C 6.982 -1 4.649 0.265 2.921 1.707 C 1.195 3.148 0.011 4.814 -0.582 5.753 L 0.264 6.287 Z M 9.844 0 L 9.844 1 C 12.087 1 13.982 1.988 15.486 3.243 C 16.992 4.5 18.046 5.977 18.579 6.821 L 19.424 6.287 L 20.27 5.753 C 19.677 4.814 18.494 3.148 16.767 1.707 C 15.039 0.265 12.706 -1 9.844 -1 L 9.844 0 Z M 19.424 7.713 L 18.579 7.179 C 18.046 8.023 16.992 9.5 15.486 10.757 C 13.982 12.012 12.087 13 9.844 13 L 9.844 14 L 9.844 15 C 12.706 15 15.039 13.735 16.767 12.293 C 18.494 10.852 19.677 9.186 20.27 8.247 L 19.424 7.713 Z M 9.844 14 L 9.844 13 C 7.601 13 5.706 12.012 4.202 10.757 C 2.696 9.5 1.642 8.023 1.109 7.179 L 0.264 7.713 L -0.582 8.247 C 0.011 9.186 1.195 10.852 2.921 12.293 C 4.649 13.735 6.982 15 9.844 15 L 9.844 14 Z M 19.424 6.287 L 18.579 6.821 C 18.614 6.877 18.639 6.916 18.66 6.95 C 18.68 6.983 18.69 7.001 18.695 7.011 C 18.699 7.02 18.699 7.019 18.696 7.012 C 18.695 7.009 18.694 7.006 18.693 7.004 C 18.692 7.001 18.692 6.999 18.692 7 L 19.667 6.777 L 20.642 6.553 C 20.559 6.193 20.39 5.943 20.27 5.753 L 19.424 6.287 Z M 19.424 7.713 L 20.27 8.247 C 20.39 8.057 20.559 7.807 20.642 7.447 L 19.667 7.223 L 18.692 7 C 18.692 7.001 18.692 6.999 18.693 6.996 C 18.694 6.994 18.695 6.991 18.696 6.988 C 18.699 6.981 18.699 6.98 18.695 6.989 C 18.69 6.999 18.68 7.017 18.66 7.05 C 18.639 7.084 18.614 7.123 18.579 7.179 L 19.424 7.713 Z M 19.667 6.777 L 18.692 7 C 18.689 6.988 18.688 6.98 18.688 6.977 C 18.687 6.974 18.687 6.973 18.687 6.975 C 18.688 6.977 18.688 6.98 18.688 6.985 C 18.688 6.99 18.688 6.995 18.688 7 C 18.688 7.005 18.688 7.01 18.688 7.015 C 18.688 7.02 18.688 7.023 18.687 7.025 C 18.687 7.027 18.687 7.026 18.688 7.023 C 18.688 7.02 18.689 7.012 18.692 7 L 19.667 7.223 L 20.642 7.447 C 20.704 7.175 20.704 6.825 20.642 6.553 L 19.667 6.777 Z M 0.264 6.287 L -0.582 5.753 C -0.702 5.943 -0.871 6.193 -0.953 6.553 L 0.021 6.777 L 0.996 7 C 0.996 6.999 0.996 7.001 0.995 7.004 C 0.994 7.006 0.993 7.009 0.992 7.012 C 0.99 7.019 0.989 7.02 0.993 7.011 C 0.999 7.001 1.009 6.983 1.029 6.95 C 1.049 6.916 1.074 6.877 1.109 6.821 L 0.264 6.287 Z M 0.264 7.713 L 1.109 7.179 C 1.074 7.123 1.049 7.084 1.029 7.05 C 1.009 7.017 0.999 6.999 0.993 6.989 C 0.989 6.98 0.99 6.981 0.992 6.988 C 0.993 6.991 0.994 6.994 0.995 6.996 C 0.996 6.999 0.996 7.001 0.996 7 L 0.021 7.223 L -0.953 7.447 C -0.871 7.807 -0.702 8.057 -0.582 8.247 L 0.264 7.713 Z M 0.021 6.777 L -0.953 6.553 C -1.016 6.825 -1.016 7.175 -0.953 7.447 L 0.021 7.223 L 0.996 7 C 0.999 7.012 1 7.02 1.001 7.023 C 1.001 7.026 1.001 7.027 1.001 7.025 C 1.001 7.023 1.001 7.02 1 7.015 C 1 7.01 1 7.005 1 7 C 1 6.995 1 6.99 1 6.985 C 1.001 6.98 1.001 6.977 1.001 6.975 C 1.001 6.973 1.001 6.974 1.001 6.977 C 1 6.98 0.999 6.988 0.996 7 L 0.021 6.777 Z M 12.844 7 L 11.844 7 C 11.844 8.105 10.949 9 9.844 9 L 9.844 10 L 9.844 11 C 12.053 11 13.844 9.209 13.844 7 L 12.844 7 Z M 9.844 10 L 9.844 9 C 8.74 9 7.844 8.105 7.844 7 L 6.844 7 L 5.844 7 C 5.844 9.209 7.635 11 9.844 11 L 9.844 10 Z M 6.844 7 L 7.844 7 C 7.844 5.895 8.74 5 9.844 5 L 9.844 4 L 9.844 3 C 7.635 3 5.844 4.791 5.844 7 L 6.844 7 Z M 9.844 4 L 9.844 5 C 10.949 5 11.844 5.895 11.844 7 L 12.844 7 L 13.844 7 C 13.844 4.791 12.053 3 9.844 3 L 9.844 4 Z" fill="currentColor" fill-rule="nonzero"></path>
</svg>