<svg xmlns="http://www.w3.org/2000/svg" width="18" height="18" viewBox="0 0 18 18" fill="none">
  <path d="M 5.579 8.421 L 4.872 7.714 L 4.872 7.714 L 5.579 8.421 Z M 6.005 7.942 L 6.878 8.43 L 6.878 8.43 L 6.005 7.942 Z M 6.054 6.807 L 7.045 6.674 L 6.054 6.807 Z M 6.122 7.596 L 7.112 7.737 L 6.122 7.596 Z M 0.028 14.181 L -0.945 13.947 L 0.028 14.181 Z M 0.469 13.531 L 1.176 14.238 L 1.176 14.238 L 0.469 13.531 Z M 0.147 13.892 L -0.705 13.369 L 0.147 13.892 Z M 0.546 17.891 L 1 17 L 0.546 17.891 Z M 0.109 17.454 L 1 17 L 0.109 17.454 Z M 4.469 17.531 L 5.176 18.238 L 5.176 18.238 L 4.469 17.531 Z M 4.108 17.853 L 4.631 18.705 L 4.108 17.853 Z M 3.819 17.972 L 4.053 18.945 L 3.819 17.972 Z M 11.193 11.946 L 11.326 10.955 L 11.193 11.946 Z M 10.404 11.878 L 10.546 12.868 L 10.404 11.878 Z M 9.579 12.421 L 8.872 11.714 L 8.872 11.714 L 9.579 12.421 Z M 10.058 11.995 L 10.546 12.868 L 10.058 11.995 Z M 12 5 C 11.448 5 11 5.448 11 6 C 11 6.552 11.448 7 12 7 L 12 6 L 12 5 Z M 12.01 7 C 12.562 7 13.01 6.552 13.01 6 C 13.01 5.448 12.562 5 12.01 5 L 12.01 6 L 12.01 7 Z M 12 12 L 12 13 C 15.866 13 19 9.866 19 6 L 18 6 L 17 6 C 17 8.761 14.761 11 12 11 L 12 12 Z M 11.193 11.946 L 11.06 12.937 C 11.368 12.979 11.682 13 12 13 L 12 12 L 12 11 C 11.771 11 11.546 10.985 11.326 10.955 L 11.193 11.946 Z M 9.579 12.421 L 8.872 11.714 L 3.762 16.824 L 4.469 17.531 L 5.176 18.238 L 10.286 13.128 L 9.579 12.421 Z M 3.337 18 L 3.337 17 L 1.6 17 L 1.6 18 L 1.6 19 L 3.337 19 L 3.337 18 Z M 0 16.4 L 1 16.4 L 1 14.663 L 0 14.663 L -1 14.663 L -1 16.4 L 0 16.4 Z M 0.469 13.531 L 1.176 14.238 L 6.286 9.128 L 5.579 8.421 L 4.872 7.714 L -0.238 12.824 L 0.469 13.531 Z M 6 6 L 5 6 C 5 6.318 5.021 6.632 5.063 6.94 L 6.054 6.807 L 7.045 6.674 C 7.015 6.454 7 6.229 7 6 L 6 6 Z M 12 0 L 12 -1 C 8.134 -1 5 2.134 5 6 L 6 6 L 7 6 C 7 3.239 9.239 1 12 1 L 12 0 Z M 18 6 L 19 6 C 19 2.134 15.866 -1 12 -1 L 12 0 L 12 1 C 14.761 1 17 3.239 17 6 L 18 6 Z M 5.579 8.421 L 6.286 9.128 C 6.475 8.939 6.725 8.703 6.878 8.43 L 6.005 7.942 L 5.132 7.454 C 5.152 7.418 5.163 7.414 5.117 7.464 C 5.068 7.517 4.998 7.588 4.872 7.714 L 5.579 8.421 Z M 6.054 6.807 L 5.063 6.94 C 5.093 7.165 5.112 7.306 5.122 7.409 C 5.133 7.521 5.124 7.51 5.132 7.454 L 6.122 7.596 L 7.112 7.737 C 7.139 7.544 7.126 7.355 7.112 7.217 C 7.098 7.068 7.073 6.883 7.045 6.674 L 6.054 6.807 Z M 6.005 7.942 L 6.878 8.43 C 7.008 8.196 7.074 8.002 7.112 7.737 L 6.122 7.596 L 5.132 7.454 C 5.129 7.473 5.128 7.48 5.128 7.478 C 5.128 7.477 5.129 7.475 5.13 7.47 C 5.131 7.466 5.133 7.461 5.135 7.455 C 5.136 7.449 5.138 7.444 5.14 7.44 C 5.142 7.436 5.143 7.433 5.143 7.432 C 5.144 7.431 5.141 7.437 5.132 7.454 L 6.005 7.942 Z M 0 14.663 L 1 14.663 C 1 14.532 1 14.466 1.002 14.419 C 1.004 14.381 1.006 14.389 1 14.414 L 0.028 14.181 L -0.945 13.947 C -1.006 14.204 -1 14.466 -1 14.663 L 0 14.663 Z M 0.469 13.531 L -0.238 12.824 C -0.378 12.964 -0.567 13.144 -0.705 13.369 L 0.147 13.892 L 1 14.414 C 0.987 14.436 0.979 14.441 1.005 14.413 C 1.037 14.378 1.083 14.331 1.176 14.238 L 0.469 13.531 Z M 0.028 14.181 L 1 14.414 L 1 14.414 L 0.147 13.892 L -0.705 13.369 C -0.815 13.548 -0.896 13.743 -0.945 13.947 L 0.028 14.181 Z M 1.6 18 L 1.6 17 C 1.303 17 1.141 16.999 1.025 16.99 C 0.92 16.981 0.942 16.971 1 17 L 0.546 17.891 L 0.092 18.782 C 0.363 18.92 0.633 18.964 0.862 18.983 C 1.079 19.001 1.336 19 1.6 19 L 1.6 18 Z M 0 16.4 L -1 16.4 C -1 16.664 -1.001 16.921 -0.983 17.138 C -0.964 17.367 -0.92 17.637 -0.782 17.908 L 0.109 17.454 L 1 17 C 1.029 17.058 1.019 17.08 1.01 16.975 C 1.001 16.859 1 16.697 1 16.4 L 0 16.4 Z M 0.546 17.891 L 1 17 L 1 17 L 0.109 17.454 L -0.782 17.908 C -0.59 18.284 -0.284 18.59 0.092 18.782 L 0.546 17.891 Z M 4.469 17.531 L 3.762 16.824 C 3.669 16.917 3.622 16.963 3.587 16.995 C 3.559 17.021 3.564 17.013 3.586 17 L 4.108 17.853 L 4.631 18.705 C 4.856 18.567 5.036 18.378 5.176 18.238 L 4.469 17.531 Z M 3.337 18 L 3.337 19 C 3.534 19 3.796 19.006 4.053 18.945 L 3.819 17.972 L 3.586 17 C 3.611 16.994 3.619 16.996 3.581 16.998 C 3.534 17 3.468 17 3.337 17 L 3.337 18 Z M 4.108 17.853 L 3.586 17 L 3.586 17 L 3.819 17.972 L 4.053 18.945 C 4.257 18.896 4.452 18.815 4.631 18.705 L 4.108 17.853 Z M 11.193 11.946 L 11.326 10.955 C 11.117 10.927 10.932 10.902 10.783 10.888 C 10.645 10.874 10.456 10.861 10.263 10.888 L 10.404 11.878 L 10.546 12.868 C 10.49 12.876 10.479 12.867 10.591 12.878 C 10.694 12.888 10.835 12.907 11.06 12.937 L 11.193 11.946 Z M 9.579 12.421 L 10.286 13.128 C 10.412 13.002 10.483 12.932 10.536 12.883 C 10.586 12.837 10.582 12.848 10.546 12.868 L 10.058 11.995 L 9.57 11.122 C 9.297 11.275 9.061 11.525 8.872 11.714 L 9.579 12.421 Z M 10.404 11.878 L 10.263 10.888 C 9.998 10.926 9.804 10.992 9.57 11.122 L 10.058 11.995 L 10.546 12.868 C 10.563 12.859 10.569 12.856 10.568 12.857 C 10.567 12.857 10.564 12.858 10.56 12.86 C 10.556 12.862 10.551 12.864 10.545 12.865 C 10.539 12.867 10.534 12.869 10.53 12.87 C 10.525 12.871 10.523 12.872 10.522 12.872 C 10.52 12.872 10.527 12.871 10.546 12.868 L 10.404 11.878 Z M 12 6 L 12 7 L 12.01 7 L 12.01 6 L 12.01 5 L 12 5 L 12 6 Z" fill="currentColor" fill-rule="nonzero"></path>
</svg>