<svg xmlns="http://www.w3.org/2000/svg" width="20" height="12" viewBox="0 0 20 12" fill="none">
  <path d="M 13.293 11.293 C 12.902 11.683 12.902 12.317 13.293 12.707 C 13.683 13.098 14.317 13.098 14.707 12.707 L 14 12 L 13.293 11.293 Z M 20 6 L 20.707 6.707 C 21.098 6.317 21.098 5.683 20.707 5.293 L 20 6 Z M 14.707 -0.707 C 14.317 -1.098 13.683 -1.098 13.293 -0.707 C 12.902 -0.317 12.902 0.317 13.293 0.707 L 14 0 L 14.707 -0.707 Z M 6.707 0.707 C 7.098 0.317 7.098 -0.317 6.707 -0.707 C 6.317 -1.098 5.683 -1.098 5.293 -0.707 L 6 0 L 6.707 0.707 Z M 0 6 L -0.707 5.293 C -1.098 5.683 -1.098 6.317 -0.707 6.707 L 0 6 Z M 5.293 12.707 C 5.683 13.098 6.317 13.098 6.707 12.707 C 7.098 12.317 7.098 11.683 6.707 11.293 L 6 12 L 5.293 12.707 Z M 14 12 L 14.707 12.707 L 20.707 6.707 L 20 6 L 19.293 5.293 L 13.293 11.293 L 14 12 Z M 20 6 L 20.707 5.293 L 14.707 -0.707 L 14 0 L 13.293 0.707 L 19.293 6.707 L 20 6 Z M 6 0 L 5.293 -0.707 L -0.707 5.293 L 0 6 L 0.707 6.707 L 6.707 0.707 L 6 0 Z M 0 6 L -0.707 6.707 L 5.293 12.707 L 6 12 L 6.707 11.293 L 0.707 5.293 L 0 6 Z" fill="currentColor" fill-rule="nonzero"></path>
</svg>