<svg xmlns="http://www.w3.org/2000/svg" width="18" height="20" viewBox="0 0 18 20" fill="none">
  <path d="M 19 10 C 19 9.448 18.552 9 18 9 C 17.448 9 17 9.448 17 10 L 18 10 L 19 10 Z M 1 10 C 1 9.448 0.552 9 0 9 C -0.552 9 -1 9.448 -1 10 L 0 10 L 1 10 Z M 18 3 L 17 3 C 17 3.001 17 3.005 16.997 3.015 C 16.994 3.026 16.985 3.048 16.965 3.081 C 16.922 3.151 16.836 3.255 16.674 3.382 C 16.344 3.643 15.804 3.921 15.048 4.173 C 13.546 4.673 11.408 5 9 5 L 9 6 L 9 7 C 11.563 7 13.925 6.655 15.68 6.07 C 16.553 5.779 17.331 5.411 17.912 4.953 C 18.481 4.504 19 3.852 19 3 L 18 3 Z M 9 6 L 9 5 C 6.592 5 4.454 4.673 2.952 4.173 C 2.196 3.921 1.656 3.643 1.326 3.382 C 1.164 3.255 1.078 3.151 1.035 3.081 C 1.015 3.048 1.006 3.026 1.003 3.015 C 1 3.005 1 3.001 1 3 L 0 3 L -1 3 C -1 3.852 -0.481 4.504 0.088 4.953 C 0.669 5.411 1.447 5.779 2.32 6.07 C 4.075 6.655 6.437 7 9 7 L 9 6 Z M 0 3 L 1 3 C 1 2.999 1 2.995 1.003 2.985 C 1.006 2.974 1.015 2.952 1.035 2.919 C 1.078 2.849 1.164 2.745 1.326 2.618 C 1.656 2.357 2.196 2.079 2.952 1.827 C 4.454 1.327 6.592 1 9 1 L 9 0 L 9 -1 C 6.437 -1 4.075 -0.655 2.32 -0.07 C 1.447 0.221 0.669 0.589 0.088 1.047 C -0.481 1.496 -1 2.148 -1 3 L 0 3 Z M 9 0 L 9 1 C 11.408 1 13.546 1.327 15.048 1.827 C 15.804 2.079 16.344 2.357 16.674 2.618 C 16.836 2.745 16.922 2.849 16.965 2.919 C 16.985 2.952 16.994 2.974 16.997 2.985 C 17 2.995 17 2.999 17 3 L 18 3 L 19 3 C 19 2.148 18.481 1.496 17.912 1.047 C 17.331 0.589 16.553 0.221 15.68 -0.07 C 13.925 -0.655 11.563 -1 9 -1 L 9 0 Z M 18 10 L 17 10 C 17 10.002 17 10.007 16.997 10.018 C 16.993 10.03 16.985 10.052 16.964 10.085 C 16.922 10.154 16.837 10.258 16.676 10.385 C 16.348 10.645 15.812 10.922 15.058 11.174 C 13.561 11.674 11.423 12 9 12 L 9 13 L 9 14 C 11.577 14 13.939 13.656 15.692 13.071 C 16.563 12.78 17.339 12.412 17.918 11.953 C 18.487 11.502 19 10.849 19 10 L 18 10 Z M 9 13 L 9 12 C 6.577 12 4.439 11.674 2.942 11.174 C 2.188 10.922 1.652 10.645 1.324 10.385 C 1.163 10.258 1.078 10.154 1.036 10.085 C 1.015 10.052 1.007 10.03 1.003 10.018 C 1 10.007 1 10.002 1 10 L 0 10 L -1 10 C -1 10.849 -0.487 11.502 0.082 11.953 C 0.661 12.412 1.437 12.78 2.308 13.071 C 4.061 13.656 6.423 14 9 14 L 9 13 Z M 0 3 L -1 3 L -1 17 L 0 17 L 1 17 L 1 3 L 0 3 Z M 0 17 L -1 17 C -1 17.849 -0.487 18.502 0.082 18.953 C 0.661 19.412 1.437 19.78 2.308 20.071 C 4.061 20.656 6.423 21 9 21 L 9 20 L 9 19 C 6.577 19 4.439 18.674 2.942 18.174 C 2.188 17.922 1.652 17.645 1.324 17.385 C 1.163 17.258 1.078 17.154 1.036 17.085 C 1.015 17.052 1.007 17.03 1.003 17.018 C 1 17.007 1 17.002 1 17 L 0 17 Z M 9 20 L 9 21 C 11.577 21 13.939 20.656 15.692 20.071 C 16.563 19.78 17.339 19.412 17.918 18.953 C 18.487 18.502 19 17.849 19 17 L 18 17 L 17 17 C 17 17.002 17 17.007 16.997 17.018 C 16.993 17.03 16.985 17.052 16.964 17.085 C 16.922 17.154 16.837 17.258 16.676 17.385 C 16.348 17.645 15.812 17.922 15.058 18.174 C 13.561 18.674 11.423 19 9 19 L 9 20 Z M 18 17 L 19 17 L 19 3 L 18 3 L 17 3 L 17 17 L 18 17 Z" fill="currentColor" fill-rule="nonzero"></path>
</svg>