<svg xmlns="http://www.w3.org/2000/svg" width="16" height="20" viewBox="0 0 16 20" fill="none">
  <path d="M 1.638 19.673 L 1.184 20.564 L 1.638 19.673 Z M 0.327 18.362 L -0.564 18.816 L 0.327 18.362 Z M 15.782 18.908 L 14.891 18.454 L 15.782 18.908 Z M 14.908 19.782 L 14.454 18.891 L 14.908 19.782 Z M 14.908 0.218 L 14.454 1.109 L 14.908 0.218 Z M 15.782 1.092 L 14.891 1.546 L 15.782 1.092 Z M 1.638 0.327 L 1.184 -0.564 L 1.638 0.327 Z M 0.327 1.638 L -0.564 1.184 L 0.327 1.638 Z M 16 14 L 17 14 C 17 13.448 16.552 13 16 13 L 16 14 Z M 15 17 C 15 17.552 15.448 18 16 18 C 16.552 18 17 17.552 17 17 L 16 17 L 15 17 Z M -1 17 C -1 17.552 -0.552 18 0 18 C 0.552 18 1 17.552 1 17 L 0 17 L -1 17 Z M 4.8 0 L 4.8 1 L 12.8 1 L 12.8 0 L 12.8 -1 L 4.8 -1 L 4.8 0 Z M 16 3.2 L 15 3.2 L 15 16.8 L 16 16.8 L 17 16.8 L 17 3.2 L 16 3.2 Z M 12.8 20 L 12.8 19 L 4.8 19 L 4.8 20 L 4.8 21 L 12.8 21 L 12.8 20 Z M 0 15.2 L 1 15.2 L 1 4.8 L 0 4.8 L -1 4.8 L -1 15.2 L 0 15.2 Z M 4.8 20 L 4.8 19 C 3.943 19 3.361 18.999 2.911 18.962 C 2.473 18.927 2.248 18.862 2.092 18.782 L 1.638 19.673 L 1.184 20.564 C 1.669 20.811 2.186 20.91 2.748 20.956 C 3.299 21.001 3.976 21 4.8 21 L 4.8 20 Z M 0 15.2 L -1 15.2 C -1 16.024 -1.001 16.701 -0.956 17.252 C -0.91 17.814 -0.811 18.331 -0.564 18.816 L 0.327 18.362 L 1.218 17.908 C 1.138 17.752 1.073 17.527 1.038 17.089 C 1.001 16.639 1 16.057 1 15.2 L 0 15.2 Z M 1.638 19.673 L 2.092 18.782 C 1.716 18.59 1.41 18.284 1.218 17.908 L 0.327 18.362 L -0.564 18.816 C -0.181 19.569 0.431 20.181 1.184 20.564 L 1.638 19.673 Z M 16 16.8 L 15 16.8 C 15 17.377 14.999 17.749 14.976 18.032 C 14.954 18.304 14.916 18.405 14.891 18.454 L 15.782 18.908 L 16.673 19.362 C 16.866 18.984 16.937 18.59 16.969 18.195 C 17.001 17.811 17 17.344 17 16.8 L 16 16.8 Z M 12.8 20 L 12.8 21 C 13.344 21 13.811 21.001 14.195 20.969 C 14.59 20.937 14.984 20.866 15.362 20.673 L 14.908 19.782 L 14.454 18.891 C 14.405 18.916 14.304 18.954 14.032 18.976 C 13.749 18.999 13.377 19 12.8 19 L 12.8 20 Z M 15.782 18.908 L 14.891 18.454 C 14.795 18.642 14.642 18.795 14.454 18.891 L 14.908 19.782 L 15.362 20.673 C 15.926 20.385 16.385 19.926 16.673 19.362 L 15.782 18.908 Z M 12.8 0 L 12.8 1 C 13.377 1 13.749 1.001 14.032 1.024 C 14.304 1.046 14.405 1.084 14.454 1.109 L 14.908 0.218 L 15.362 -0.673 C 14.984 -0.866 14.59 -0.937 14.195 -0.969 C 13.811 -1.001 13.344 -1 12.8 -1 L 12.8 0 Z M 16 3.2 L 17 3.2 C 17 2.656 17.001 2.189 16.969 1.805 C 16.937 1.41 16.866 1.016 16.673 0.638 L 15.782 1.092 L 14.891 1.546 C 14.916 1.595 14.954 1.696 14.976 1.968 C 14.999 2.251 15 2.623 15 3.2 L 16 3.2 Z M 14.908 0.218 L 14.454 1.109 C 14.642 1.205 14.795 1.358 14.891 1.546 L 15.782 1.092 L 16.673 0.638 C 16.385 0.074 15.926 -0.385 15.362 -0.673 L 14.908 0.218 Z M 4.8 0 L 4.8 -1 C 3.976 -1 3.299 -1.001 2.748 -0.956 C 2.186 -0.91 1.669 -0.811 1.184 -0.564 L 1.638 0.327 L 2.092 1.218 C 2.248 1.138 2.473 1.073 2.911 1.038 C 3.361 1.001 3.943 1 4.8 1 L 4.8 0 Z M 0 4.8 L 1 4.8 C 1 3.943 1.001 3.361 1.038 2.911 C 1.073 2.473 1.138 2.248 1.218 2.092 L 0.327 1.638 L -0.564 1.184 C -0.811 1.669 -0.91 2.186 -0.956 2.748 C -1.001 3.299 -1 3.976 -1 4.8 L 0 4.8 Z M 1.638 0.327 L 1.184 -0.564 C 0.431 -0.181 -0.181 0.431 -0.564 1.184 L 0.327 1.638 L 1.218 2.092 C 1.41 1.716 1.716 1.41 2.092 1.218 L 1.638 0.327 Z M 3 14 L 3 15 L 16 15 L 16 14 L 16 13 L 3 13 L 3 14 Z M 16 14 L 15 14 L 15 17 L 16 17 L 17 17 L 17 14 L 16 14 Z M 3 14 L 3 13 C 0.791 13 -1 14.791 -1 17 L 0 17 L 1 17 C 1 15.895 1.895 15 3 15 L 3 14 Z" fill="currentColor" fill-rule="nonzero"></path>
</svg>