<svg xmlns="http://www.w3.org/2000/svg" width="20" height="19.882" viewBox="0 0 20 19.882" fill="none">
  <path d="M 0.447 9.047 C -0.047 8.8 -0.647 9 -0.894 9.494 C -1.141 9.988 -0.941 10.588 -0.447 10.835 L 0 9.941 L 0.447 9.047 Z M 20.447 10.835 C 20.941 10.588 21.141 9.988 20.894 9.494 C 20.647 9 20.047 8.8 19.553 9.047 L 20 9.941 L 20.447 10.835 Z M 9.908 14.873 L 9.723 15.856 L 9.908 14.873 Z M 10.092 14.873 L 10.277 15.856 L 10.092 14.873 Z M 0.447 14.047 C -0.047 13.8 -0.647 14 -0.894 14.494 C -1.141 14.988 -0.941 15.588 -0.447 15.835 L 0 14.941 L 0.447 14.047 Z M 20.447 15.835 C 20.941 15.588 21.141 14.988 20.894 14.494 C 20.647 14 20.047 13.8 19.553 14.047 L 20 14.941 L 20.447 15.835 Z M 9.642 19.762 L 9.195 20.657 L 9.195 20.657 L 9.642 19.762 Z M 9.908 19.873 L 9.723 20.856 L 9.908 19.873 Z M 10.358 19.762 L 10.805 20.657 L 10.805 20.657 L 10.358 19.762 Z M 10.092 19.873 L 10.277 20.856 L 10.092 19.873 Z M 0 4.941 L -0.447 4.047 C -0.786 4.216 -1 4.562 -1 4.941 C -1 5.32 -0.786 5.666 -0.447 5.835 L 0 4.941 Z M 20 4.941 L 20.447 5.835 C 20.786 5.666 21 5.32 21 4.941 C 21 4.562 20.786 4.216 20.447 4.047 L 20 4.941 Z M 9.908 9.873 L 9.723 10.856 L 9.908 9.873 Z M 10.092 9.873 L 10.277 10.856 L 10.092 9.873 Z M 9.642 0.12 L 10.089 1.014 L 9.642 0.12 Z M 9.908 0.009 L 9.723 -0.974 L 9.908 0.009 Z M 10.358 0.12 L 9.911 1.014 L 10.358 0.12 Z M 10.092 0.009 L 10.277 -0.974 L 10.092 0.009 Z M 0 9.941 L -0.447 10.835 L 9.195 15.657 L 9.642 14.762 L 10.089 13.868 L 0.447 9.047 L 0 9.941 Z M 10.358 14.762 L 10.805 15.657 L 20.447 10.835 L 20 9.941 L 19.553 9.047 L 9.911 13.868 L 10.358 14.762 Z M 9.642 14.762 L 9.195 15.657 C 9.274 15.696 9.485 15.811 9.723 15.856 L 9.908 14.873 L 10.092 13.891 C 10.107 13.893 10.122 13.897 10.135 13.9 C 10.149 13.904 10.16 13.907 10.17 13.91 C 10.188 13.917 10.199 13.921 10.197 13.921 C 10.197 13.92 10.194 13.919 10.189 13.917 C 10.184 13.914 10.177 13.911 10.167 13.906 C 10.158 13.902 10.147 13.896 10.134 13.89 C 10.12 13.883 10.106 13.876 10.089 13.868 L 9.642 14.762 Z M 10.358 14.762 L 9.911 13.868 C 9.894 13.876 9.88 13.883 9.866 13.89 C 9.853 13.896 9.842 13.902 9.833 13.906 C 9.823 13.911 9.816 13.914 9.811 13.917 C 9.806 13.919 9.803 13.92 9.803 13.921 C 9.801 13.921 9.812 13.917 9.83 13.91 C 9.84 13.907 9.851 13.904 9.865 13.9 C 9.878 13.897 9.893 13.893 9.908 13.891 L 10.092 14.873 L 10.277 15.856 C 10.515 15.811 10.726 15.696 10.805 15.657 L 10.358 14.762 Z M 9.908 14.873 L 9.723 15.856 C 9.906 15.891 10.094 15.891 10.277 15.856 L 10.092 14.873 L 9.908 13.891 C 9.969 13.879 10.031 13.879 10.092 13.891 L 9.908 14.873 Z M 0 14.941 L -0.447 15.835 L 9.195 20.657 L 9.642 19.762 L 10.089 18.868 L 0.447 14.047 L 0 14.941 Z M 10.358 19.762 L 10.805 20.657 L 20.447 15.835 L 20 14.941 L 19.553 14.047 L 9.911 18.868 L 10.358 19.762 Z M 9.642 19.762 L 9.195 20.657 C 9.274 20.696 9.485 20.811 9.723 20.856 L 9.908 19.873 L 10.092 18.891 C 10.107 18.893 10.122 18.897 10.135 18.9 C 10.149 18.904 10.16 18.907 10.17 18.91 C 10.188 18.917 10.199 18.921 10.197 18.921 C 10.197 18.92 10.194 18.919 10.189 18.917 C 10.184 18.914 10.177 18.911 10.167 18.906 C 10.158 18.902 10.147 18.896 10.134 18.89 C 10.12 18.883 10.106 18.876 10.089 18.868 L 9.642 19.762 Z M 10.358 19.762 L 9.911 18.868 C 9.894 18.876 9.88 18.883 9.866 18.89 C 9.853 18.896 9.842 18.902 9.833 18.906 C 9.823 18.911 9.816 18.914 9.811 18.917 C 9.806 18.919 9.803 18.92 9.803 18.921 C 9.801 18.921 9.812 18.917 9.83 18.91 C 9.84 18.907 9.851 18.904 9.865 18.9 C 9.878 18.897 9.893 18.893 9.908 18.891 L 10.092 19.873 L 10.277 20.856 C 10.515 20.811 10.726 20.696 10.805 20.657 L 10.358 19.762 Z M 9.908 19.873 L 9.723 20.856 C 9.906 20.891 10.094 20.891 10.277 20.856 L 10.092 19.873 L 9.908 18.891 C 9.969 18.879 10.031 18.879 10.092 18.891 L 9.908 19.873 Z M 9.642 0.12 L 9.195 -0.775 L -0.447 4.047 L 0 4.941 L 0.447 5.835 L 10.089 1.014 L 9.642 0.12 Z M 0 4.941 L -0.447 5.835 L 9.195 10.657 L 9.642 9.762 L 10.089 8.868 L 0.447 4.047 L 0 4.941 Z M 10.358 9.762 L 10.805 10.657 L 20.447 5.835 L 20 4.941 L 19.553 4.047 L 9.911 8.868 L 10.358 9.762 Z M 20 4.941 L 20.447 4.047 L 10.805 -0.775 L 10.358 0.12 L 9.911 1.014 L 19.553 5.835 L 20 4.941 Z M 9.642 9.762 L 9.195 10.657 C 9.274 10.696 9.485 10.811 9.723 10.856 L 9.908 9.873 L 10.092 8.891 C 10.107 8.893 10.122 8.897 10.135 8.9 C 10.149 8.904 10.16 8.907 10.17 8.91 C 10.188 8.917 10.199 8.921 10.197 8.921 C 10.197 8.92 10.194 8.919 10.189 8.917 C 10.184 8.914 10.177 8.911 10.167 8.906 C 10.158 8.902 10.147 8.896 10.134 8.89 C 10.12 8.883 10.106 8.876 10.089 8.868 L 9.642 9.762 Z M 10.358 9.762 L 9.911 8.868 C 9.894 8.876 9.88 8.883 9.866 8.89 C 9.853 8.896 9.842 8.902 9.833 8.906 C 9.823 8.911 9.816 8.914 9.811 8.917 C 9.806 8.919 9.803 8.92 9.803 8.921 C 9.801 8.921 9.812 8.917 9.83 8.91 C 9.84 8.907 9.851 8.904 9.865 8.9 C 9.878 8.897 9.893 8.893 9.908 8.891 L 10.092 9.873 L 10.277 10.856 C 10.515 10.811 10.726 10.696 10.805 10.657 L 10.358 9.762 Z M 9.908 9.873 L 9.723 10.856 C 9.906 10.891 10.094 10.891 10.277 10.856 L 10.092 9.873 L 9.908 8.891 C 9.969 8.879 10.031 8.879 10.092 8.891 L 9.908 9.873 Z M 9.642 0.12 L 10.089 1.014 C 10.106 1.006 10.12 0.999 10.134 0.992 C 10.147 0.986 10.158 0.98 10.167 0.976 C 10.177 0.971 10.184 0.968 10.189 0.965 C 10.194 0.963 10.197 0.962 10.197 0.961 C 10.199 0.961 10.188 0.965 10.17 0.972 C 10.16 0.975 10.149 0.978 10.135 0.982 C 10.122 0.985 10.107 0.989 10.092 0.991 L 9.908 0.009 L 9.723 -0.974 C 9.485 -0.929 9.274 -0.814 9.195 -0.775 L 9.642 0.12 Z M 10.358 0.12 L 10.805 -0.775 C 10.726 -0.814 10.515 -0.929 10.277 -0.974 L 10.092 0.009 L 9.908 0.991 C 9.893 0.989 9.878 0.985 9.865 0.982 C 9.851 0.978 9.84 0.975 9.83 0.972 C 9.812 0.965 9.801 0.961 9.803 0.961 C 9.803 0.962 9.806 0.963 9.811 0.965 C 9.816 0.968 9.823 0.971 9.833 0.976 C 9.842 0.98 9.853 0.986 9.866 0.992 C 9.88 0.999 9.894 1.006 9.911 1.014 L 10.358 0.12 Z M 9.908 0.009 L 10.092 0.991 C 10.031 1.003 9.969 1.003 9.908 0.991 L 10.092 0.009 L 10.277 -0.974 C 10.094 -1.009 9.906 -1.009 9.723 -0.974 L 9.908 0.009 Z" fill="currentColor" fill-rule="nonzero"></path>
</svg>