<svg xmlns="http://www.w3.org/2000/svg" width="18" height="18" viewBox="0 0 18 18" fill="none">
  <path d="M 17.293 18.707 C 17.683 19.098 18.317 19.098 18.707 18.707 C 19.098 18.317 19.098 17.683 18.707 17.293 L 18 18 L 17.293 18.707 Z M 14.357 12.943 C 13.967 12.552 13.333 12.552 12.943 12.943 C 12.552 13.333 12.552 13.967 12.943 14.357 L 13.65 13.65 L 14.357 12.943 Z M 9 5 C 9 4.448 8.552 4 8 4 C 7.448 4 7 4.448 7 5 L 8 5 L 9 5 Z M 7 11 C 7 11.552 7.448 12 8 12 C 8.552 12 9 11.552 9 11 L 8 11 L 7 11 Z M 5 7 C 4.448 7 4 7.448 4 8 C 4 8.552 4.448 9 5 9 L 5 8 L 5 7 Z M 11 9 C 11.552 9 12 8.552 12 8 C 12 7.448 11.552 7 11 7 L 11 8 L 11 9 Z M 16 8 L 15 8 C 15 11.866 11.866 15 8 15 L 8 16 L 8 17 C 12.971 17 17 12.971 17 8 L 16 8 Z M 8 16 L 8 15 C 4.134 15 1 11.866 1 8 L 0 8 L -1 8 C -1 12.971 3.029 17 8 17 L 8 16 Z M 0 8 L 1 8 C 1 4.134 4.134 1 8 1 L 8 0 L 8 -1 C 3.029 -1 -1 3.029 -1 8 L 0 8 Z M 8 0 L 8 1 C 11.866 1 15 4.134 15 8 L 16 8 L 17 8 C 17 3.029 12.971 -1 8 -1 L 8 0 Z M 18 18 L 18.707 17.293 L 14.357 12.943 L 13.65 13.65 L 12.943 14.357 L 17.293 18.707 L 18 18 Z M 8 5 L 7 5 L 7 11 L 8 11 L 9 11 L 9 5 L 8 5 Z M 5 8 L 5 9 L 11 9 L 11 8 L 11 7 L 5 7 L 5 8 Z" fill="currentColor" fill-rule="nonzero"></path>
</svg>