<svg xmlns="http://www.w3.org/2000/svg" width="16" height="18" viewBox="0 0 16 18" fill="none">
  <path d="M 12 7 C 12 7.552 12.448 8 13 8 C 13.552 8 14 7.552 14 7 L 13 7 L 12 7 Z M 2 7 C 2 7.552 2.448 8 3 8 C 3.552 8 4 7.552 4 7 L 3 7 L 2 7 Z M 9 11.5 C 9 10.948 8.552 10.5 8 10.5 C 7.448 10.5 7 10.948 7 11.5 L 8 11.5 L 9 11.5 Z M 7 13.5 C 7 14.052 7.448 14.5 8 14.5 C 8.552 14.5 9 14.052 9 13.5 L 8 13.5 L 7 13.5 Z M 1.638 17.673 L 1.184 18.564 L 1.638 17.673 Z M 0.327 16.362 L -0.564 16.816 L 0.327 16.362 Z M 15.673 16.362 L 16.564 16.816 L 15.673 16.362 Z M 14.362 17.673 L 14.816 18.564 L 14.362 17.673 Z M 14.362 7.327 L 14.816 6.436 L 14.362 7.327 Z M 15.673 8.638 L 16.564 8.184 L 15.673 8.638 Z M 1.638 7.327 L 1.184 6.436 L 1.638 7.327 Z M 0.327 8.638 L -0.564 8.184 L 0.327 8.638 Z M 13 5 L 12 5 L 12 7 L 13 7 L 14 7 L 14 5 L 13 5 Z M 3 7 L 4 7 L 4 5 L 3 5 L 2 5 L 2 7 L 3 7 Z M 8 0 L 8 1 C 10.209 1 12 2.791 12 5 L 13 5 L 14 5 C 14 1.686 11.314 -1 8 -1 L 8 0 Z M 8 0 L 8 -1 C 4.686 -1 2 1.686 2 5 L 3 5 L 4 5 C 4 2.791 5.791 1 8 1 L 8 0 Z M 8 11.5 L 7 11.5 L 7 13.5 L 8 13.5 L 9 13.5 L 9 11.5 L 8 11.5 Z M 4.8 7 L 4.8 8 L 11.2 8 L 11.2 7 L 11.2 6 L 4.8 6 L 4.8 7 Z M 16 11.8 L 15 11.8 L 15 13.2 L 16 13.2 L 17 13.2 L 17 11.8 L 16 11.8 Z M 11.2 18 L 11.2 17 L 4.8 17 L 4.8 18 L 4.8 19 L 11.2 19 L 11.2 18 Z M 0 13.2 L 1 13.2 L 1 11.8 L 0 11.8 L -1 11.8 L -1 13.2 L 0 13.2 Z M 4.8 18 L 4.8 17 C 3.943 17 3.361 16.999 2.911 16.962 C 2.473 16.927 2.248 16.862 2.092 16.782 L 1.638 17.673 L 1.184 18.564 C 1.669 18.811 2.186 18.91 2.748 18.956 C 3.299 19.001 3.976 19 4.8 19 L 4.8 18 Z M 0 13.2 L -1 13.2 C -1 14.024 -1.001 14.701 -0.956 15.252 C -0.91 15.814 -0.811 16.331 -0.564 16.816 L 0.327 16.362 L 1.218 15.908 C 1.138 15.752 1.073 15.527 1.038 15.089 C 1.001 14.639 1 14.057 1 13.2 L 0 13.2 Z M 1.638 17.673 L 2.092 16.782 C 1.716 16.59 1.41 16.284 1.218 15.908 L 0.327 16.362 L -0.564 16.816 C -0.181 17.569 0.431 18.181 1.184 18.564 L 1.638 17.673 Z M 16 13.2 L 15 13.2 C 15 14.057 14.999 14.639 14.962 15.089 C 14.927 15.527 14.862 15.752 14.782 15.908 L 15.673 16.362 L 16.564 16.816 C 16.811 16.331 16.91 15.814 16.956 15.252 C 17.001 14.701 17 14.024 17 13.2 L 16 13.2 Z M 11.2 18 L 11.2 19 C 12.024 19 12.701 19.001 13.252 18.956 C 13.814 18.91 14.331 18.811 14.816 18.564 L 14.362 17.673 L 13.908 16.782 C 13.752 16.862 13.527 16.927 13.089 16.962 C 12.639 16.999 12.057 17 11.2 17 L 11.2 18 Z M 15.673 16.362 L 14.782 15.908 C 14.59 16.284 14.284 16.59 13.908 16.782 L 14.362 17.673 L 14.816 18.564 C 15.569 18.181 16.181 17.569 16.564 16.816 L 15.673 16.362 Z M 11.2 7 L 11.2 8 C 12.057 8 12.639 8.001 13.089 8.038 C 13.527 8.073 13.752 8.138 13.908 8.218 L 14.362 7.327 L 14.816 6.436 C 14.331 6.189 13.814 6.09 13.252 6.044 C 12.701 5.999 12.024 6 11.2 6 L 11.2 7 Z M 16 11.8 L 17 11.8 C 17 10.976 17.001 10.299 16.956 9.748 C 16.91 9.186 16.811 8.669 16.564 8.184 L 15.673 8.638 L 14.782 9.092 C 14.862 9.248 14.927 9.473 14.962 9.911 C 14.999 10.361 15 10.943 15 11.8 L 16 11.8 Z M 14.362 7.327 L 13.908 8.218 C 14.284 8.41 14.59 8.716 14.782 9.092 L 15.673 8.638 L 16.564 8.184 C 16.181 7.431 15.569 6.819 14.816 6.436 L 14.362 7.327 Z M 4.8 7 L 4.8 6 C 3.976 6 3.299 5.999 2.748 6.044 C 2.186 6.09 1.669 6.189 1.184 6.436 L 1.638 7.327 L 2.092 8.218 C 2.248 8.138 2.473 8.073 2.911 8.038 C 3.361 8.001 3.943 8 4.8 8 L 4.8 7 Z M 0 11.8 L 1 11.8 C 1 10.943 1.001 10.361 1.038 9.911 C 1.073 9.473 1.138 9.248 1.218 9.092 L 0.327 8.638 L -0.564 8.184 C -0.811 8.669 -0.91 9.186 -0.956 9.748 C -1.001 10.299 -1 10.976 -1 11.8 L 0 11.8 Z M 1.638 7.327 L 1.184 6.436 C 0.431 6.819 -0.181 7.431 -0.564 8.184 L 0.327 8.638 L 1.218 9.092 C 1.41 8.716 1.716 8.41 2.092 8.218 L 1.638 7.327 Z" fill="currentColor" fill-rule="nonzero"></path>
</svg>