<svg xmlns="http://www.w3.org/2000/svg" width="20" height="20" viewBox="0 0 20 20" fill="none">
  <path d="M 7.202 18.601 L 7.333 19.592 L 7.333 19.592 L 7.202 18.601 Z M 8.122 18.848 L 7.512 19.64 L 7.513 19.641 L 8.122 18.848 Z M 9.325 19.771 L 9.934 18.978 L 9.934 18.977 L 9.325 19.771 Z M 10.673 19.771 L 10.064 18.978 L 10.062 18.979 L 10.673 19.771 Z M 11.922 18.812 L 11.313 18.018 L 11.312 18.019 L 11.922 18.812 Z M 12.74 18.593 L 12.608 19.584 L 12.61 19.585 L 12.74 18.593 Z M 14.302 18.799 L 14.433 17.807 L 14.433 17.807 L 14.302 18.799 Z M 15.47 18.124 L 16.394 18.507 L 16.394 18.506 L 15.47 18.124 Z M 16.071 16.671 L 16.995 17.053 L 16.996 17.052 L 16.071 16.671 Z M 16.671 16.071 L 17.052 16.995 L 17.053 16.995 L 16.671 16.071 Z M 18.124 15.47 L 17.743 14.545 L 17.742 14.546 L 18.124 15.47 Z M 18.799 14.302 L 17.807 14.432 L 17.807 14.433 L 18.799 14.302 Z M 18.601 12.797 L 19.592 12.666 L 19.592 12.666 L 18.601 12.797 Z M 18.848 11.877 L 19.64 12.487 L 19.641 12.485 L 18.848 11.877 Z M 19.771 10.673 L 18.978 10.064 L 18.977 10.065 L 19.771 10.673 Z M 19.771 9.326 L 18.978 9.935 L 18.979 9.936 L 19.771 9.326 Z M 18.812 8.077 L 18.018 8.685 L 18.019 8.686 L 18.812 8.077 Z M 18.593 7.258 L 19.584 7.39 L 19.585 7.388 L 18.593 7.258 Z M 18.799 5.696 L 17.807 5.565 L 17.807 5.565 L 18.799 5.696 Z M 18.124 4.528 L 18.508 3.604 L 18.507 3.604 L 18.124 4.528 Z M 16.671 3.927 L 17.053 3.003 L 17.052 3.002 L 16.671 3.927 Z M 16.071 3.327 L 16.996 2.946 L 16.995 2.945 L 16.071 3.327 Z M 15.47 1.874 L 14.546 2.255 L 14.546 2.256 L 15.47 1.874 Z M 14.302 1.199 L 14.433 2.191 L 14.433 2.191 L 14.302 1.199 Z M 12.74 1.405 L 12.61 0.413 L 12.604 0.414 L 12.74 1.405 Z M 11.923 1.188 L 11.314 1.981 L 11.315 1.982 L 11.923 1.188 Z M 10.674 0.229 L 10.065 1.022 L 10.065 1.022 L 10.674 0.229 Z M 9.326 0.229 L 9.935 1.022 L 9.936 1.021 L 9.326 0.229 Z M 8.077 1.188 L 8.683 1.983 L 8.686 1.981 L 8.077 1.188 Z M 7.259 1.407 L 7.128 2.398 L 7.13 2.399 L 7.259 1.407 Z M 5.696 1.201 L 5.566 2.193 L 5.566 2.193 L 5.696 1.201 Z M 4.529 1.876 L 3.605 1.493 L 3.604 1.494 L 4.529 1.876 Z M 3.929 3.329 L 4.851 3.715 L 4.853 3.711 L 3.929 3.329 Z M 3.329 3.929 L 3.711 4.853 L 3.715 4.852 L 3.329 3.929 Z M 1.876 4.529 L 1.494 3.605 L 1.492 3.605 L 1.876 4.529 Z M 1.201 5.697 L 2.193 5.566 L 2.193 5.566 L 1.201 5.697 Z M 1.407 7.259 L 2.399 7.13 L 2.398 7.129 L 1.407 7.259 Z M 1.188 8.077 L 1.981 8.686 L 1.982 8.685 L 1.188 8.077 Z M 0.229 9.326 L 1.022 9.935 L 1.022 9.935 L 0.229 9.326 Z M 0.229 10.673 L 1.022 10.064 L 1.021 10.063 L 0.229 10.673 Z M 1.188 11.922 L 1.982 11.314 L 1.981 11.313 L 1.188 11.922 Z M 1.407 12.741 L 0.416 12.609 L 0.415 12.611 L 1.407 12.741 Z M 1.201 14.303 L 2.193 14.434 L 2.193 14.434 L 1.201 14.303 Z M 1.876 15.471 L 1.492 16.395 L 1.493 16.395 L 1.876 15.471 Z M 3.329 16.072 L 2.947 16.996 L 2.948 16.997 L 3.329 16.072 Z M 3.929 16.672 L 3.004 17.053 L 3.005 17.054 L 3.929 16.672 Z M 4.53 18.125 L 5.454 17.744 L 5.454 17.743 L 4.53 18.125 Z M 5.698 18.8 L 5.828 19.791 L 5.829 19.791 L 5.698 18.8 Z M 7.707 9.293 C 7.317 8.902 6.683 8.902 6.293 9.293 C 5.902 9.683 5.902 10.317 6.293 10.707 L 7 10 L 7.707 9.293 Z M 9 12 L 8.293 12.707 C 8.683 13.098 9.317 13.098 9.707 12.707 L 9 12 Z M 14.207 8.207 C 14.598 7.817 14.598 7.183 14.207 6.793 C 13.817 6.402 13.183 6.402 12.793 6.793 L 13.5 7.5 L 14.207 8.207 Z M 7.202 18.601 L 7.333 19.592 C 7.398 19.584 7.462 19.601 7.512 19.64 L 8.122 18.848 L 8.732 18.055 C 8.26 17.692 7.662 17.531 7.071 17.609 L 7.202 18.601 Z M 8.122 18.848 L 7.513 19.641 L 8.716 20.564 L 9.325 19.771 L 9.934 18.977 L 8.731 18.054 L 8.122 18.848 Z M 9.325 19.771 L 8.716 20.564 C 9.472 21.145 10.526 21.146 11.283 20.563 L 10.673 19.771 L 10.062 18.979 C 10.026 19.007 9.973 19.008 9.934 18.978 L 9.325 19.771 Z M 10.673 19.771 L 11.282 20.564 L 12.531 19.605 L 11.922 18.812 L 11.312 18.019 L 10.064 18.978 L 10.673 19.771 Z M 11.922 18.812 L 12.53 19.606 C 12.553 19.588 12.581 19.581 12.608 19.584 L 12.74 18.593 L 12.873 17.602 C 12.317 17.528 11.756 17.678 11.313 18.018 L 11.922 18.812 Z M 12.74 18.593 L 12.61 19.585 L 14.172 19.79 L 14.302 18.799 L 14.433 17.807 L 12.871 17.602 L 12.74 18.593 Z M 14.302 18.799 L 14.172 19.79 C 15.118 19.915 16.029 19.388 16.394 18.507 L 15.47 18.124 L 14.546 17.741 C 14.527 17.787 14.48 17.813 14.433 17.807 L 14.302 18.799 Z M 15.47 18.124 L 16.394 18.506 L 16.995 17.053 L 16.071 16.671 L 15.147 16.289 L 14.546 17.742 L 15.47 18.124 Z M 16.071 16.671 L 16.996 17.052 C 17.006 17.026 17.026 17.006 17.052 16.995 L 16.671 16.071 L 16.29 15.146 C 15.771 15.36 15.36 15.771 15.147 16.29 L 16.071 16.671 Z M 16.671 16.071 L 17.053 16.995 L 18.507 16.394 L 18.124 15.47 L 17.742 14.546 L 16.289 15.147 L 16.671 16.071 Z M 18.124 15.47 L 18.506 16.394 C 19.389 16.03 19.915 15.116 19.79 14.171 L 18.799 14.302 L 17.807 14.433 C 17.814 14.481 17.786 14.528 17.743 14.545 L 18.124 15.47 Z M 18.799 14.302 L 19.79 14.172 L 19.592 12.666 L 18.601 12.797 L 17.609 12.927 L 17.807 14.432 L 18.799 14.302 Z M 18.601 12.797 L 19.592 12.666 C 19.584 12.601 19.601 12.537 19.64 12.487 L 18.848 11.877 L 18.055 11.266 C 17.692 11.739 17.531 12.337 17.61 12.928 L 18.601 12.797 Z M 18.848 11.877 L 19.641 12.485 L 20.564 11.282 L 19.771 10.673 L 18.977 10.065 L 18.054 11.268 L 18.848 11.877 Z M 19.771 10.673 L 20.564 11.282 C 21.145 10.526 21.146 9.472 20.563 8.715 L 19.771 9.326 L 18.979 9.936 C 19.007 9.972 19.008 10.025 18.978 10.064 L 19.771 10.673 Z M 19.771 9.326 L 20.564 8.717 L 19.605 7.468 L 18.812 8.077 L 18.019 8.686 L 18.978 9.935 L 19.771 9.326 Z M 18.812 8.077 L 19.606 7.468 C 19.588 7.445 19.581 7.417 19.584 7.39 L 18.593 7.258 L 17.602 7.125 C 17.528 7.681 17.678 8.242 18.018 8.685 L 18.812 8.077 Z M 18.593 7.258 L 19.585 7.388 L 19.79 5.826 L 18.799 5.696 L 17.807 5.565 L 17.602 7.127 L 18.593 7.258 Z M 18.799 5.696 L 19.79 5.827 C 19.915 4.88 19.388 3.97 18.508 3.604 L 18.124 4.528 L 17.741 5.452 C 17.787 5.471 17.814 5.518 17.807 5.565 L 18.799 5.696 Z M 18.124 4.528 L 18.507 3.604 L 17.053 3.003 L 16.671 3.927 L 16.289 4.851 L 17.742 5.452 L 18.124 4.528 Z M 16.671 3.927 L 17.052 3.002 C 17.026 2.992 17.006 2.972 16.996 2.946 L 16.071 3.327 L 15.147 3.708 C 15.36 4.226 15.771 4.638 16.29 4.851 L 16.671 3.927 Z M 16.071 3.327 L 16.995 2.945 L 16.394 1.491 L 15.47 1.874 L 14.546 2.256 L 15.147 3.709 L 16.071 3.327 Z M 15.47 1.874 L 16.395 1.492 C 16.03 0.609 15.116 0.083 14.172 0.208 L 14.302 1.199 L 14.433 2.191 C 14.482 2.184 14.528 2.212 14.546 2.255 L 15.47 1.874 Z M 14.302 1.199 L 14.172 0.208 L 12.61 0.413 L 12.74 1.405 L 12.871 2.396 L 14.433 2.191 L 14.302 1.199 Z M 12.74 1.405 L 12.604 0.414 C 12.579 0.417 12.552 0.411 12.531 0.394 L 11.923 1.188 L 11.315 1.982 C 11.757 2.321 12.319 2.472 12.876 2.395 L 12.74 1.405 Z M 11.923 1.188 L 12.532 0.395 L 11.283 -0.564 L 10.674 0.229 L 10.065 1.022 L 11.314 1.981 L 11.923 1.188 Z M 10.674 0.229 L 11.283 -0.564 C 10.527 -1.145 9.473 -1.146 8.716 -0.563 L 9.326 0.229 L 9.936 1.021 C 9.973 0.993 10.026 0.992 10.065 1.022 L 10.674 0.229 Z M 9.326 0.229 L 8.717 -0.564 L 7.468 0.395 L 8.077 1.188 L 8.686 1.981 L 9.935 1.022 L 9.326 0.229 Z M 8.077 1.188 L 7.471 0.393 C 7.447 0.411 7.417 0.419 7.387 0.415 L 7.259 1.407 L 7.13 2.399 C 7.683 2.47 8.241 2.321 8.683 1.983 L 8.077 1.188 Z M 7.259 1.407 L 7.389 0.415 L 5.827 0.21 L 5.696 1.201 L 5.566 2.193 L 7.128 2.398 L 7.259 1.407 Z M 5.696 1.201 L 5.827 0.21 C 4.881 0.085 3.97 0.612 3.605 1.493 L 4.529 1.876 L 5.452 2.259 C 5.472 2.213 5.519 2.187 5.566 2.193 L 5.696 1.201 Z M 4.529 1.876 L 3.604 1.494 L 3.005 2.947 L 3.929 3.329 L 4.853 3.711 L 5.453 2.257 L 4.529 1.876 Z M 3.929 3.329 L 3.006 2.943 C 2.994 2.972 2.972 2.995 2.943 3.006 L 3.329 3.929 L 3.715 4.852 C 4.228 4.637 4.637 4.228 4.851 3.715 L 3.929 3.329 Z M 3.329 3.929 L 2.947 3.005 L 1.494 3.605 L 1.876 4.529 L 2.257 5.453 L 3.711 4.853 L 3.329 3.929 Z M 1.876 4.529 L 1.492 3.605 C 0.612 3.971 0.085 4.881 0.21 5.828 L 1.201 5.697 L 2.193 5.566 C 2.186 5.519 2.213 5.472 2.259 5.453 L 1.876 4.529 Z M 1.201 5.697 L 0.21 5.827 L 0.415 7.389 L 1.407 7.259 L 2.398 7.129 L 2.193 5.566 L 1.201 5.697 Z M 1.407 7.259 L 0.415 7.388 C 0.419 7.418 0.411 7.447 0.394 7.469 L 1.188 8.077 L 1.982 8.685 C 2.321 8.242 2.47 7.683 2.399 7.13 L 1.407 7.259 Z M 1.188 8.077 L 0.395 7.468 L -0.564 8.717 L 0.229 9.326 L 1.022 9.935 L 1.981 8.686 L 1.188 8.077 Z M 0.229 9.326 L -0.564 8.716 C -1.145 9.473 -1.146 10.527 -0.563 11.284 L 0.229 10.673 L 1.021 10.063 C 0.993 10.027 0.992 9.974 1.022 9.935 L 0.229 9.326 Z M 0.229 10.673 L -0.564 11.282 L 0.395 12.531 L 1.188 11.922 L 1.981 11.313 L 1.022 10.064 L 0.229 10.673 Z M 1.188 11.922 L 0.394 12.531 C 0.412 12.554 0.419 12.582 0.416 12.609 L 1.407 12.741 L 2.398 12.873 C 2.472 12.318 2.322 11.757 1.982 11.314 L 1.188 11.922 Z M 1.407 12.741 L 0.415 12.611 L 0.21 14.173 L 1.201 14.303 L 2.193 14.434 L 2.398 12.871 L 1.407 12.741 Z M 1.201 14.303 L 0.21 14.172 C 0.085 15.119 0.612 16.029 1.492 16.395 L 1.876 15.471 L 2.259 14.547 C 2.213 14.528 2.186 14.481 2.193 14.434 L 1.201 14.303 Z M 1.876 15.471 L 1.493 16.395 L 2.947 16.996 L 3.329 16.072 L 3.711 15.148 L 2.258 14.547 L 1.876 15.471 Z M 3.329 16.072 L 2.948 16.997 C 2.974 17.007 2.994 17.027 3.004 17.053 L 3.929 16.672 L 4.853 16.291 C 4.64 15.772 4.229 15.361 3.71 15.148 L 3.329 16.072 Z M 3.929 16.672 L 3.005 17.054 L 3.606 18.508 L 4.53 18.125 L 5.454 17.743 L 4.853 16.29 L 3.929 16.672 Z M 4.53 18.125 L 3.605 18.507 C 3.97 19.39 4.884 19.916 5.828 19.791 L 5.698 18.8 L 5.567 17.808 C 5.518 17.815 5.472 17.787 5.454 17.744 L 4.53 18.125 Z M 5.698 18.8 L 5.829 19.791 L 7.333 19.592 L 7.202 18.601 L 7.071 17.609 L 5.567 17.808 L 5.698 18.8 Z M 7 10 L 6.293 10.707 L 8.293 12.707 L 9 12 L 9.707 11.293 L 7.707 9.293 L 7 10 Z M 9 12 L 9.707 12.707 L 14.207 8.207 L 13.5 7.5 L 12.793 6.793 L 8.293 11.293 L 9 12 Z" fill="currentColor" fill-rule="nonzero"></path>
</svg>