<svg xmlns="http://www.w3.org/2000/svg" width="16" height="18" viewBox="0 0 16 18" fill="none">
  <path d="M 13.161 12.672 L 13.451 11.715 L 13.451 11.715 L 13.161 12.672 Z M 15 18 C 15 18.552 15.448 19 16 19 C 16.552 19 17 18.552 17 18 L 16 18 L 15 18 Z M 15.828 15.339 L 16.785 15.049 L 16.785 15.049 L 15.828 15.339 Z M 2.839 12.672 L 3.129 13.629 L 2.839 12.672 Z M -1 18 C -1 18.552 -0.552 19 0 19 C 0.552 19 1 18.552 1 18 L 0 18 L -1 18 Z M 0.172 15.339 L 1.129 15.629 L 0.172 15.339 Z M 5.5 12.5 L 5.5 13.5 L 10.5 13.5 L 10.5 12.5 L 10.5 11.5 L 5.5 11.5 L 5.5 12.5 Z M 10.5 12.5 L 10.5 13.5 C 11.968 13.5 12.481 13.511 12.871 13.629 L 13.161 12.672 L 13.451 11.715 C 12.706 11.489 11.823 11.5 10.5 11.5 L 10.5 12.5 Z M 16 18 L 17 18 C 17 16.677 17.011 15.794 16.785 15.049 L 15.828 15.339 L 14.871 15.629 C 14.989 16.019 15 16.532 15 18 L 16 18 Z M 13.161 12.672 L 12.871 13.629 C 13.83 13.92 14.58 14.67 14.871 15.629 L 15.828 15.339 L 16.785 15.049 C 16.3 13.451 15.049 12.2 13.451 11.715 L 13.161 12.672 Z M 5.5 12.5 L 5.5 11.5 C 4.177 11.5 3.294 11.489 2.549 11.715 L 2.839 12.672 L 3.129 13.629 C 3.519 13.511 4.032 13.5 5.5 13.5 L 5.5 12.5 Z M 0 18 L 1 18 C 1 16.532 1.011 16.019 1.129 15.629 L 0.172 15.339 L -0.785 15.049 C -1.011 15.794 -1 16.677 -1 18 L 0 18 Z M 2.839 12.672 L 2.549 11.715 C 0.951 12.2 -0.3 13.451 -0.785 15.049 L 0.172 15.339 L 1.129 15.629 C 1.42 14.67 2.17 13.92 3.129 13.629 L 2.839 12.672 Z M 12.5 4.5 L 11.5 4.5 C 11.5 6.433 9.933 8 8 8 L 8 9 L 8 10 C 11.038 10 13.5 7.538 13.5 4.5 L 12.5 4.5 Z M 8 9 L 8 8 C 6.067 8 4.5 6.433 4.5 4.5 L 3.5 4.5 L 2.5 4.5 C 2.5 7.538 4.962 10 8 10 L 8 9 Z M 3.5 4.5 L 4.5 4.5 C 4.5 2.567 6.067 1 8 1 L 8 0 L 8 -1 C 4.962 -1 2.5 1.462 2.5 4.5 L 3.5 4.5 Z M 8 0 L 8 1 C 9.933 1 11.5 2.567 11.5 4.5 L 12.5 4.5 L 13.5 4.5 C 13.5 1.462 11.038 -1 8 -1 L 8 0 Z" fill="currentColor" fill-rule="nonzero"></path>
</svg>