<svg xmlns="http://www.w3.org/2000/svg" width="20" height="17.341" viewBox="0 0 20 17.341" fill="none">
  <path d="M 0 4.941 L -0.447 4.047 C -0.786 4.216 -1 4.562 -1 4.941 C -1 5.32 -0.786 5.666 -0.447 5.835 L 0 4.941 Z M 20 4.941 L 20.447 5.835 C 20.786 5.666 21 5.32 21 4.941 C 21 4.562 20.786 4.216 20.447 4.047 L 20 4.941 Z M 9.908 9.873 L 9.723 10.856 L 9.908 9.873 Z M 10.092 9.873 L 10.277 10.856 L 10.092 9.873 Z M 9.642 0.12 L 10.089 1.014 L 9.642 0.12 Z M 9.908 0.009 L 9.723 -0.974 L 9.908 0.009 Z M 10.358 0.12 L 9.911 1.014 L 10.358 0.12 Z M 10.092 0.009 L 10.277 -0.974 L 10.092 0.009 Z M 14 10.941 C 14 11.493 14.448 11.941 15 11.941 C 15.552 11.941 16 11.493 16 10.941 L 15 10.941 L 14 10.941 Z M 10.447 4.047 C 9.953 3.8 9.353 4 9.106 4.494 C 8.859 4.988 9.059 5.588 9.553 5.835 L 10 4.941 L 10.447 4.047 Z M 14.973 7.587 L 14.027 7.913 L 14.027 7.913 L 14.973 7.587 Z M 14.857 7.4 L 15.572 6.7 L 15.572 6.7 L 14.857 7.4 Z M 3 5.941 C 3 5.389 2.552 4.941 2 4.941 C 1.448 4.941 1 5.389 1 5.941 L 2 5.941 L 3 5.941 Z M 19 5.941 C 19 5.389 18.552 4.941 18 4.941 C 17.448 4.941 17 5.389 17 5.941 L 18 5.941 L 19 5.941 Z M 2.933 14.202 L 2.517 15.111 L 2.517 15.111 L 2.933 14.202 Z M 9.333 17.135 L 9.75 16.226 L 9.75 16.226 L 9.333 17.135 Z M 10.667 17.135 L 11.083 18.045 L 11.083 18.045 L 10.667 17.135 Z M 17.067 14.202 L 17.483 15.111 L 17.483 15.111 L 17.067 14.202 Z M 9.829 17.326 L 9.658 18.311 L 9.658 18.311 L 9.829 17.326 Z M 10.171 17.326 L 10.342 18.311 L 10.342 18.311 L 10.171 17.326 Z M 17.942 13.468 L 17 13.133 L 17 13.133 L 17.942 13.468 Z M 17.698 13.849 L 17 13.133 L 17 13.133 L 17.698 13.849 Z M 2.058 13.468 L 1.116 13.804 L 1.116 13.804 L 2.058 13.468 Z M 2.302 13.849 L 3 13.133 L 3 13.133 L 2.302 13.849 Z M 9.642 0.12 L 9.195 -0.775 L -0.447 4.047 L 0 4.941 L 0.447 5.835 L 10.089 1.014 L 9.642 0.12 Z M 0 4.941 L -0.447 5.835 L 9.195 10.657 L 9.642 9.762 L 10.089 8.868 L 0.447 4.047 L 0 4.941 Z M 10.358 9.762 L 10.805 10.657 L 20.447 5.835 L 20 4.941 L 19.553 4.047 L 9.911 8.868 L 10.358 9.762 Z M 20 4.941 L 20.447 4.047 L 10.805 -0.775 L 10.358 0.12 L 9.911 1.014 L 19.553 5.835 L 20 4.941 Z M 9.642 9.762 L 9.195 10.657 C 9.274 10.696 9.485 10.811 9.723 10.856 L 9.908 9.873 L 10.092 8.891 C 10.107 8.893 10.122 8.897 10.135 8.9 C 10.149 8.904 10.16 8.907 10.17 8.91 C 10.188 8.917 10.199 8.921 10.197 8.921 C 10.197 8.92 10.194 8.919 10.189 8.917 C 10.184 8.914 10.177 8.911 10.167 8.906 C 10.158 8.902 10.147 8.896 10.134 8.89 C 10.12 8.883 10.106 8.876 10.089 8.868 L 9.642 9.762 Z M 10.358 9.762 L 9.911 8.868 C 9.894 8.876 9.88 8.883 9.866 8.89 C 9.853 8.896 9.842 8.902 9.833 8.906 C 9.823 8.911 9.816 8.914 9.811 8.917 C 9.806 8.919 9.803 8.92 9.803 8.921 C 9.801 8.921 9.812 8.917 9.83 8.91 C 9.84 8.907 9.851 8.904 9.865 8.9 C 9.878 8.897 9.893 8.893 9.908 8.891 L 10.092 9.873 L 10.277 10.856 C 10.515 10.811 10.726 10.696 10.805 10.657 L 10.358 9.762 Z M 9.908 9.873 L 9.723 10.856 C 9.906 10.891 10.094 10.891 10.277 10.856 L 10.092 9.873 L 9.908 8.891 C 9.969 8.879 10.031 8.879 10.092 8.891 L 9.908 9.873 Z M 9.642 0.12 L 10.089 1.014 C 10.106 1.006 10.12 0.999 10.134 0.992 C 10.147 0.986 10.158 0.98 10.167 0.976 C 10.177 0.971 10.184 0.968 10.189 0.965 C 10.194 0.963 10.197 0.962 10.197 0.961 C 10.199 0.961 10.188 0.965 10.17 0.972 C 10.16 0.975 10.149 0.978 10.135 0.982 C 10.122 0.985 10.107 0.989 10.092 0.991 L 9.908 0.009 L 9.723 -0.974 C 9.485 -0.929 9.274 -0.814 9.195 -0.775 L 9.642 0.12 Z M 10.358 0.12 L 10.805 -0.775 C 10.726 -0.814 10.515 -0.929 10.277 -0.974 L 10.092 0.009 L 9.908 0.991 C 9.893 0.989 9.878 0.985 9.865 0.982 C 9.851 0.978 9.84 0.975 9.83 0.972 C 9.812 0.965 9.801 0.961 9.803 0.961 C 9.803 0.962 9.806 0.963 9.811 0.965 C 9.816 0.968 9.823 0.971 9.833 0.976 C 9.842 0.98 9.853 0.986 9.866 0.992 C 9.88 0.999 9.894 1.006 9.911 1.014 L 10.358 0.12 Z M 9.908 0.009 L 10.092 0.991 C 10.031 1.003 9.969 1.003 9.908 0.991 L 10.092 0.009 L 10.277 -0.974 C 10.094 -1.009 9.906 -1.009 9.723 -0.974 L 9.908 0.009 Z M 15 10.941 L 16 10.941 L 16 7.935 L 15 7.935 L 14 7.935 L 14 10.941 L 15 10.941 Z M 14.558 7.22 L 15.005 6.325 L 10.447 4.047 L 10 4.941 L 9.553 5.835 L 14.111 8.114 L 14.558 7.22 Z M 15 7.935 L 16 7.935 C 16 7.828 16.013 7.536 15.918 7.261 L 14.973 7.587 L 14.027 7.913 C 14.021 7.895 14.016 7.878 14.012 7.861 C 14.008 7.845 14.005 7.831 14.003 7.819 C 13.999 7.796 13.998 7.783 13.999 7.786 C 13.999 7.787 13.999 7.791 13.999 7.798 C 13.999 7.806 13.999 7.816 14 7.829 C 14 7.842 14 7.857 14 7.875 C 14 7.893 14 7.913 14 7.935 L 15 7.935 Z M 14.558 7.22 L 14.111 8.114 C 14.131 8.124 14.148 8.133 14.165 8.141 C 14.181 8.15 14.194 8.156 14.206 8.162 C 14.218 8.168 14.226 8.173 14.233 8.176 C 14.239 8.18 14.243 8.182 14.244 8.183 C 14.246 8.184 14.235 8.178 14.216 8.164 C 14.206 8.157 14.195 8.148 14.182 8.137 C 14.169 8.126 14.156 8.113 14.143 8.1 L 14.857 7.4 L 15.572 6.7 C 15.368 6.492 15.101 6.373 15.005 6.325 L 14.558 7.22 Z M 14.973 7.587 L 15.918 7.261 C 15.846 7.051 15.727 6.859 15.572 6.7 L 14.857 7.4 L 14.143 8.1 C 14.091 8.047 14.051 7.983 14.027 7.913 L 14.973 7.587 Z M 2 5.941 L 1 5.941 L 1 12.748 L 2 12.748 L 3 12.748 L 3 5.941 L 2 5.941 Z M 18 12.748 L 19 12.748 L 19 5.941 L 18 5.941 L 17 5.941 L 17 12.748 L 18 12.748 Z M 2.933 14.202 L 2.517 15.111 L 8.917 18.045 L 9.333 17.135 L 9.75 16.226 L 3.35 13.293 L 2.933 14.202 Z M 10.667 17.135 L 11.083 18.045 L 17.483 15.111 L 17.067 14.202 L 16.65 13.293 L 10.25 16.226 L 10.667 17.135 Z M 9.333 17.135 L 8.917 18.045 C 9.114 18.135 9.373 18.262 9.658 18.311 L 9.829 17.326 L 10 16.341 C 10.028 16.346 10.036 16.352 9.996 16.336 C 9.947 16.316 9.881 16.287 9.75 16.226 L 9.333 17.135 Z M 10.667 17.135 L 10.25 16.226 C 10.119 16.287 10.053 16.316 10.004 16.336 C 9.964 16.352 9.972 16.346 10 16.341 L 10.171 17.326 L 10.342 18.311 C 10.627 18.262 10.886 18.135 11.083 18.045 L 10.667 17.135 Z M 9.829 17.326 L 9.658 18.311 C 9.884 18.351 10.116 18.351 10.342 18.311 L 10.171 17.326 L 10 16.341 L 10 16.341 L 9.829 17.326 Z M 18 12.748 L 17 12.748 C 17 12.946 17 13.048 16.995 13.122 C 16.991 13.185 16.986 13.171 17 13.133 L 17.942 13.468 L 18.884 13.804 C 19.014 13.439 19 13.044 19 12.748 L 18 12.748 Z M 17.067 14.202 L 17.483 15.111 C 17.753 14.988 18.118 14.836 18.395 14.566 L 17.698 13.849 L 17 13.133 C 17.029 13.104 17.043 13.103 16.989 13.132 C 16.923 13.167 16.83 13.21 16.65 13.293 L 17.067 14.202 Z M 17.942 13.468 L 17 13.133 L 17 13.133 L 17.698 13.849 L 18.395 14.566 C 18.614 14.352 18.781 14.092 18.884 13.804 L 17.942 13.468 Z M 2 12.748 L 1 12.748 C 1 13.044 0.986 13.439 1.116 13.804 L 2.058 13.468 L 3 13.133 C 3.014 13.171 3.009 13.185 3.005 13.122 C 3 13.048 3 12.946 3 12.748 L 2 12.748 Z M 2.933 14.202 L 3.35 13.293 C 3.17 13.21 3.077 13.167 3.011 13.132 C 2.957 13.103 2.971 13.104 3 13.133 L 2.302 13.849 L 1.605 14.566 C 1.882 14.836 2.247 14.988 2.517 15.111 L 2.933 14.202 Z M 2.058 13.468 L 1.116 13.804 C 1.219 14.092 1.386 14.352 1.605 14.566 L 2.302 13.849 L 3 13.133 L 3 13.133 L 2.058 13.468 Z" fill="currentColor" fill-rule="nonzero"></path>
</svg>