<svg xmlns="http://www.w3.org/2000/svg" width="20" height="14" viewBox="0 0 20 14" fill="none">
  <path d="M 4.08 5.019 L 4.172 6.015 C 4.625 5.973 4.993 5.631 5.066 5.182 L 4.08 5.019 Z M 15.92 5.019 L 14.934 5.182 C 15.007 5.631 15.375 5.973 15.828 6.015 L 15.92 5.019 Z M 0 9.5 L -1 9.5 C -1 12.538 1.462 15 4.5 15 L 4.5 14 L 4.5 13 C 2.567 13 1 11.433 1 9.5 L 0 9.5 Z M 4.08 5.019 L 3.988 4.024 C 1.19 4.283 -1 6.635 -1 9.5 L 0 9.5 L 1 9.5 C 1 7.678 2.393 6.18 4.172 6.015 L 4.08 5.019 Z M 10 0 L 10 -1 C 6.523 -1 3.639 1.535 3.093 4.857 L 4.08 5.019 L 5.066 5.182 C 5.456 2.81 7.518 1 10 1 L 10 0 Z M 15.92 5.019 L 16.907 4.857 C 16.361 1.535 13.477 -1 10 -1 L 10 0 L 10 1 C 12.482 1 14.544 2.81 14.934 5.182 L 15.92 5.019 Z M 15.92 5.019 L 15.828 6.015 C 17.607 6.18 19 7.678 19 9.5 L 20 9.5 L 21 9.5 C 21 6.635 18.81 4.283 16.012 4.024 L 15.92 5.019 Z M 20 9.5 L 19 9.5 C 19 11.433 17.433 13 15.5 13 L 15.5 14 L 15.5 15 C 18.538 15 21 12.538 21 9.5 L 20 9.5 Z M 4.5 14 L 4.5 15 C 4.508 15 4.515 15 4.523 15 C 4.53 15 4.537 15 4.545 15 C 4.552 15 4.56 15 4.567 15 C 4.575 15 4.582 15 4.59 15 C 4.597 15 4.605 15 4.612 15 C 4.62 15 4.627 15 4.635 15 C 4.642 15 4.65 15 4.657 15 C 4.664 15 4.672 15 4.679 15 C 4.687 15 4.694 15 4.702 15 C 4.709 15 4.717 15 4.724 15 C 4.731 15 4.739 15 4.746 15 C 4.754 15 4.761 15 4.768 15 C 4.776 15 4.783 15 4.791 15 C 4.798 15 4.806 15 4.813 15 C 4.82 15 4.828 15 4.835 15 C 4.842 15 4.85 15 4.857 15 C 4.865 15 4.872 15 4.879 15 C 4.887 15 4.894 15 4.901 15 C 4.909 15 4.916 15 4.924 15 C 4.931 15 4.938 15 4.946 15 C 4.953 15 4.96 15 4.968 15 C 4.975 15 4.982 15 4.99 15 C 4.997 15 5.004 15 5.012 15 C 5.019 15 5.026 15 5.034 15 C 5.041 15 5.048 15 5.056 15 C 5.063 15 5.07 15 5.078 15 C 5.085 15 5.092 15 5.099 15 C 5.107 15 5.114 15 5.121 15 C 5.129 15 5.136 15 5.143 15 C 5.15 15 5.158 15 5.165 15 C 5.172 15 5.18 15 5.187 15 C 5.194 15 5.201 15 5.209 15 C 5.216 15 5.223 15 5.23 15 C 5.238 15 5.245 15 5.252 15 C 5.259 15 5.267 15 5.274 15 C 5.281 15 5.288 15 5.296 15 C 5.303 15 5.31 15 5.317 15 C 5.325 15 5.332 15 5.339 15 C 5.346 15 5.353 15 5.361 15 C 5.368 15 5.375 15 5.382 15 C 5.39 15 5.397 15 5.404 15 C 5.411 15 5.418 15 5.426 15 C 5.433 15 5.44 15 5.447 15 C 5.454 15 5.462 15 5.469 15 C 5.476 15 5.483 15 5.49 15 C 5.497 15 5.505 15 5.512 15 C 5.519 15 5.526 15 5.533 15 C 5.54 15 5.548 15 5.555 15 C 5.562 15 5.569 15 5.576 15 C 5.583 15 5.591 15 5.598 15 C 5.605 15 5.612 15 5.619 15 C 5.626 15 5.633 15 5.641 15 C 5.648 15 5.655 15 5.662 15 C 5.669 15 5.676 15 5.683 15 C 5.69 15 5.698 15 5.705 15 C 5.712 15 5.719 15 5.726 15 C 5.733 15 5.74 15 5.747 15 C 5.754 15 5.762 15 5.769 15 C 5.776 15 5.783 15 5.79 15 C 5.797 15 5.804 15 5.811 15 C 5.818 15 5.825 15 5.832 15 C 5.839 15 5.847 15 5.854 15 C 5.861 15 5.868 15 5.875 15 C 5.882 15 5.889 15 5.896 15 C 5.903 15 5.91 15 5.917 15 C 5.924 15 5.931 15 5.938 15 C 5.945 15 5.952 15 5.96 15 C 5.967 15 5.974 15 5.981 15 C 5.988 15 5.995 15 6.002 15 C 6.009 15 6.016 15 6.023 15 C 6.03 15 6.037 15 6.044 15 C 6.051 15 6.058 15 6.065 15 C 6.072 15 6.079 15 6.086 15 C 6.093 15 6.1 15 6.107 15 C 6.114 15 6.121 15 6.128 15 C 6.135 15 6.142 15 6.149 15 C 6.156 15 6.163 15 6.17 15 C 6.177 15 6.184 15 6.191 15 C 6.198 15 6.205 15 6.212 15 C 6.219 15 6.226 15 6.233 15 C 6.24 15 6.247 15 6.254 15 C 6.261 15 6.268 15 6.275 15 C 6.282 15 6.289 15 6.296 15 C 6.303 15 6.31 15 6.317 15 C 6.324 15 6.331 15 6.337 15 C 6.344 15 6.351 15 6.358 15 C 6.365 15 6.372 15 6.379 15 C 6.386 15 6.393 15 6.4 15 C 6.407 15 6.414 15 6.421 15 C 6.428 15 6.435 15 6.442 15 C 6.449 15 6.455 15 6.462 15 C 6.469 15 6.476 15 6.483 15 C 6.49 15 6.497 15 6.504 15 C 6.511 15 6.518 15 6.525 15 C 6.532 15 6.538 15 6.545 15 C 6.552 15 6.559 15 6.566 15 C 6.573 15 6.58 15 6.587 15 C 6.594 15 6.601 15 6.608 15 C 6.614 15 6.621 15 6.628 15 C 6.635 15 6.642 15 6.649 15 C 6.656 15 6.663 15 6.67 15 C 6.676 15 6.683 15 6.69 15 C 6.697 15 6.704 15 6.711 15 C 6.718 15 6.725 15 6.731 15 C 6.738 15 6.745 15 6.752 15 C 6.759 15 6.766 15 6.773 15 C 6.779 15 6.786 15 6.793 15 C 6.8 15 6.807 15 6.814 15 C 6.821 15 6.827 15 6.834 15 C 6.841 15 6.848 15 6.855 15 C 6.862 15 6.869 15 6.875 15 C 6.882 15 6.889 15 6.896 15 C 6.903 15 6.91 15 6.916 15 C 6.923 15 6.93 15 6.937 15 C 6.944 15 6.951 15 6.957 15 C 6.964 15 6.971 15 6.978 15 C 6.985 15 6.992 15 6.998 15 C 7.005 15 7.012 15 7.019 15 C 7.026 15 7.032 15 7.039 15 C 7.046 15 7.053 15 7.06 15 C 7.066 15 7.073 15 7.08 15 C 7.087 15 7.094 15 7.101 15 C 7.107 15 7.114 15 7.121 15 C 7.128 15 7.135 15 7.141 15 C 7.148 15 7.155 15 7.162 15 C 7.169 15 7.175 15 7.182 15 C 7.189 15 7.196 15 7.202 15 C 7.209 15 7.216 15 7.223 15 C 7.23 15 7.236 15 7.243 15 C 7.25 15 7.257 15 7.264 15 C 7.27 15 7.277 15 7.284 15 C 7.291 15 7.297 15 7.304 15 C 7.311 15 7.318 15 7.324 15 C 7.331 15 7.338 15 7.345 15 C 7.352 15 7.358 15 7.365 15 C 7.372 15 7.379 15 7.385 15 C 7.392 15 7.399 15 7.406 15 C 7.412 15 7.419 15 7.426 15 C 7.433 15 7.439 15 7.446 15 C 7.453 15 7.46 15 7.466 15 C 7.473 15 7.48 15 7.487 15 C 7.493 15 7.5 15 7.507 15 C 7.514 15 7.52 15 7.527 15 C 7.534 15 7.541 15 7.547 15 C 7.554 15 7.561 15 7.568 15 C 7.574 15 7.581 15 7.588 15 C 7.595 15 7.601 15 7.608 15 C 7.615 15 7.621 15 7.628 15 C 7.635 15 7.642 15 7.648 15 C 7.655 15 7.662 15 7.669 15 C 7.675 15 7.682 15 7.689 15 C 7.696 15 7.702 15 7.709 15 C 7.716 15 7.722 15 7.729 15 C 7.736 15 7.743 15 7.749 15 C 7.756 15 7.763 15 7.769 15 C 7.776 15 7.783 15 7.79 15 C 7.796 15 7.803 15 7.81 15 C 7.816 15 7.823 15 7.83 15 C 7.837 15 7.843 15 7.85 15 C 7.857 15 7.863 15 7.87 15 C 7.877 15 7.884 15 7.89 15 C 7.897 15 7.904 15 7.91 15 C 7.917 15 7.924 15 7.93 15 C 7.937 15 7.944 15 7.951 15 C 7.957 15 7.964 15 7.971 15 C 7.977 15 7.984 15 7.991 15 C 7.997 15 8.004 15 8.011 15 C 8.018 15 8.024 15 8.031 15 C 8.038 15 8.044 15 8.051 15 C 8.058 15 8.064 15 8.071 15 C 8.078 15 8.084 15 8.091 15 C 8.098 15 8.105 15 8.111 15 C 8.118 15 8.125 15 8.131 15 C 8.138 15 8.145 15 8.151 15 C 8.158 15 8.165 15 8.171 15 C 8.178 15 8.185 15 8.191 15 C 8.198 15 8.205 15 8.212 15 C 8.218 15 8.225 15 8.232 15 C 8.238 15 8.245 15 8.252 15 C 8.258 15 8.265 15 8.272 15 C 8.278 15 8.285 15 8.292 15 C 8.298 15 8.305 15 8.312 15 C 8.318 15 8.325 15 8.332 15 C 8.338 15 8.345 15 8.352 15 C 8.358 15 8.365 15 8.372 15 C 8.378 15 8.385 15 8.392 15 C 8.399 15 8.405 15 8.412 15 C 8.419 15 8.425 15 8.432 15 C 8.439 15 8.445 15 8.452 15 C 8.459 15 8.465 15 8.472 15 C 8.479 15 8.485 15 8.492 15 C 8.499 15 8.505 15 8.512 15 C 8.519 15 8.525 15 8.532 15 C 8.539 15 8.545 15 8.552 15 C 8.559 15 8.565 15 8.572 15 C 8.579 15 8.585 15 8.592 15 C 8.599 15 8.605 15 8.612 15 C 8.619 15 8.625 15 8.632 15 C 8.639 15 8.645 15 8.652 15 C 8.659 15 8.665 15 8.672 15 C 8.679 15 8.685 15 8.692 15 C 8.699 15 8.705 15 8.712 15 C 8.719 15 8.725 15 8.732 15 C 8.739 15 8.745 15 8.752 15 C 8.759 15 8.765 15 8.772 15 C 8.779 15 8.785 15 8.792 15 C 8.799 15 8.805 15 8.812 15 C 8.819 15 8.825 15 8.832 15 C 8.839 15 8.845 15 8.852 15 C 8.859 15 8.865 15 8.872 15 C 8.879 15 8.885 15 8.892 15 C 8.899 15 8.905 15 8.912 15 C 8.919 15 8.925 15 8.932 15 C 8.939 15 8.945 15 8.952 15 C 8.959 15 8.965 15 8.972 15 C 8.979 15 8.985 15 8.992 15 C 8.999 15 9.005 15 9.012 15 C 9.019 15 9.025 15 9.032 15 C 9.039 15 9.045 15 9.052 15 C 9.059 15 9.066 15 9.072 15 C 9.079 15 9.086 15 9.092 15 C 9.099 15 9.106 15 9.112 15 C 9.119 15 9.126 15 9.132 15 C 9.139 15 9.146 15 9.152 15 C 9.159 15 9.166 15 9.172 15 C 9.179 15 9.186 15 9.192 15 C 9.199 15 9.206 15 9.212 15 C 9.219 15 9.226 15 9.232 15 C 9.239 15 9.246 15 9.252 15 C 9.259 15 9.266 15 9.272 15 C 9.279 15 9.286 15 9.293 15 C 9.299 15 9.306 15 9.313 15 C 9.319 15 9.326 15 9.333 15 C 9.339 15 9.346 15 9.353 15 C 9.359 15 9.366 15 9.373 15 C 9.379 15 9.386 15 9.393 15 C 9.4 15 9.406 15 9.413 15 C 9.42 15 9.426 15 9.433 15 C 9.44 15 9.446 15 9.453 15 C 9.46 15 9.466 15 9.473 15 C 9.48 15 9.486 15 9.493 15 C 9.5 15 9.507 15 9.513 15 C 9.52 15 9.527 15 9.533 15 C 9.54 15 9.547 15 9.553 15 C 9.56 15 9.567 15 9.574 15 C 9.58 15 9.587 15 9.594 15 C 9.6 15 9.607 15 9.614 15 C 9.62 15 9.627 15 9.634 15 C 9.641 15 9.647 15 9.654 15 C 9.661 15 9.667 15 9.674 15 C 9.681 15 9.688 15 9.694 15 C 9.701 15 9.708 15 9.714 15 C 9.721 15 9.728 15 9.735 15 C 9.741 15 9.748 15 9.755 15 C 9.761 15 9.768 15 9.775 15 C 9.782 15 9.788 15 9.795 15 C 9.802 15 9.808 15 9.815 15 C 9.822 15 9.829 15 9.835 15 C 9.842 15 9.849 15 9.856 15 C 9.862 15 9.869 15 9.876 15 C 9.882 15 9.889 15 9.896 15 C 9.903 15 9.909 15 9.916 15 C 9.923 15 9.93 15 9.936 15 C 9.943 15 9.95 15 9.957 15 C 9.963 15 9.97 15 9.977 15 C 9.984 15 9.99 15 9.997 15 C 10.004 15 10.011 15 10.017 15 C 10.024 15 10.031 15 10.038 15 C 10.044 15 10.051 15 10.058 15 C 10.065 15 10.071 15 10.078 15 C 10.085 15 10.092 15 10.098 15 C 10.105 15 10.112 15 10.119 15 C 10.125 15 10.132 15 10.139 15 C 10.146 15 10.152 15 10.159 15 C 10.166 15 10.173 15 10.179 15 C 10.186 15 10.193 15 10.2 15 C 10.207 15 10.213 15 10.22 15 C 10.227 15 10.234 15 10.24 15 C 10.247 15 10.254 15 10.261 15 C 10.268 15 10.274 15 10.281 15 C 10.288 15 10.295 15 10.301 15 C 10.308 15 10.315 15 10.322 15 C 10.329 15 10.335 15 10.342 15 C 10.349 15 10.356 15 10.363 15 C 10.369 15 10.376 15 10.383 15 C 10.39 15 10.397 15 10.403 15 C 10.41 15 10.417 15 10.424 15 C 10.431 15 10.437 15 10.444 15 C 10.451 15 10.458 15 10.465 15 C 10.471 15 10.478 15 10.485 15 C 10.492 15 10.499 15 10.506 15 C 10.512 15 10.519 15 10.526 15 C 10.533 15 10.54 15 10.547 15 C 10.553 15 10.56 15 10.567 15 C 10.574 15 10.581 15 10.587 15 C 10.594 15 10.601 15 10.608 15 C 10.615 15 10.622 15 10.629 15 C 10.635 15 10.642 15 10.649 15 C 10.656 15 10.663 15 10.67 15 C 10.676 15 10.683 15 10.69 15 C 10.697 15 10.704 15 10.711 15 C 10.718 15 10.724 15 10.731 15 C 10.738 15 10.745 15 10.752 15 C 10.759 15 10.766 15 10.772 15 C 10.779 15 10.786 15 10.793 15 C 10.8 15 10.807 15 10.814 15 C 10.821 15 10.827 15 10.834 15 C 10.841 15 10.848 15 10.855 15 C 10.862 15 10.869 15 10.876 15 C 10.883 15 10.889 15 10.896 15 C 10.903 15 10.91 15 10.917 15 C 10.924 15 10.931 15 10.938 15 C 10.945 15 10.952 15 10.958 15 C 10.965 15 10.972 15 10.979 15 C 10.986 15 10.993 15 11 15 C 11.007 15 11.014 15 11.021 15 C 11.028 15 11.034 15 11.041 15 C 11.048 15 11.055 15 11.062 15 C 11.069 15 11.076 15 11.083 15 C 11.09 15 11.097 15 11.104 15 C 11.111 15 11.118 15 11.125 15 C 11.132 15 11.138 15 11.145 15 C 11.152 15 11.159 15 11.166 15 C 11.173 15 11.18 15 11.187 15 C 11.194 15 11.201 15 11.208 15 C 11.215 15 11.222 15 11.229 15 C 11.236 15 11.243 15 11.25 15 C 11.257 15 11.264 15 11.271 15 C 11.278 15 11.285 15 11.292 15 C 11.299 15 11.306 15 11.313 15 C 11.32 15 11.327 15 11.334 15 C 11.341 15 11.348 15 11.355 15 C 11.362 15 11.369 15 11.376 15 C 11.383 15 11.39 15 11.397 15 C 11.404 15 11.411 15 11.418 15 C 11.425 15 11.432 15 11.439 15 C 11.446 15 11.453 15 11.46 15 C 11.467 15 11.474 15 11.481 15 C 11.488 15 11.495 15 11.502 15 C 11.509 15 11.516 15 11.523 15 C 11.53 15 11.537 15 11.544 15 C 11.551 15 11.558 15 11.565 15 C 11.572 15 11.579 15 11.586 15 C 11.593 15 11.601 15 11.608 15 C 11.615 15 11.622 15 11.629 15 C 11.636 15 11.643 15 11.65 15 C 11.657 15 11.664 15 11.671 15 C 11.678 15 11.685 15 11.692 15 C 11.7 15 11.707 15 11.714 15 C 11.721 15 11.728 15 11.735 15 C 11.742 15 11.749 15 11.756 15 C 11.763 15 11.771 15 11.778 15 C 11.785 15 11.792 15 11.799 15 C 11.806 15 11.813 15 11.82 15 C 11.827 15 11.835 15 11.842 15 C 11.849 15 11.856 15 11.863 15 C 11.87 15 11.877 15 11.884 15 C 11.892 15 11.899 15 11.906 15 C 11.913 15 11.92 15 11.927 15 C 11.934 15 11.942 15 11.949 15 C 11.956 15 11.963 15 11.97 15 C 11.977 15 11.985 15 11.992 15 C 11.999 15 12.006 15 12.013 15 C 12.02 15 12.028 15 12.035 15 C 12.042 15 12.049 15 12.056 15 C 12.064 15 12.071 15 12.078 15 C 12.085 15 12.092 15 12.1 15 C 12.107 15 12.114 15 12.121 15 C 12.128 15 12.136 15 12.143 15 C 12.15 15 12.157 15 12.164 15 C 12.172 15 12.179 15 12.186 15 C 12.193 15 12.201 15 12.208 15 C 12.215 15 12.222 15 12.23 15 C 12.237 15 12.244 15 12.251 15 C 12.259 15 12.266 15 12.273 15 C 12.28 15 12.288 15 12.295 15 C 12.302 15 12.309 15 12.317 15 C 12.324 15 12.331 15 12.338 15 C 12.346 15 12.353 15 12.36 15 C 12.368 15 12.375 15 12.382 15 C 12.389 15 12.397 15 12.404 15 C 12.411 15 12.419 15 12.426 15 C 12.433 15 12.44 15 12.448 15 C 12.455 15 12.462 15 12.47 15 C 12.477 15 12.484 15 12.492 15 C 12.499 15 12.506 15 12.514 15 C 12.521 15 12.528 15 12.536 15 C 12.543 15 12.55 15 12.558 15 C 12.565 15 12.572 15 12.58 15 C 12.587 15 12.595 15 12.602 15 C 12.609 15 12.617 15 12.624 15 C 12.631 15 12.639 15 12.646 15 C 12.653 15 12.661 15 12.668 15 C 12.676 15 12.683 15 12.69 15 C 12.698 15 12.705 15 12.713 15 C 12.72 15 12.727 15 12.735 15 C 12.742 15 12.75 15 12.757 15 C 12.764 15 12.772 15 12.779 15 C 12.787 15 12.794 15 12.802 15 C 12.809 15 12.816 15 12.824 15 C 12.831 15 12.839 15 12.846 15 C 12.854 15 12.861 15 12.869 15 C 12.876 15 12.883 15 12.891 15 C 12.898 15 12.906 15 12.913 15 C 12.921 15 12.928 15 12.936 15 C 12.943 15 12.951 15 12.958 15 C 12.966 15 12.973 15 12.981 15 C 12.988 15 12.996 15 13.003 15 C 13.011 15 13.018 15 13.026 15 C 13.033 15 13.041 15 13.048 15 C 13.056 15 13.063 15 13.071 15 C 13.078 15 13.086 15 13.093 15 C 13.101 15 13.109 15 13.116 15 C 13.124 15 13.131 15 13.139 15 C 13.146 15 13.154 15 13.161 15 C 13.169 15 13.177 15 13.184 15 C 13.192 15 13.199 15 13.207 15 C 13.214 15 13.222 15 13.23 15 C 13.237 15 13.245 15 13.252 15 C 13.26 15 13.268 15 13.275 15 C 13.283 15 13.29 15 13.298 15 C 13.306 15 13.313 15 13.321 15 C 13.328 15 13.336 15 13.344 15 C 13.351 15 13.359 15 13.367 15 C 13.374 15 13.382 15 13.39 15 C 13.397 15 13.405 15 13.413 15 C 13.42 15 13.428 15 13.435 15 C 13.443 15 13.451 15 13.459 15 C 13.466 15 13.474 15 13.482 15 C 13.489 15 13.497 15 13.505 15 C 13.512 15 13.52 15 13.528 15 C 13.535 15 13.543 15 13.551 15 C 13.559 15 13.566 15 13.574 15 C 13.582 15 13.589 15 13.597 15 C 13.605 15 13.613 15 13.62 15 C 13.628 15 13.636 15 13.644 15 C 13.651 15 13.659 15 13.667 15 C 13.675 15 13.682 15 13.69 15 C 13.698 15 13.706 15 13.713 15 C 13.721 15 13.729 15 13.737 15 C 13.745 15 13.752 15 13.76 15 C 13.768 15 13.776 15 13.784 15 C 13.791 15 13.799 15 13.807 15 C 13.815 15 13.823 15 13.83 15 C 13.838 15 13.846 15 13.854 15 C 13.862 15 13.87 15 13.877 15 C 13.885 15 13.893 15 13.901 15 C 13.909 15 13.917 15 13.925 15 C 13.932 15 13.94 15 13.948 15 C 13.956 15 13.964 15 13.972 15 C 13.98 15 13.988 15 13.996 15 C 14.003 15 14.011 15 14.019 15 C 14.027 15 14.035 15 14.043 15 C 14.051 15 14.059 15 14.067 15 C 14.075 15 14.083 15 14.09 15 C 14.098 15 14.106 15 14.114 15 C 14.122 15 14.13 15 14.138 15 C 14.146 15 14.154 15 14.162 15 C 14.17 15 14.178 15 14.186 15 C 14.194 15 14.202 15 14.21 15 C 14.218 15 14.226 15 14.234 15 C 14.242 15 14.25 15 14.258 15 C 14.266 15 14.274 15 14.282 15 C 14.29 15 14.298 15 14.306 15 C 14.314 15 14.322 15 14.33 15 C 14.338 15 14.346 15 14.354 15 C 14.362 15 14.37 15 14.378 15 C 14.386 15 14.394 15 14.402 15 C 14.411 15 14.419 15 14.427 15 C 14.435 15 14.443 15 14.451 15 C 14.459 15 14.467 15 14.475 15 C 14.483 15 14.491 15 14.5 15 C 14.508 15 14.516 15 14.524 15 C 14.532 15 14.54 15 14.548 15 C 14.556 15 14.565 15 14.573 15 C 14.581 15 14.589 15 14.597 15 C 14.605 15 14.613 15 14.622 15 C 14.63 15 14.638 15 14.646 15 C 14.654 15 14.663 15 14.671 15 C 14.679 15 14.687 15 14.695 15 C 14.703 15 14.712 15 14.72 15 C 14.728 15 14.736 15 14.745 15 C 14.753 15 14.761 15 14.769 15 C 14.777 15 14.786 15 14.794 15 C 14.802 15 14.81 15 14.819 15 C 14.827 15 14.835 15 14.843 15 C 14.852 15 14.86 15 14.868 15 C 14.877 15 14.885 15 14.893 15 C 14.901 15 14.91 15 14.918 15 C 14.926 15 14.935 15 14.943 15 C 14.951 15 14.96 15 14.968 15 C 14.976 15 14.985 15 14.993 15 C 15.001 15 15.01 15 15.018 15 C 15.026 15 15.035 15 15.043 15 C 15.051 15 15.06 15 15.068 15 C 15.076 15 15.085 15 15.093 15 C 15.102 15 15.11 15 15.118 15 C 15.127 15 15.135 15 15.143 15 C 15.152 15 15.16 15 15.169 15 C 15.177 15 15.186 15 15.194 15 C 15.202 15 15.211 15 15.219 15 C 15.228 15 15.236 15 15.245 15 C 15.253 15 15.262 15 15.27 15 C 15.278 15 15.287 15 15.295 15 C 15.304 15 15.312 15 15.321 15 C 15.329 15 15.338 15 15.346 15 C 15.355 15 15.363 15 15.372 15 C 15.38 15 15.389 15 15.397 15 C 15.406 15 15.414 15 15.423 15 C 15.432 15 15.44 15 15.449 15 C 15.457 15 15.466 15 15.474 15 C 15.483 15 15.491 15 15.5 15 L 15.5 14 L 15.5 13 C 15.491 13 15.483 13 15.474 13 C 15.466 13 15.457 13 15.449 13 C 15.44 13 15.432 13 15.423 13 C 15.414 13 15.406 13 15.397 13 C 15.389 13 15.38 13 15.372 13 C 15.363 13 15.355 13 15.346 13 C 15.338 13 15.329 13 15.321 13 C 15.312 13 15.304 13 15.295 13 C 15.287 13 15.278 13 15.27 13 C 15.262 13 15.253 13 15.245 13 C 15.236 13 15.228 13 15.219 13 C 15.211 13 15.202 13 15.194 13 C 15.186 13 15.177 13 15.169 13 C 15.16 13 15.152 13 15.143 13 C 15.135 13 15.127 13 15.118 13 C 15.11 13 15.102 13 15.093 13 C 15.085 13 15.076 13 15.068 13 C 15.06 13 15.051 13 15.043 13 C 15.035 13 15.026 13 15.018 13 C 15.01 13 15.001 13 14.993 13 C 14.985 13 14.976 13 14.968 13 C 14.96 13 14.951 13 14.943 13 C 14.935 13 14.926 13 14.918 13 C 14.91 13 14.901 13 14.893 13 C 14.885 13 14.877 13 14.868 13 C 14.86 13 14.852 13 14.843 13 C 14.835 13 14.827 13 14.819 13 C 14.81 13 14.802 13 14.794 13 C 14.786 13 14.777 13 14.769 13 C 14.761 13 14.753 13 14.745 13 C 14.736 13 14.728 13 14.72 13 C 14.712 13 14.703 13 14.695 13 C 14.687 13 14.679 13 14.671 13 C 14.663 13 14.654 13 14.646 13 C 14.638 13 14.63 13 14.622 13 C 14.613 13 14.605 13 14.597 13 C 14.589 13 14.581 13 14.573 13 C 14.565 13 14.556 13 14.548 13 C 14.54 13 14.532 13 14.524 13 C 14.516 13 14.508 13 14.5 13 C 14.491 13 14.483 13 14.475 13 C 14.467 13 14.459 13 14.451 13 C 14.443 13 14.435 13 14.427 13 C 14.419 13 14.411 13 14.402 13 C 14.394 13 14.386 13 14.378 13 C 14.37 13 14.362 13 14.354 13 C 14.346 13 14.338 13 14.33 13 C 14.322 13 14.314 13 14.306 13 C 14.298 13 14.29 13 14.282 13 C 14.274 13 14.266 13 14.258 13 C 14.25 13 14.242 13 14.234 13 C 14.226 13 14.218 13 14.21 13 C 14.202 13 14.194 13 14.186 13 C 14.178 13 14.17 13 14.162 13 C 14.154 13 14.146 13 14.138 13 C 14.13 13 14.122 13 14.114 13 C 14.106 13 14.098 13 14.09 13 C 14.083 13 14.075 13 14.067 13 C 14.059 13 14.051 13 14.043 13 C 14.035 13 14.027 13 14.019 13 C 14.011 13 14.003 13 13.996 13 C 13.988 13 13.98 13 13.972 13 C 13.964 13 13.956 13 13.948 13 C 13.94 13 13.932 13 13.925 13 C 13.917 13 13.909 13 13.901 13 C 13.893 13 13.885 13 13.877 13 C 13.87 13 13.862 13 13.854 13 C 13.846 13 13.838 13 13.83 13 C 13.823 13 13.815 13 13.807 13 C 13.799 13 13.791 13 13.784 13 C 13.776 13 13.768 13 13.76 13 C 13.752 13 13.745 13 13.737 13 C 13.729 13 13.721 13 13.713 13 C 13.706 13 13.698 13 13.69 13 C 13.682 13 13.675 13 13.667 13 C 13.659 13 13.651 13 13.644 13 C 13.636 13 13.628 13 13.62 13 C 13.613 13 13.605 13 13.597 13 C 13.589 13 13.582 13 13.574 13 C 13.566 13 13.559 13 13.551 13 C 13.543 13 13.535 13 13.528 13 C 13.52 13 13.512 13 13.505 13 C 13.497 13 13.489 13 13.482 13 C 13.474 13 13.466 13 13.459 13 C 13.451 13 13.443 13 13.435 13 C 13.428 13 13.42 13 13.413 13 C 13.405 13 13.397 13 13.39 13 C 13.382 13 13.374 13 13.367 13 C 13.359 13 13.351 13 13.344 13 C 13.336 13 13.328 13 13.321 13 C 13.313 13 13.306 13 13.298 13 C 13.29 13 13.283 13 13.275 13 C 13.268 13 13.26 13 13.252 13 C 13.245 13 13.237 13 13.23 13 C 13.222 13 13.214 13 13.207 13 C 13.199 13 13.192 13 13.184 13 C 13.177 13 13.169 13 13.161 13 C 13.154 13 13.146 13 13.139 13 C 13.131 13 13.124 13 13.116 13 C 13.109 13 13.101 13 13.093 13 C 13.086 13 13.078 13 13.071 13 C 13.063 13 13.056 13 13.048 13 C 13.041 13 13.033 13 13.026 13 C 13.018 13 13.011 13 13.003 13 C 12.996 13 12.988 13 12.981 13 C 12.973 13 12.966 13 12.958 13 C 12.951 13 12.943 13 12.936 13 C 12.928 13 12.921 13 12.913 13 C 12.906 13 12.898 13 12.891 13 C 12.883 13 12.876 13 12.869 13 C 12.861 13 12.854 13 12.846 13 C 12.839 13 12.831 13 12.824 13 C 12.816 13 12.809 13 12.802 13 C 12.794 13 12.787 13 12.779 13 C 12.772 13 12.764 13 12.757 13 C 12.75 13 12.742 13 12.735 13 C 12.727 13 12.72 13 12.713 13 C 12.705 13 12.698 13 12.69 13 C 12.683 13 12.676 13 12.668 13 C 12.661 13 12.653 13 12.646 13 C 12.639 13 12.631 13 12.624 13 C 12.617 13 12.609 13 12.602 13 C 12.595 13 12.587 13 12.58 13 C 12.572 13 12.565 13 12.558 13 C 12.55 13 12.543 13 12.536 13 C 12.528 13 12.521 13 12.514 13 C 12.506 13 12.499 13 12.492 13 C 12.484 13 12.477 13 12.47 13 C 12.462 13 12.455 13 12.448 13 C 12.44 13 12.433 13 12.426 13 C 12.419 13 12.411 13 12.404 13 C 12.397 13 12.389 13 12.382 13 C 12.375 13 12.368 13 12.36 13 C 12.353 13 12.346 13 12.338 13 C 12.331 13 12.324 13 12.317 13 C 12.309 13 12.302 13 12.295 13 C 12.288 13 12.28 13 12.273 13 C 12.266 13 12.259 13 12.251 13 C 12.244 13 12.237 13 12.23 13 C 12.222 13 12.215 13 12.208 13 C 12.201 13 12.193 13 12.186 13 C 12.179 13 12.172 13 12.164 13 C 12.157 13 12.15 13 12.143 13 C 12.136 13 12.128 13 12.121 13 C 12.114 13 12.107 13 12.1 13 C 12.092 13 12.085 13 12.078 13 C 12.071 13 12.064 13 12.056 13 C 12.049 13 12.042 13 12.035 13 C 12.028 13 12.02 13 12.013 13 C 12.006 13 11.999 13 11.992 13 C 11.985 13 11.977 13 11.97 13 C 11.963 13 11.956 13 11.949 13 C 11.942 13 11.934 13 11.927 13 C 11.92 13 11.913 13 11.906 13 C 11.899 13 11.892 13 11.884 13 C 11.877 13 11.87 13 11.863 13 C 11.856 13 11.849 13 11.842 13 C 11.835 13 11.827 13 11.82 13 C 11.813 13 11.806 13 11.799 13 C 11.792 13 11.785 13 11.778 13 C 11.771 13 11.763 13 11.756 13 C 11.749 13 11.742 13 11.735 13 C 11.728 13 11.721 13 11.714 13 C 11.707 13 11.7 13 11.692 13 C 11.685 13 11.678 13 11.671 13 C 11.664 13 11.657 13 11.65 13 C 11.643 13 11.636 13 11.629 13 C 11.622 13 11.615 13 11.608 13 C 11.601 13 11.593 13 11.586 13 C 11.579 13 11.572 13 11.565 13 C 11.558 13 11.551 13 11.544 13 C 11.537 13 11.53 13 11.523 13 C 11.516 13 11.509 13 11.502 13 C 11.495 13 11.488 13 11.481 13 C 11.474 13 11.467 13 11.46 13 C 11.453 13 11.446 13 11.439 13 C 11.432 13 11.425 13 11.418 13 C 11.411 13 11.404 13 11.397 13 C 11.39 13 11.383 13 11.376 13 C 11.369 13 11.362 13 11.355 13 C 11.348 13 11.341 13 11.334 13 C 11.327 13 11.32 13 11.313 13 C 11.306 13 11.299 13 11.292 13 C 11.285 13 11.278 13 11.271 13 C 11.264 13 11.257 13 11.25 13 C 11.243 13 11.236 13 11.229 13 C 11.222 13 11.215 13 11.208 13 C 11.201 13 11.194 13 11.187 13 C 11.18 13 11.173 13 11.166 13 C 11.159 13 11.152 13 11.145 13 C 11.138 13 11.132 13 11.125 13 C 11.118 13 11.111 13 11.104 13 C 11.097 13 11.09 13 11.083 13 C 11.076 13 11.069 13 11.062 13 C 11.055 13 11.048 13 11.041 13 C 11.034 13 11.028 13 11.021 13 C 11.014 13 11.007 13 11 13 C 10.993 13 10.986 13 10.979 13 C 10.972 13 10.965 13 10.958 13 C 10.952 13 10.945 13 10.938 13 C 10.931 13 10.924 13 10.917 13 C 10.91 13 10.903 13 10.896 13 C 10.889 13 10.883 13 10.876 13 C 10.869 13 10.862 13 10.855 13 C 10.848 13 10.841 13 10.834 13 C 10.827 13 10.821 13 10.814 13 C 10.807 13 10.8 13 10.793 13 C 10.786 13 10.779 13 10.772 13 C 10.766 13 10.759 13 10.752 13 C 10.745 13 10.738 13 10.731 13 C 10.724 13 10.718 13 10.711 13 C 10.704 13 10.697 13 10.69 13 C 10.683 13 10.676 13 10.67 13 C 10.663 13 10.656 13 10.649 13 C 10.642 13 10.635 13 10.629 13 C 10.622 13 10.615 13 10.608 13 C 10.601 13 10.594 13 10.587 13 C 10.581 13 10.574 13 10.567 13 C 10.56 13 10.553 13 10.547 13 C 10.54 13 10.533 13 10.526 13 C 10.519 13 10.512 13 10.506 13 C 10.499 13 10.492 13 10.485 13 C 10.478 13 10.471 13 10.465 13 C 10.458 13 10.451 13 10.444 13 C 10.437 13 10.431 13 10.424 13 C 10.417 13 10.41 13 10.403 13 C 10.397 13 10.39 13 10.383 13 C 10.376 13 10.369 13 10.363 13 C 10.356 13 10.349 13 10.342 13 C 10.335 13 10.329 13 10.322 13 C 10.315 13 10.308 13 10.301 13 C 10.295 13 10.288 13 10.281 13 C 10.274 13 10.268 13 10.261 13 C 10.254 13 10.247 13 10.24 13 C 10.234 13 10.227 13 10.22 13 C 10.213 13 10.207 13 10.2 13 C 10.193 13 10.186 13 10.179 13 C 10.173 13 10.166 13 10.159 13 C 10.152 13 10.146 13 10.139 13 C 10.132 13 10.125 13 10.119 13 C 10.112 13 10.105 13 10.098 13 C 10.092 13 10.085 13 10.078 13 C 10.071 13 10.065 13 10.058 13 C 10.051 13 10.044 13 10.038 13 C 10.031 13 10.024 13 10.017 13 C 10.011 13 10.004 13 9.997 13 C 9.99 13 9.984 13 9.977 13 C 9.97 13 9.963 13 9.957 13 C 9.95 13 9.943 13 9.936 13 C 9.93 13 9.923 13 9.916 13 C 9.909 13 9.903 13 9.896 13 C 9.889 13 9.882 13 9.876 13 C 9.869 13 9.862 13 9.856 13 C 9.849 13 9.842 13 9.835 13 C 9.829 13 9.822 13 9.815 13 C 9.808 13 9.802 13 9.795 13 C 9.788 13 9.782 13 9.775 13 C 9.768 13 9.761 13 9.755 13 C 9.748 13 9.741 13 9.735 13 C 9.728 13 9.721 13 9.714 13 C 9.708 13 9.701 13 9.694 13 C 9.688 13 9.681 13 9.674 13 C 9.667 13 9.661 13 9.654 13 C 9.647 13 9.641 13 9.634 13 C 9.627 13 9.62 13 9.614 13 C 9.607 13 9.6 13 9.594 13 C 9.587 13 9.58 13 9.574 13 C 9.567 13 9.56 13 9.553 13 C 9.547 13 9.54 13 9.533 13 C 9.527 13 9.52 13 9.513 13 C 9.507 13 9.5 13 9.493 13 C 9.486 13 9.48 13 9.473 13 C 9.466 13 9.46 13 9.453 13 C 9.446 13 9.44 13 9.433 13 C 9.426 13 9.42 13 9.413 13 C 9.406 13 9.4 13 9.393 13 C 9.386 13 9.379 13 9.373 13 C 9.366 13 9.359 13 9.353 13 C 9.346 13 9.339 13 9.333 13 C 9.326 13 9.319 13 9.313 13 C 9.306 13 9.299 13 9.293 13 C 9.286 13 9.279 13 9.272 13 C 9.266 13 9.259 13 9.252 13 C 9.246 13 9.239 13 9.232 13 C 9.226 13 9.219 13 9.212 13 C 9.206 13 9.199 13 9.192 13 C 9.186 13 9.179 13 9.172 13 C 9.166 13 9.159 13 9.152 13 C 9.146 13 9.139 13 9.132 13 C 9.126 13 9.119 13 9.112 13 C 9.106 13 9.099 13 9.092 13 C 9.086 13 9.079 13 9.072 13 C 9.066 13 9.059 13 9.052 13 C 9.045 13 9.039 13 9.032 13 C 9.025 13 9.019 13 9.012 13 C 9.005 13 8.999 13 8.992 13 C 8.985 13 8.979 13 8.972 13 C 8.965 13 8.959 13 8.952 13 C 8.945 13 8.939 13 8.932 13 C 8.925 13 8.919 13 8.912 13 C 8.905 13 8.899 13 8.892 13 C 8.885 13 8.879 13 8.872 13 C 8.865 13 8.859 13 8.852 13 C 8.845 13 8.839 13 8.832 13 C 8.825 13 8.819 13 8.812 13 C 8.805 13 8.799 13 8.792 13 C 8.785 13 8.779 13 8.772 13 C 8.765 13 8.759 13 8.752 13 C 8.745 13 8.739 13 8.732 13 C 8.725 13 8.719 13 8.712 13 C 8.705 13 8.699 13 8.692 13 C 8.685 13 8.679 13 8.672 13 C 8.665 13 8.659 13 8.652 13 C 8.645 13 8.639 13 8.632 13 C 8.625 13 8.619 13 8.612 13 C 8.605 13 8.599 13 8.592 13 C 8.585 13 8.579 13 8.572 13 C 8.565 13 8.559 13 8.552 13 C 8.545 13 8.539 13 8.532 13 C 8.525 13 8.519 13 8.512 13 C 8.505 13 8.499 13 8.492 13 C 8.485 13 8.479 13 8.472 13 C 8.465 13 8.459 13 8.452 13 C 8.445 13 8.439 13 8.432 13 C 8.425 13 8.419 13 8.412 13 C 8.405 13 8.399 13 8.392 13 C 8.385 13 8.378 13 8.372 13 C 8.365 13 8.358 13 8.352 13 C 8.345 13 8.338 13 8.332 13 C 8.325 13 8.318 13 8.312 13 C 8.305 13 8.298 13 8.292 13 C 8.285 13 8.278 13 8.272 13 C 8.265 13 8.258 13 8.252 13 C 8.245 13 8.238 13 8.232 13 C 8.225 13 8.218 13 8.212 13 C 8.205 13 8.198 13 8.191 13 C 8.185 13 8.178 13 8.171 13 C 8.165 13 8.158 13 8.151 13 C 8.145 13 8.138 13 8.131 13 C 8.125 13 8.118 13 8.111 13 C 8.105 13 8.098 13 8.091 13 C 8.084 13 8.078 13 8.071 13 C 8.064 13 8.058 13 8.051 13 C 8.044 13 8.038 13 8.031 13 C 8.024 13 8.018 13 8.011 13 C 8.004 13 7.997 13 7.991 13 C 7.984 13 7.977 13 7.971 13 C 7.964 13 7.957 13 7.951 13 C 7.944 13 7.937 13 7.93 13 C 7.924 13 7.917 13 7.91 13 C 7.904 13 7.897 13 7.89 13 C 7.884 13 7.877 13 7.87 13 C 7.863 13 7.857 13 7.85 13 C 7.843 13 7.837 13 7.83 13 C 7.823 13 7.816 13 7.81 13 C 7.803 13 7.796 13 7.79 13 C 7.783 13 7.776 13 7.769 13 C 7.763 13 7.756 13 7.749 13 C 7.743 13 7.736 13 7.729 13 C 7.722 13 7.716 13 7.709 13 C 7.702 13 7.696 13 7.689 13 C 7.682 13 7.675 13 7.669 13 C 7.662 13 7.655 13 7.648 13 C 7.642 13 7.635 13 7.628 13 C 7.621 13 7.615 13 7.608 13 C 7.601 13 7.595 13 7.588 13 C 7.581 13 7.574 13 7.568 13 C 7.561 13 7.554 13 7.547 13 C 7.541 13 7.534 13 7.527 13 C 7.52 13 7.514 13 7.507 13 C 7.5 13 7.493 13 7.487 13 C 7.48 13 7.473 13 7.466 13 C 7.46 13 7.453 13 7.446 13 C 7.439 13 7.433 13 7.426 13 C 7.419 13 7.412 13 7.406 13 C 7.399 13 7.392 13 7.385 13 C 7.379 13 7.372 13 7.365 13 C 7.358 13 7.352 13 7.345 13 C 7.338 13 7.331 13 7.324 13 C 7.318 13 7.311 13 7.304 13 C 7.297 13 7.291 13 7.284 13 C 7.277 13 7.27 13 7.264 13 C 7.257 13 7.25 13 7.243 13 C 7.236 13 7.23 13 7.223 13 C 7.216 13 7.209 13 7.202 13 C 7.196 13 7.189 13 7.182 13 C 7.175 13 7.169 13 7.162 13 C 7.155 13 7.148 13 7.141 13 C 7.135 13 7.128 13 7.121 13 C 7.114 13 7.107 13 7.101 13 C 7.094 13 7.087 13 7.08 13 C 7.073 13 7.066 13 7.06 13 C 7.053 13 7.046 13 7.039 13 C 7.032 13 7.026 13 7.019 13 C 7.012 13 7.005 13 6.998 13 C 6.992 13 6.985 13 6.978 13 C 6.971 13 6.964 13 6.957 13 C 6.951 13 6.944 13 6.937 13 C 6.93 13 6.923 13 6.916 13 C 6.91 13 6.903 13 6.896 13 C 6.889 13 6.882 13 6.875 13 C 6.869 13 6.862 13 6.855 13 C 6.848 13 6.841 13 6.834 13 C 6.827 13 6.821 13 6.814 13 C 6.807 13 6.8 13 6.793 13 C 6.786 13 6.779 13 6.773 13 C 6.766 13 6.759 13 6.752 13 C 6.745 13 6.738 13 6.731 13 C 6.725 13 6.718 13 6.711 13 C 6.704 13 6.697 13 6.69 13 C 6.683 13 6.676 13 6.67 13 C 6.663 13 6.656 13 6.649 13 C 6.642 13 6.635 13 6.628 13 C 6.621 13 6.614 13 6.608 13 C 6.601 13 6.594 13 6.587 13 C 6.58 13 6.573 13 6.566 13 C 6.559 13 6.552 13 6.545 13 C 6.538 13 6.532 13 6.525 13 C 6.518 13 6.511 13 6.504 13 C 6.497 13 6.49 13 6.483 13 C 6.476 13 6.469 13 6.462 13 C 6.455 13 6.449 13 6.442 13 C 6.435 13 6.428 13 6.421 13 C 6.414 13 6.407 13 6.4 13 C 6.393 13 6.386 13 6.379 13 C 6.372 13 6.365 13 6.358 13 C 6.351 13 6.344 13 6.337 13 C 6.331 13 6.324 13 6.317 13 C 6.31 13 6.303 13 6.296 13 C 6.289 13 6.282 13 6.275 13 C 6.268 13 6.261 13 6.254 13 C 6.247 13 6.24 13 6.233 13 C 6.226 13 6.219 13 6.212 13 C 6.205 13 6.198 13 6.191 13 C 6.184 13 6.177 13 6.17 13 C 6.163 13 6.156 13 6.149 13 C 6.142 13 6.135 13 6.128 13 C 6.121 13 6.114 13 6.107 13 C 6.1 13 6.093 13 6.086 13 C 6.079 13 6.072 13 6.065 13 C 6.058 13 6.051 13 6.044 13 C 6.037 13 6.03 13 6.023 13 C 6.016 13 6.009 13 6.002 13 C 5.995 13 5.988 13 5.981 13 C 5.974 13 5.967 13 5.96 13 C 5.952 13 5.945 13 5.938 13 C 5.931 13 5.924 13 5.917 13 C 5.91 13 5.903 13 5.896 13 C 5.889 13 5.882 13 5.875 13 C 5.868 13 5.861 13 5.854 13 C 5.847 13 5.839 13 5.832 13 C 5.825 13 5.818 13 5.811 13 C 5.804 13 5.797 13 5.79 13 C 5.783 13 5.776 13 5.769 13 C 5.762 13 5.754 13 5.747 13 C 5.74 13 5.733 13 5.726 13 C 5.719 13 5.712 13 5.705 13 C 5.698 13 5.69 13 5.683 13 C 5.676 13 5.669 13 5.662 13 C 5.655 13 5.648 13 5.641 13 C 5.633 13 5.626 13 5.619 13 C 5.612 13 5.605 13 5.598 13 C 5.591 13 5.583 13 5.576 13 C 5.569 13 5.562 13 5.555 13 C 5.548 13 5.54 13 5.533 13 C 5.526 13 5.519 13 5.512 13 C 5.505 13 5.497 13 5.49 13 C 5.483 13 5.476 13 5.469 13 C 5.462 13 5.454 13 5.447 13 C 5.44 13 5.433 13 5.426 13 C 5.418 13 5.411 13 5.404 13 C 5.397 13 5.39 13 5.382 13 C 5.375 13 5.368 13 5.361 13 C 5.353 13 5.346 13 5.339 13 C 5.332 13 5.325 13 5.317 13 C 5.31 13 5.303 13 5.296 13 C 5.288 13 5.281 13 5.274 13 C 5.267 13 5.259 13 5.252 13 C 5.245 13 5.238 13 5.23 13 C 5.223 13 5.216 13 5.209 13 C 5.201 13 5.194 13 5.187 13 C 5.18 13 5.172 13 5.165 13 C 5.158 13 5.15 13 5.143 13 C 5.136 13 5.129 13 5.121 13 C 5.114 13 5.107 13 5.099 13 C 5.092 13 5.085 13 5.078 13 C 5.07 13 5.063 13 5.056 13 C 5.048 13 5.041 13 5.034 13 C 5.026 13 5.019 13 5.012 13 C 5.004 13 4.997 13 4.99 13 C 4.982 13 4.975 13 4.968 13 C 4.96 13 4.953 13 4.946 13 C 4.938 13 4.931 13 4.924 13 C 4.916 13 4.909 13 4.901 13 C 4.894 13 4.887 13 4.879 13 C 4.872 13 4.865 13 4.857 13 C 4.85 13 4.842 13 4.835 13 C 4.828 13 4.82 13 4.813 13 C 4.806 13 4.798 13 4.791 13 C 4.783 13 4.776 13 4.768 13 C 4.761 13 4.754 13 4.746 13 C 4.739 13 4.731 13 4.724 13 C 4.717 13 4.709 13 4.702 13 C 4.694 13 4.687 13 4.679 13 C 4.672 13 4.664 13 4.657 13 C 4.65 13 4.642 13 4.635 13 C 4.627 13 4.62 13 4.612 13 C 4.605 13 4.597 13 4.59 13 C 4.582 13 4.575 13 4.567 13 C 4.56 13 4.552 13 4.545 13 C 4.537 13 4.53 13 4.523 13 C 4.515 13 4.508 13 4.5 13 L 4.5 14 Z" fill="currentColor" fill-rule="nonzero"></path>
</svg>