<svg xmlns="http://www.w3.org/2000/svg" width="20" height="20" viewBox="0 0 20 20" fill="none">
  <path d="M 11 4 C 11 3.448 10.552 3 10 3 C 9.448 3 9 3.448 9 4 L 10 4 L 11 4 Z M 10 10 L 9 10 C 9 10.379 9.214 10.725 9.553 10.894 L 10 10 Z M 13.553 12.894 C 14.047 13.141 14.647 12.941 14.894 12.447 C 15.141 11.953 14.941 11.353 14.447 11.106 L 14 12 L 13.553 12.894 Z M 20 10 L 19 10 C 19 14.971 14.971 19 10 19 L 10 20 L 10 21 C 16.075 21 21 16.075 21 10 L 20 10 Z M 10 20 L 10 19 C 5.029 19 1 14.971 1 10 L 0 10 L -1 10 C -1 16.075 3.925 21 10 21 L 10 20 Z M 0 10 L 1 10 C 1 5.029 5.029 1 10 1 L 10 0 L 10 -1 C 3.925 -1 -1 3.925 -1 10 L 0 10 Z M 10 0 L 10 1 C 14.971 1 19 5.029 19 10 L 20 10 L 21 10 C 21 3.925 16.075 -1 10 -1 L 10 0 Z M 10 4 L 9 4 L 9 10 L 10 10 L 11 10 L 11 4 L 10 4 Z M 10 10 L 9.553 10.894 L 13.553 12.894 L 14 12 L 14.447 11.106 L 10.447 9.106 L 10 10 Z" fill="currentColor" fill-rule="nonzero"></path>
</svg>