<svg xmlns="http://www.w3.org/2000/svg" width="18" height="18.667" viewBox="0 0 18 18.667" fill="none">
  <path d="M 6.9 16.2 L 7.7 15.6 L 7.7 15.6 L 6.9 16.2 Z M 6.281 15.464 L 6.922 14.697 L 6.922 14.697 L 6.281 15.464 Z M 5.46 15.054 L 5.689 14.08 L 5.46 15.054 Z M 0.228 13.148 L -0.696 13.531 L -0.696 13.531 L 0.228 13.148 Z M 1.852 14.772 L 1.469 15.696 L 1.469 15.696 L 1.852 14.772 Z M 12.54 15.054 L 12.311 14.08 L 12.54 15.054 Z M 11.1 16.2 L 10.3 15.6 L 10.3 15.6 L 11.1 16.2 Z M 11.719 15.464 L 11.078 14.697 L 11.078 14.697 L 11.719 15.464 Z M 9.181 18.633 L 9.544 19.565 L 9.181 18.633 Z M 8.36 18.147 L 7.56 18.747 L 7.56 18.747 L 8.36 18.147 Z M 8.819 18.633 L 8.456 19.565 L 8.819 18.633 Z M 17.772 13.148 L 18.696 13.531 L 18.696 13.531 L 17.772 13.148 Z M 16.148 14.772 L 16.531 15.696 L 16.531 15.696 L 16.148 14.772 Z M 16.362 0.327 L 16.816 -0.564 L 16.362 0.327 Z M 17.673 1.638 L 18.564 1.184 L 17.673 1.638 Z M 1.638 0.327 L 1.184 -0.564 L 1.638 0.327 Z M 0.327 1.638 L -0.564 1.184 L 0.327 1.638 Z M 6.057 5.17 C 5.873 5.691 6.147 6.262 6.668 6.446 C 7.189 6.629 7.76 6.355 7.943 5.834 L 7 5.502 L 6.057 5.17 Z M 11.369 6.252 L 10.369 6.25 L 10.369 6.252 L 11.369 6.252 Z M 8.805 7.551 C 8.281 7.726 7.998 8.292 8.172 8.816 C 8.347 9.34 8.913 9.623 9.437 9.449 L 9.121 8.5 L 8.805 7.551 Z M 9.15 10.5 C 8.598 10.5 8.15 10.948 8.15 11.5 C 8.15 12.052 8.598 12.5 9.15 12.5 L 9.15 11.5 L 9.15 10.5 Z M 9.16 12.5 C 9.712 12.5 10.16 12.052 10.16 11.5 C 10.16 10.948 9.712 10.5 9.16 10.5 L 9.16 11.5 L 9.16 12.5 Z M 4.8 0 L 4.8 1 L 13.2 1 L 13.2 0 L 13.2 -1 L 4.8 -1 L 4.8 0 Z M 18 4.8 L 17 4.8 L 17 10.5 L 18 10.5 L 19 10.5 L 19 4.8 L 18 4.8 Z M 11.1 16.2 L 10.3 15.6 L 8.84 17.547 L 9.64 18.147 L 10.44 18.747 L 11.9 16.8 L 11.1 16.2 Z M 0 10.5 L 1 10.5 L 1 4.8 L 0 4.8 L -1 4.8 L -1 10.5 L 0 10.5 Z M 8.36 18.147 L 9.16 17.547 L 7.7 15.6 L 6.9 16.2 L 6.1 16.8 L 7.56 18.747 L 8.36 18.147 Z M 6.9 16.2 L 7.7 15.6 C 7.436 15.248 7.211 14.938 6.922 14.697 L 6.281 15.464 L 5.641 16.232 C 5.709 16.289 5.778 16.371 6.1 16.8 L 6.9 16.2 Z M 4.5 15 L 4.5 16 C 5.037 16 5.143 16.006 5.23 16.027 L 5.46 15.054 L 5.689 14.08 C 5.323 13.994 4.941 14 4.5 14 L 4.5 15 Z M 6.281 15.464 L 6.922 14.697 C 6.565 14.398 6.143 14.187 5.689 14.08 L 5.46 15.054 L 5.23 16.027 C 5.381 16.062 5.522 16.133 5.641 16.232 L 6.281 15.464 Z M 0 10.5 L -1 10.5 C -1 11.185 -1.001 11.749 -0.969 12.21 C -0.937 12.679 -0.869 13.113 -0.696 13.531 L 0.228 13.148 L 1.152 12.765 C 1.097 12.632 1.051 12.441 1.026 12.073 C 1.001 11.697 1 11.213 1 10.5 L 0 10.5 Z M 4.5 15 L 4.5 14 C 3.787 14 3.303 13.999 2.927 13.974 C 2.559 13.949 2.368 13.903 2.235 13.848 L 1.852 14.772 L 1.469 15.696 C 1.887 15.869 2.321 15.937 2.79 15.969 C 3.251 16.001 3.815 16 4.5 16 L 4.5 15 Z M 0.228 13.148 L -0.696 13.531 C -0.29 14.511 0.489 15.29 1.469 15.696 L 1.852 14.772 L 2.235 13.848 C 1.745 13.645 1.355 13.255 1.152 12.765 L 0.228 13.148 Z M 13.5 15 L 13.5 14 C 13.059 14 12.677 13.994 12.311 14.08 L 12.54 15.054 L 12.77 16.027 C 12.857 16.006 12.963 16 13.5 16 L 13.5 15 Z M 11.1 16.2 L 11.9 16.8 C 12.222 16.371 12.291 16.289 12.359 16.232 L 11.719 15.464 L 11.078 14.697 C 10.789 14.938 10.564 15.248 10.3 15.6 L 11.1 16.2 Z M 12.54 15.054 L 12.311 14.08 C 11.857 14.187 11.435 14.398 11.078 14.697 L 11.719 15.464 L 12.359 16.232 C 12.478 16.133 12.619 16.062 12.77 16.027 L 12.54 15.054 Z M 9.64 18.147 L 8.84 17.547 C 8.784 17.621 8.742 17.677 8.706 17.724 C 8.669 17.771 8.648 17.797 8.636 17.81 C 8.623 17.824 8.633 17.811 8.661 17.789 C 8.692 17.765 8.745 17.729 8.819 17.701 L 9.181 18.633 L 9.544 19.565 C 9.824 19.455 10.011 19.272 10.123 19.148 C 10.23 19.028 10.343 18.877 10.44 18.747 L 9.64 18.147 Z M 8.36 18.147 L 7.56 18.747 C 7.657 18.877 7.77 19.028 7.877 19.148 C 7.989 19.272 8.176 19.455 8.456 19.565 L 8.819 18.633 L 9.181 17.701 C 9.255 17.729 9.308 17.765 9.339 17.789 C 9.367 17.811 9.377 17.824 9.364 17.81 C 9.352 17.797 9.331 17.771 9.294 17.724 C 9.258 17.677 9.216 17.621 9.16 17.547 L 8.36 18.147 Z M 9.181 18.633 L 8.819 17.701 C 8.935 17.655 9.065 17.655 9.181 17.701 L 8.819 18.633 L 8.456 19.565 C 8.806 19.701 9.194 19.701 9.544 19.565 L 9.181 18.633 Z M 18 10.5 L 17 10.5 C 17 11.213 16.999 11.697 16.974 12.073 C 16.949 12.441 16.903 12.632 16.848 12.765 L 17.772 13.148 L 18.696 13.531 C 18.869 13.113 18.937 12.679 18.969 12.21 C 19.001 11.749 19 11.185 19 10.5 L 18 10.5 Z M 13.5 15 L 13.5 16 C 14.185 16 14.749 16.001 15.21 15.969 C 15.679 15.937 16.113 15.869 16.531 15.696 L 16.148 14.772 L 15.765 13.848 C 15.632 13.903 15.441 13.949 15.073 13.974 C 14.697 13.999 14.213 14 13.5 14 L 13.5 15 Z M 17.772 13.148 L 16.848 12.765 C 16.645 13.255 16.255 13.645 15.765 13.848 L 16.148 14.772 L 16.531 15.696 C 17.511 15.29 18.29 14.511 18.696 13.531 L 17.772 13.148 Z M 13.2 0 L 13.2 1 C 14.057 1 14.639 1.001 15.089 1.038 C 15.527 1.073 15.752 1.138 15.908 1.218 L 16.362 0.327 L 16.816 -0.564 C 16.331 -0.811 15.814 -0.91 15.252 -0.956 C 14.701 -1.001 14.024 -1 13.2 -1 L 13.2 0 Z M 18 4.8 L 19 4.8 C 19 3.976 19.001 3.299 18.956 2.748 C 18.91 2.186 18.811 1.669 18.564 1.184 L 17.673 1.638 L 16.782 2.092 C 16.862 2.248 16.927 2.473 16.962 2.911 C 16.999 3.361 17 3.943 17 4.8 L 18 4.8 Z M 16.362 0.327 L 15.908 1.218 C 16.284 1.41 16.59 1.716 16.782 2.092 L 17.673 1.638 L 18.564 1.184 C 18.181 0.431 17.569 -0.181 16.816 -0.564 L 16.362 0.327 Z M 4.8 0 L 4.8 -1 C 3.976 -1 3.299 -1.001 2.748 -0.956 C 2.186 -0.91 1.669 -0.811 1.184 -0.564 L 1.638 0.327 L 2.092 1.218 C 2.248 1.138 2.473 1.073 2.911 1.038 C 3.361 1.001 3.943 1 4.8 1 L 4.8 0 Z M 0 4.8 L 1 4.8 C 1 3.943 1.001 3.361 1.038 2.911 C 1.073 2.473 1.138 2.248 1.218 2.092 L 0.327 1.638 L -0.564 1.184 C -0.811 1.669 -0.91 2.186 -0.956 2.748 C -1.001 3.299 -1 3.976 -1 4.8 L 0 4.8 Z M 1.638 0.327 L 1.184 -0.564 C 0.431 -0.181 -0.181 0.431 -0.564 1.184 L 0.327 1.638 L 1.218 2.092 C 1.41 1.716 1.716 1.41 2.092 1.218 L 1.638 0.327 Z M 7 5.502 L 7.943 5.834 C 8.041 5.556 8.234 5.321 8.488 5.172 L 7.982 4.31 L 7.475 3.448 C 6.814 3.837 6.311 4.447 6.057 5.17 L 7 5.502 Z M 7.982 4.31 L 8.488 5.172 C 8.743 5.023 9.041 4.968 9.332 5.018 L 9.501 4.032 L 9.67 3.047 C 8.914 2.917 8.136 3.059 7.475 3.448 L 7.982 4.31 Z M 9.501 4.032 L 9.332 5.018 C 9.623 5.068 9.886 5.219 10.076 5.444 L 10.841 4.8 L 11.606 4.156 C 11.112 3.57 10.426 3.176 9.67 3.047 L 9.501 4.032 Z M 10.841 4.8 L 10.076 5.444 C 10.266 5.67 10.37 5.955 10.369 6.25 L 11.369 6.252 L 12.369 6.253 C 12.37 5.486 12.1 4.743 11.606 4.156 L 10.841 4.8 Z M 11.369 6.252 L 10.369 6.252 C 10.369 6.47 10.192 6.771 9.69 7.106 C 9.47 7.253 9.242 7.367 9.066 7.446 C 8.979 7.484 8.908 7.513 8.862 7.53 C 8.838 7.539 8.821 7.545 8.811 7.549 C 8.806 7.551 8.803 7.552 8.802 7.552 C 8.801 7.552 8.801 7.552 8.802 7.552 C 8.802 7.552 8.802 7.552 8.803 7.552 C 8.803 7.552 8.803 7.552 8.804 7.552 C 8.804 7.552 8.804 7.552 8.804 7.551 C 8.804 7.551 8.805 7.551 9.121 8.5 C 9.437 9.449 9.437 9.449 9.438 9.448 C 9.438 9.448 9.438 9.448 9.438 9.448 C 9.439 9.448 9.439 9.448 9.44 9.448 C 9.441 9.447 9.442 9.447 9.443 9.447 C 9.446 9.446 9.449 9.445 9.453 9.443 C 9.46 9.441 9.47 9.438 9.481 9.433 C 9.504 9.425 9.535 9.414 9.574 9.399 C 9.65 9.37 9.754 9.328 9.878 9.273 C 10.124 9.164 10.458 8.998 10.8 8.77 C 11.422 8.355 12.369 7.532 12.369 6.252 L 11.369 6.252 Z M 9.15 11.5 L 9.15 12.5 L 9.16 12.5 L 9.16 11.5 L 9.16 10.5 L 9.15 10.5 L 9.15 11.5 Z" fill="currentColor" fill-rule="nonzero"></path>
</svg>