<svg xmlns="http://www.w3.org/2000/svg" width="14" height="20" viewBox="0 0 14 20" fill="none">
  <path d="M 15 8 C 15 7.448 14.552 7 14 7 C 13.448 7 13 7.448 13 8 L 14 8 L 15 8 Z M 1 8 C 1 7.448 0.552 7 0 7 C -0.552 7 -1 7.448 -1 8 L 0 8 L 1 8 Z M 6 20 C 6 20.552 6.448 21 7 21 C 7.552 21 8 20.552 8 20 L 7 20 L 6 20 Z M 3 19 C 2.448 19 2 19.448 2 20 C 2 20.552 2.448 21 3 21 L 3 20 L 3 19 Z M 11 21 C 11.552 21 12 20.552 12 20 C 12 19.448 11.552 19 11 19 L 11 20 L 11 21 Z M 14 8 L 13 8 L 13 10 L 14 10 L 15 10 L 15 8 L 14 8 Z M 0 10 L 1 10 L 1 8 L 0 8 L -1 8 L -1 10 L 0 10 Z M 7 17 L 7 16 C 3.686 16 1 13.314 1 10 L 0 10 L -1 10 C -1 14.418 2.582 18 7 18 L 7 17 Z M 14 10 L 13 10 C 13 13.314 10.314 16 7 16 L 7 17 L 7 18 C 11.418 18 15 14.418 15 10 L 14 10 Z M 7 17 L 6 17 L 6 20 L 7 20 L 8 20 L 8 17 L 7 17 Z M 3 20 L 3 21 L 11 21 L 11 20 L 11 19 L 3 19 L 3 20 Z M 10 3 L 9 3 L 9 10 L 10 10 L 11 10 L 11 3 L 10 3 Z M 4 10 L 5 10 L 5 3 L 4 3 L 3 3 L 3 10 L 4 10 Z M 7 13 L 7 12 C 5.895 12 5 11.105 5 10 L 4 10 L 3 10 C 3 12.209 4.791 14 7 14 L 7 13 Z M 10 10 L 9 10 C 9 11.105 8.105 12 7 12 L 7 13 L 7 14 C 9.209 14 11 12.209 11 10 L 10 10 Z M 7 0 L 7 1 C 8.105 1 9 1.895 9 3 L 10 3 L 11 3 C 11 0.791 9.209 -1 7 -1 L 7 0 Z M 7 0 L 7 -1 C 4.791 -1 3 0.791 3 3 L 4 3 L 5 3 C 5 1.895 5.895 1 7 1 L 7 0 Z" fill="currentColor" fill-rule="nonzero"></path>
</svg>