<svg xmlns="http://www.w3.org/2000/svg" width="20" height="20" viewBox="0 0 20 20" fill="none">
  <path d="M 15.727 11.946 L 15.273 11.054 L 15.727 11.946 Z M 15.946 11.727 L 15.054 11.273 L 15.946 11.727 Z M 11.727 15.946 L 11.273 15.054 L 11.727 15.946 Z M 11.946 15.727 L 11.054 15.273 L 11.946 15.727 Z M 16.8 8 L 16.8 7 L 16.8 7 L 16.8 8 Z M 16.273 8.054 L 15.819 7.163 L 16.273 8.054 Z M 16.054 8.273 L 16.946 8.727 L 16.054 8.273 Z M 8.054 16.273 L 8.946 16.727 L 8.054 16.273 Z M 8.273 16.054 L 8.727 16.946 L 8.273 16.054 Z M 12.054 12.273 L 12.946 12.727 L 12.054 12.273 Z M 12.273 12.054 L 12.727 12.946 L 12.273 12.054 Z M 8.8 20 L 8.8 19 L 8.8 19 L 8.8 20 Z M 8.273 19.946 L 7.819 20.837 L 7.819 20.837 L 8.273 19.946 Z M 8.054 19.727 L 7.163 20.181 L 8.054 19.727 Z M 19.946 19.727 L 19.054 19.273 L 19.946 19.727 Z M 19.2 20 L 19.2 21 L 19.2 21 L 19.2 20 Z M 19.727 19.946 L 20.181 20.837 L 19.727 19.946 Z M 19.946 8.273 L 20.837 7.819 L 19.946 8.273 Z M 19.2 8 L 19.2 9 L 19.2 9 L 19.2 8 Z M 19.727 8.054 L 20.181 7.163 L 19.727 8.054 Z M 8.273 7.946 L 8.727 7.054 L 8.273 7.946 Z M 8.054 7.727 L 8.946 7.273 L 8.054 7.727 Z M 11.946 7.727 L 11.054 7.273 L 11.946 7.727 Z M 11.727 7.946 L 11.273 7.054 L 11.727 7.946 Z M 11.727 4.054 L 11.273 4.946 L 11.727 4.054 Z M 11.946 4.273 L 11.054 4.727 L 11.946 4.273 Z M 8.273 4.054 L 8.727 4.946 L 8.273 4.054 Z M 8.054 4.273 L 8.946 4.727 L 8.054 4.273 Z M 1.273 13.946 L 1.727 13.054 L 1.273 13.946 Z M 1.054 13.727 L 1.946 13.273 L 1.054 13.727 Z M 4.946 13.727 L 4.054 13.273 L 4.946 13.727 Z M 4.727 13.946 L 4.273 13.054 L 4.727 13.946 Z M 4.727 10.054 L 4.273 10.946 L 4.727 10.054 Z M 4.946 10.273 L 4.054 10.727 L 4.946 10.273 Z M 1.273 10.054 L 1.727 10.946 L 1.273 10.054 Z M 1.054 10.273 L 1.946 10.727 L 1.054 10.273 Z M 0.273 3.946 L 0.727 3.054 L 0.273 3.946 Z M 0.054 3.727 L 0.946 3.273 L 0.054 3.727 Z M 3.946 3.727 L 3.054 3.273 L 3.946 3.727 Z M 3.727 3.946 L 3.273 3.054 L 3.727 3.946 Z M 3.727 0.054 L 3.273 0.946 L 3.727 0.054 Z M 3.946 0.273 L 3.054 0.727 L 3.946 0.273 Z M 0.273 0.054 L 0.727 0.946 L 0.273 0.054 Z M 0.054 0.273 L 0.946 0.727 L 0.054 0.273 Z M 20 8.8 L 19 8.8 L 19 19.2 L 20 19.2 L 21 19.2 L 21 8.8 L 20 8.8 Z M 19.2 20 L 19.2 19 L 8.8 19 L 8.8 20 L 8.8 21 L 19.2 21 L 19.2 20 Z M 8 19.2 L 9 19.2 L 9 16.8 L 8 16.8 L 7 16.8 L 7 19.2 L 8 19.2 Z M 16.8 8 L 16.8 9 L 19.2 9 L 19.2 8 L 19.2 7 L 16.8 7 L 16.8 8 Z M 8.8 16 L 8.8 17 L 11.2 17 L 11.2 16 L 11.2 15 L 8.8 15 L 8.8 16 Z M 12 15.2 L 13 15.2 L 13 12.8 L 12 12.8 L 11 12.8 L 11 15.2 L 12 15.2 Z M 12.8 12 L 12.8 13 L 15.2 13 L 15.2 12 L 15.2 11 L 12.8 11 L 12.8 12 Z M 16 11.2 L 17 11.2 L 17 8.8 L 16 8.8 L 15 8.8 L 15 11.2 L 16 11.2 Z M 15.2 12 L 15.2 13 C 15.324 13 15.476 13.001 15.61 12.99 C 15.755 12.978 15.963 12.948 16.181 12.837 L 15.727 11.946 L 15.273 11.054 C 15.327 11.027 15.376 11.012 15.41 11.004 C 15.441 10.996 15.457 10.996 15.447 10.997 C 15.437 10.997 15.414 10.999 15.37 10.999 C 15.325 11 15.272 11 15.2 11 L 15.2 12 Z M 16 11.2 L 15 11.2 C 15 11.272 15 11.325 14.999 11.37 C 14.999 11.414 14.997 11.437 14.997 11.447 C 14.996 11.457 14.996 11.441 15.004 11.41 C 15.012 11.376 15.027 11.327 15.054 11.273 L 15.946 11.727 L 16.837 12.181 C 16.948 11.963 16.978 11.755 16.99 11.61 C 17.001 11.476 17 11.324 17 11.2 L 16 11.2 Z M 15.727 11.946 L 16.181 12.837 C 16.463 12.693 16.693 12.463 16.837 12.181 L 15.946 11.727 L 15.054 11.273 C 15.102 11.179 15.179 11.102 15.273 11.054 L 15.727 11.946 Z M 11.2 16 L 11.2 17 C 11.324 17 11.476 17.001 11.61 16.99 C 11.755 16.978 11.963 16.948 12.181 16.837 L 11.727 15.946 L 11.273 15.054 C 11.327 15.027 11.376 15.012 11.41 15.004 C 11.441 14.996 11.457 14.996 11.447 14.997 C 11.437 14.997 11.414 14.999 11.37 14.999 C 11.325 15 11.272 15 11.2 15 L 11.2 16 Z M 12 15.2 L 11 15.2 C 11 15.272 11 15.325 10.999 15.37 C 10.999 15.414 10.997 15.437 10.997 15.447 C 10.996 15.457 10.996 15.441 11.004 15.41 C 11.012 15.376 11.027 15.327 11.054 15.273 L 11.946 15.727 L 12.837 16.181 C 12.948 15.963 12.978 15.755 12.99 15.61 C 13.001 15.476 13 15.324 13 15.2 L 12 15.2 Z M 11.727 15.946 L 12.181 16.837 C 12.463 16.693 12.693 16.463 12.837 16.181 L 11.946 15.727 L 11.054 15.273 C 11.102 15.179 11.179 15.102 11.273 15.054 L 11.727 15.946 Z M 16.8 8 L 16.8 7 C 16.676 7 16.524 6.999 16.39 7.01 C 16.245 7.022 16.037 7.052 15.819 7.163 L 16.273 8.054 L 16.727 8.946 C 16.673 8.973 16.624 8.988 16.59 8.996 C 16.559 9.004 16.543 9.004 16.553 9.003 C 16.563 9.003 16.586 9.001 16.63 9.001 C 16.675 9 16.728 9 16.8 9 L 16.8 8 Z M 16 8.8 L 17 8.8 C 17 8.728 17 8.675 17.001 8.63 C 17.001 8.586 17.003 8.563 17.003 8.553 C 17.004 8.543 17.004 8.559 16.996 8.59 C 16.988 8.624 16.973 8.673 16.946 8.727 L 16.054 8.273 L 15.163 7.819 C 15.052 8.037 15.022 8.245 15.01 8.39 C 14.999 8.524 15 8.676 15 8.8 L 16 8.8 Z M 16.273 8.054 L 15.819 7.163 C 15.537 7.307 15.307 7.537 15.163 7.819 L 16.054 8.273 L 16.946 8.727 C 16.898 8.821 16.821 8.898 16.727 8.946 L 16.273 8.054 Z M 8 16.8 L 9 16.8 C 9 16.728 9 16.675 9.001 16.63 C 9.001 16.586 9.003 16.563 9.003 16.553 C 9.004 16.543 9.004 16.559 8.996 16.59 C 8.988 16.624 8.973 16.673 8.946 16.727 L 8.054 16.273 L 7.163 15.819 C 7.052 16.037 7.022 16.245 7.01 16.39 C 6.999 16.524 7 16.676 7 16.8 L 8 16.8 Z M 8.8 16 L 8.8 15 C 8.676 15 8.524 14.999 8.39 15.01 C 8.245 15.022 8.037 15.052 7.819 15.163 L 8.273 16.054 L 8.727 16.946 C 8.673 16.973 8.624 16.988 8.59 16.996 C 8.559 17.004 8.543 17.004 8.553 17.003 C 8.563 17.003 8.586 17.001 8.63 17.001 C 8.675 17 8.728 17 8.8 17 L 8.8 16 Z M 8.054 16.273 L 8.946 16.727 C 8.898 16.821 8.821 16.898 8.727 16.946 L 8.273 16.054 L 7.819 15.163 C 7.537 15.307 7.307 15.537 7.163 15.819 L 8.054 16.273 Z M 12 12.8 L 13 12.8 C 13 12.728 13 12.675 13.001 12.63 C 13.001 12.586 13.003 12.563 13.003 12.553 C 13.004 12.543 13.004 12.559 12.996 12.59 C 12.988 12.624 12.973 12.673 12.946 12.727 L 12.054 12.273 L 11.163 11.819 C 11.052 12.037 11.022 12.245 11.01 12.39 C 10.999 12.524 11 12.676 11 12.8 L 12 12.8 Z M 12.8 12 L 12.8 11 C 12.676 11 12.524 10.999 12.39 11.01 C 12.245 11.022 12.037 11.052 11.819 11.163 L 12.273 12.054 L 12.727 12.946 C 12.673 12.973 12.624 12.988 12.59 12.996 C 12.559 13.004 12.543 13.004 12.553 13.003 C 12.563 13.003 12.586 13.001 12.63 13.001 C 12.675 13 12.728 13 12.8 13 L 12.8 12 Z M 12.054 12.273 L 12.946 12.727 C 12.898 12.821 12.821 12.898 12.727 12.946 L 12.273 12.054 L 11.819 11.163 C 11.537 11.307 11.307 11.537 11.163 11.819 L 12.054 12.273 Z M 8.8 20 L 8.8 19 C 8.728 19 8.675 19 8.63 18.999 C 8.586 18.999 8.563 18.997 8.553 18.997 C 8.543 18.996 8.559 18.996 8.59 19.004 C 8.624 19.012 8.673 19.027 8.727 19.054 L 8.273 19.946 L 7.819 20.837 C 8.037 20.948 8.245 20.978 8.39 20.99 C 8.524 21.001 8.676 21 8.8 21 L 8.8 20 Z M 8 19.2 L 7 19.2 C 7 19.324 6.999 19.476 7.01 19.61 C 7.022 19.755 7.052 19.963 7.163 20.181 L 8.054 19.727 L 8.946 19.273 C 8.973 19.327 8.988 19.376 8.996 19.41 C 9.004 19.441 9.004 19.457 9.003 19.447 C 9.003 19.437 9.001 19.414 9.001 19.37 C 9 19.325 9 19.272 9 19.2 L 8 19.2 Z M 8.273 19.946 L 8.727 19.054 C 8.821 19.102 8.898 19.179 8.946 19.273 L 8.054 19.727 L 7.163 20.181 C 7.307 20.463 7.537 20.693 7.819 20.837 L 8.273 19.946 Z M 20 19.2 L 19 19.2 C 19 19.272 19 19.325 18.999 19.37 C 18.999 19.414 18.997 19.437 18.997 19.447 C 18.996 19.457 18.996 19.441 19.004 19.41 C 19.012 19.376 19.027 19.327 19.054 19.273 L 19.946 19.727 L 20.837 20.181 C 20.948 19.963 20.978 19.755 20.99 19.61 C 21.001 19.476 21 19.324 21 19.2 L 20 19.2 Z M 19.2 20 L 19.2 21 C 19.324 21 19.476 21.001 19.61 20.99 C 19.755 20.978 19.963 20.948 20.181 20.837 L 19.727 19.946 L 19.273 19.054 C 19.327 19.027 19.376 19.012 19.41 19.004 C 19.441 18.996 19.457 18.996 19.447 18.997 C 19.437 18.997 19.414 18.999 19.37 18.999 C 19.325 19 19.272 19 19.2 19 L 19.2 20 Z M 19.946 19.727 L 19.054 19.273 C 19.102 19.179 19.179 19.102 19.273 19.054 L 19.727 19.946 L 20.181 20.837 C 20.463 20.693 20.693 20.463 20.837 20.181 L 19.946 19.727 Z M 20 8.8 L 21 8.8 C 21 8.676 21.001 8.524 20.99 8.39 C 20.978 8.245 20.948 8.037 20.837 7.819 L 19.946 8.273 L 19.054 8.727 C 19.027 8.673 19.012 8.624 19.004 8.59 C 18.996 8.559 18.996 8.543 18.997 8.553 C 18.997 8.563 18.999 8.586 18.999 8.63 C 19 8.675 19 8.728 19 8.8 L 20 8.8 Z M 19.2 8 L 19.2 9 C 19.272 9 19.325 9 19.37 9.001 C 19.414 9.001 19.437 9.003 19.447 9.003 C 19.457 9.004 19.441 9.004 19.41 8.996 C 19.376 8.988 19.327 8.973 19.273 8.946 L 19.727 8.054 L 20.181 7.163 C 19.963 7.052 19.755 7.022 19.61 7.01 C 19.476 6.999 19.324 7 19.2 7 L 19.2 8 Z M 19.946 8.273 L 20.837 7.819 C 20.693 7.537 20.463 7.307 20.181 7.163 L 19.727 8.054 L 19.273 8.946 C 19.179 8.898 19.102 8.821 19.054 8.727 L 19.946 8.273 Z M 8.8 4 L 8.8 5 L 11.2 5 L 11.2 4 L 11.2 3 L 8.8 3 L 8.8 4 Z M 12 4.8 L 11 4.8 L 11 7.2 L 12 7.2 L 13 7.2 L 13 4.8 L 12 4.8 Z M 11.2 8 L 11.2 7 L 8.8 7 L 8.8 8 L 8.8 9 L 11.2 9 L 11.2 8 Z M 8 7.2 L 9 7.2 L 9 4.8 L 8 4.8 L 7 4.8 L 7 7.2 L 8 7.2 Z M 8.8 8 L 8.8 7 C 8.728 7 8.675 7 8.63 6.999 C 8.586 6.999 8.563 6.997 8.553 6.997 C 8.543 6.996 8.559 6.996 8.59 7.004 C 8.624 7.012 8.673 7.027 8.727 7.054 L 8.273 7.946 L 7.819 8.837 C 8.037 8.948 8.245 8.978 8.39 8.99 C 8.524 9.001 8.676 9 8.8 9 L 8.8 8 Z M 8 7.2 L 7 7.2 C 7 7.324 6.999 7.476 7.01 7.61 C 7.022 7.755 7.052 7.963 7.163 8.181 L 8.054 7.727 L 8.946 7.273 C 8.973 7.327 8.988 7.376 8.996 7.41 C 9.004 7.441 9.004 7.457 9.003 7.447 C 9.003 7.437 9.001 7.414 9.001 7.37 C 9 7.325 9 7.272 9 7.2 L 8 7.2 Z M 8.273 7.946 L 8.727 7.054 C 8.821 7.102 8.898 7.179 8.946 7.273 L 8.054 7.727 L 7.163 8.181 C 7.307 8.463 7.537 8.693 7.819 8.837 L 8.273 7.946 Z M 12 7.2 L 11 7.2 C 11 7.272 11 7.325 10.999 7.37 C 10.999 7.414 10.997 7.437 10.997 7.447 C 10.996 7.457 10.996 7.441 11.004 7.41 C 11.012 7.376 11.027 7.327 11.054 7.273 L 11.946 7.727 L 12.837 8.181 C 12.948 7.963 12.978 7.755 12.99 7.61 C 13.001 7.476 13 7.324 13 7.2 L 12 7.2 Z M 11.2 8 L 11.2 9 C 11.324 9 11.476 9.001 11.61 8.99 C 11.755 8.978 11.963 8.948 12.181 8.837 L 11.727 7.946 L 11.273 7.054 C 11.327 7.027 11.376 7.012 11.41 7.004 C 11.441 6.996 11.457 6.996 11.447 6.997 C 11.437 6.997 11.414 6.999 11.37 6.999 C 11.325 7 11.272 7 11.2 7 L 11.2 8 Z M 11.946 7.727 L 11.054 7.273 C 11.102 7.179 11.179 7.102 11.273 7.054 L 11.727 7.946 L 12.181 8.837 C 12.463 8.693 12.693 8.463 12.837 8.181 L 11.946 7.727 Z M 11.2 4 L 11.2 5 C 11.272 5 11.325 5 11.37 5.001 C 11.414 5.001 11.437 5.003 11.447 5.003 C 11.457 5.004 11.441 5.004 11.41 4.996 C 11.376 4.988 11.327 4.973 11.273 4.946 L 11.727 4.054 L 12.181 3.163 C 11.963 3.052 11.755 3.022 11.61 3.01 C 11.476 2.999 11.324 3 11.2 3 L 11.2 4 Z M 12 4.8 L 13 4.8 C 13 4.676 13.001 4.524 12.99 4.39 C 12.978 4.245 12.948 4.037 12.837 3.819 L 11.946 4.273 L 11.054 4.727 C 11.027 4.673 11.012 4.624 11.004 4.59 C 10.996 4.559 10.996 4.543 10.997 4.553 C 10.997 4.563 10.999 4.586 10.999 4.63 C 11 4.675 11 4.728 11 4.8 L 12 4.8 Z M 11.727 4.054 L 11.273 4.946 C 11.179 4.898 11.102 4.821 11.054 4.727 L 11.946 4.273 L 12.837 3.819 C 12.693 3.537 12.463 3.307 12.181 3.163 L 11.727 4.054 Z M 8.8 4 L 8.8 3 C 8.676 3 8.524 2.999 8.39 3.01 C 8.245 3.022 8.037 3.052 7.819 3.163 L 8.273 4.054 L 8.727 4.946 C 8.673 4.973 8.624 4.988 8.59 4.996 C 8.559 5.004 8.543 5.004 8.553 5.003 C 8.563 5.003 8.586 5.001 8.63 5.001 C 8.675 5 8.728 5 8.8 5 L 8.8 4 Z M 8 4.8 L 9 4.8 C 9 4.728 9 4.675 9.001 4.63 C 9.001 4.586 9.003 4.563 9.003 4.553 C 9.004 4.543 9.004 4.559 8.996 4.59 C 8.988 4.624 8.973 4.673 8.946 4.727 L 8.054 4.273 L 7.163 3.819 C 7.052 4.037 7.022 4.245 7.01 4.39 C 6.999 4.524 7 4.676 7 4.8 L 8 4.8 Z M 8.273 4.054 L 7.819 3.163 C 7.537 3.307 7.307 3.537 7.163 3.819 L 8.054 4.273 L 8.946 4.727 C 8.898 4.821 8.821 4.898 8.727 4.946 L 8.273 4.054 Z M 1.8 10 L 1.8 11 L 4.2 11 L 4.2 10 L 4.2 9 L 1.8 9 L 1.8 10 Z M 5 10.8 L 4 10.8 L 4 13.2 L 5 13.2 L 6 13.2 L 6 10.8 L 5 10.8 Z M 4.2 14 L 4.2 13 L 1.8 13 L 1.8 14 L 1.8 15 L 4.2 15 L 4.2 14 Z M 1 13.2 L 2 13.2 L 2 10.8 L 1 10.8 L 0 10.8 L 0 13.2 L 1 13.2 Z M 1.8 14 L 1.8 13 C 1.728 13 1.675 13 1.63 12.999 C 1.586 12.999 1.563 12.997 1.553 12.997 C 1.543 12.996 1.559 12.996 1.59 13.004 C 1.624 13.012 1.673 13.027 1.727 13.054 L 1.273 13.946 L 0.819 14.837 C 1.037 14.948 1.245 14.978 1.39 14.99 C 1.524 15.001 1.676 15 1.8 15 L 1.8 14 Z M 1 13.2 L 0 13.2 C 0 13.324 -0.001 13.476 0.01 13.61 C 0.022 13.755 0.052 13.963 0.163 14.181 L 1.054 13.727 L 1.946 13.273 C 1.973 13.327 1.988 13.376 1.996 13.41 C 2.004 13.441 2.004 13.457 2.003 13.447 C 2.003 13.437 2.001 13.414 2.001 13.37 C 2 13.325 2 13.272 2 13.2 L 1 13.2 Z M 1.273 13.946 L 1.727 13.054 C 1.821 13.102 1.898 13.179 1.946 13.273 L 1.054 13.727 L 0.163 14.181 C 0.307 14.463 0.537 14.693 0.819 14.837 L 1.273 13.946 Z M 5 13.2 L 4 13.2 C 4 13.272 4 13.325 3.999 13.37 C 3.999 13.414 3.997 13.437 3.997 13.447 C 3.996 13.457 3.996 13.441 4.004 13.41 C 4.012 13.376 4.027 13.327 4.054 13.273 L 4.946 13.727 L 5.837 14.181 C 5.948 13.963 5.978 13.755 5.99 13.61 C 6.001 13.476 6 13.324 6 13.2 L 5 13.2 Z M 4.2 14 L 4.2 15 C 4.324 15 4.476 15.001 4.61 14.99 C 4.755 14.978 4.963 14.948 5.181 14.837 L 4.727 13.946 L 4.273 13.054 C 4.327 13.027 4.376 13.012 4.41 13.004 C 4.441 12.996 4.457 12.996 4.447 12.997 C 4.437 12.997 4.414 12.999 4.37 12.999 C 4.325 13 4.272 13 4.2 13 L 4.2 14 Z M 4.946 13.727 L 4.054 13.273 C 4.102 13.179 4.179 13.102 4.273 13.054 L 4.727 13.946 L 5.181 14.837 C 5.463 14.693 5.693 14.463 5.837 14.181 L 4.946 13.727 Z M 4.2 10 L 4.2 11 C 4.272 11 4.325 11 4.37 11.001 C 4.414 11.001 4.437 11.003 4.447 11.003 C 4.457 11.004 4.441 11.004 4.41 10.996 C 4.376 10.988 4.327 10.973 4.273 10.946 L 4.727 10.054 L 5.181 9.163 C 4.963 9.052 4.755 9.022 4.61 9.01 C 4.476 8.999 4.324 9 4.2 9 L 4.2 10 Z M 5 10.8 L 6 10.8 C 6 10.676 6.001 10.524 5.99 10.39 C 5.978 10.245 5.948 10.037 5.837 9.819 L 4.946 10.273 L 4.054 10.727 C 4.027 10.673 4.012 10.624 4.004 10.59 C 3.996 10.559 3.996 10.543 3.997 10.553 C 3.997 10.563 3.999 10.586 3.999 10.63 C 4 10.675 4 10.728 4 10.8 L 5 10.8 Z M 4.727 10.054 L 4.273 10.946 C 4.179 10.898 4.102 10.821 4.054 10.727 L 4.946 10.273 L 5.837 9.819 C 5.693 9.537 5.463 9.307 5.181 9.163 L 4.727 10.054 Z M 1.8 10 L 1.8 9 C 1.676 9 1.524 8.999 1.39 9.01 C 1.245 9.022 1.037 9.052 0.819 9.163 L 1.273 10.054 L 1.727 10.946 C 1.673 10.973 1.624 10.988 1.59 10.996 C 1.559 11.004 1.543 11.004 1.553 11.003 C 1.563 11.003 1.586 11.001 1.63 11.001 C 1.675 11 1.728 11 1.8 11 L 1.8 10 Z M 1 10.8 L 2 10.8 C 2 10.728 2 10.675 2.001 10.63 C 2.001 10.586 2.003 10.563 2.003 10.553 C 2.004 10.543 2.004 10.559 1.996 10.59 C 1.988 10.624 1.973 10.673 1.946 10.727 L 1.054 10.273 L 0.163 9.819 C 0.052 10.037 0.022 10.245 0.01 10.39 C -0.001 10.524 0 10.676 0 10.8 L 1 10.8 Z M 1.273 10.054 L 0.819 9.163 C 0.537 9.307 0.307 9.537 0.163 9.819 L 1.054 10.273 L 1.946 10.727 C 1.898 10.821 1.821 10.898 1.727 10.946 L 1.273 10.054 Z M 0.8 0 L 0.8 1 L 3.2 1 L 3.2 0 L 3.2 -1 L 0.8 -1 L 0.8 0 Z M 4 0.8 L 3 0.8 L 3 3.2 L 4 3.2 L 5 3.2 L 5 0.8 L 4 0.8 Z M 3.2 4 L 3.2 3 L 0.8 3 L 0.8 4 L 0.8 5 L 3.2 5 L 3.2 4 Z M 0 3.2 L 1 3.2 L 1 0.8 L 0 0.8 L -1 0.8 L -1 3.2 L 0 3.2 Z M 0.8 4 L 0.8 3 C 0.728 3 0.675 3 0.63 2.999 C 0.586 2.999 0.563 2.997 0.553 2.997 C 0.543 2.996 0.559 2.996 0.59 3.004 C 0.624 3.012 0.673 3.027 0.727 3.054 L 0.273 3.946 L -0.181 4.837 C 0.037 4.948 0.245 4.978 0.39 4.99 C 0.524 5.001 0.676 5 0.8 5 L 0.8 4 Z M 0 3.2 L -1 3.2 C -1 3.324 -1.001 3.476 -0.99 3.61 C -0.978 3.755 -0.948 3.963 -0.837 4.181 L 0.054 3.727 L 0.946 3.273 C 0.973 3.327 0.988 3.376 0.996 3.41 C 1.004 3.441 1.004 3.457 1.003 3.447 C 1.003 3.437 1.001 3.414 1.001 3.37 C 1 3.325 1 3.272 1 3.2 L 0 3.2 Z M 0.273 3.946 L 0.727 3.054 C 0.821 3.102 0.898 3.179 0.946 3.273 L 0.054 3.727 L -0.837 4.181 C -0.693 4.463 -0.463 4.693 -0.181 4.837 L 0.273 3.946 Z M 4 3.2 L 3 3.2 C 3 3.272 3 3.325 2.999 3.37 C 2.999 3.414 2.997 3.437 2.997 3.447 C 2.996 3.457 2.996 3.441 3.004 3.41 C 3.012 3.376 3.027 3.327 3.054 3.273 L 3.946 3.727 L 4.837 4.181 C 4.948 3.963 4.978 3.755 4.99 3.61 C 5.001 3.476 5 3.324 5 3.2 L 4 3.2 Z M 3.2 4 L 3.2 5 C 3.324 5 3.476 5.001 3.61 4.99 C 3.755 4.978 3.963 4.948 4.181 4.837 L 3.727 3.946 L 3.273 3.054 C 3.327 3.027 3.376 3.012 3.41 3.004 C 3.441 2.996 3.457 2.996 3.447 2.997 C 3.437 2.997 3.414 2.999 3.37 2.999 C 3.325 3 3.272 3 3.2 3 L 3.2 4 Z M 3.946 3.727 L 3.054 3.273 C 3.102 3.179 3.179 3.102 3.273 3.054 L 3.727 3.946 L 4.181 4.837 C 4.463 4.693 4.693 4.463 4.837 4.181 L 3.946 3.727 Z M 3.2 0 L 3.2 1 C 3.272 1 3.325 1 3.37 1.001 C 3.414 1.001 3.437 1.003 3.447 1.003 C 3.457 1.004 3.441 1.004 3.41 0.996 C 3.376 0.988 3.327 0.973 3.273 0.946 L 3.727 0.054 L 4.181 -0.837 C 3.963 -0.948 3.755 -0.978 3.61 -0.99 C 3.476 -1.001 3.324 -1 3.2 -1 L 3.2 0 Z M 4 0.8 L 5 0.8 C 5 0.676 5.001 0.524 4.99 0.39 C 4.978 0.245 4.948 0.037 4.837 -0.181 L 3.946 0.273 L 3.054 0.727 C 3.027 0.673 3.012 0.624 3.004 0.59 C 2.996 0.559 2.996 0.543 2.997 0.553 C 2.997 0.563 2.999 0.586 2.999 0.63 C 3 0.675 3 0.728 3 0.8 L 4 0.8 Z M 3.727 0.054 L 3.273 0.946 C 3.179 0.898 3.102 0.821 3.054 0.727 L 3.946 0.273 L 4.837 -0.181 C 4.693 -0.463 4.463 -0.693 4.181 -0.837 L 3.727 0.054 Z M 0.8 0 L 0.8 -1 C 0.676 -1 0.524 -1.001 0.39 -0.99 C 0.245 -0.978 0.037 -0.948 -0.181 -0.837 L 0.273 0.054 L 0.727 0.946 C 0.673 0.973 0.624 0.988 0.59 0.996 C 0.559 1.004 0.543 1.004 0.553 1.003 C 0.563 1.003 0.586 1.001 0.63 1.001 C 0.675 1 0.728 1 0.8 1 L 0.8 0 Z M 0 0.8 L 1 0.8 C 1 0.728 1 0.675 1.001 0.63 C 1.001 0.586 1.003 0.563 1.003 0.553 C 1.004 0.543 1.004 0.559 0.996 0.59 C 0.988 0.624 0.973 0.673 0.946 0.727 L 0.054 0.273 L -0.837 -0.181 C -0.948 0.037 -0.978 0.245 -0.99 0.39 C -1.001 0.524 -1 0.676 -1 0.8 L 0 0.8 Z M 0.273 0.054 L -0.181 -0.837 C -0.463 -0.693 -0.693 -0.463 -0.837 -0.181 L 0.054 0.273 L 0.946 0.727 C 0.898 0.821 0.821 0.898 0.727 0.946 L 0.273 0.054 Z" fill="currentColor" fill-rule="nonzero"></path>
</svg>