<svg xmlns="http://www.w3.org/2000/svg" width="16" height="19.794" viewBox="0 0 16 19.794" fill="none">
  <path d="M 2.076 2.153 L 1.725 1.217 L 2.076 2.153 Z M 0.678 2.818 L 0.016 2.067 L 0.678 2.818 Z M 0.131 3.607 L 1.065 3.962 L 0.131 3.607 Z M 8.562 0.143 L 8.211 1.079 L 8.211 1.079 L 8.562 0.143 Z M 8.143 0.01 L 8 1 L 8.143 0.01 Z M 7.438 0.143 L 7.789 1.079 L 7.789 1.079 L 7.438 0.143 Z M 7.857 0.01 L 8 1 L 7.857 0.01 Z M 15.869 3.607 L 14.935 3.962 L 15.869 3.607 Z M 13.924 2.153 L 14.275 1.217 L 13.924 2.153 Z M 15.322 2.818 L 15.984 2.067 L 15.322 2.818 Z M 8.698 19.547 L 9.202 20.411 L 8.698 19.547 Z M 8.21 19.774 L 8.419 20.752 L 8.21 19.774 Z M 7.302 19.547 L 7.806 18.683 L 7.806 18.683 L 7.302 19.547 Z M 7.79 19.774 L 7.581 20.752 L 7.79 19.774 Z M 9 0.432 C 9 -0.12 8.552 -0.568 8 -0.568 C 7.448 -0.568 7 -0.12 7 0.432 L 8 0.432 L 9 0.432 Z M 7 19.432 C 7 19.984 7.448 20.432 8 20.432 C 8.552 20.432 9 19.984 9 19.432 L 8 19.432 L 7 19.432 Z M 8.698 19.547 L 9.202 20.411 C 10.214 19.82 12.128 18.589 13.801 16.846 C 15.463 15.115 17 12.759 17 9.932 L 16 9.932 L 15 9.932 C 15 12.014 13.86 13.896 12.358 15.461 C 10.867 17.015 9.13 18.137 8.194 18.683 L 8.698 19.547 Z M 16 9.932 L 17 9.932 L 17 5.15 L 16 5.15 L 15 5.15 L 15 9.932 L 16 9.932 Z M 13.924 2.153 L 14.275 1.217 L 8.913 -0.794 L 8.562 0.143 L 8.211 1.079 L 13.572 3.09 L 13.924 2.153 Z M 7.438 0.143 L 7.087 -0.794 L 1.725 1.217 L 2.076 2.153 L 2.428 3.09 L 7.789 1.079 L 7.438 0.143 Z M 0 5.15 L -1 5.15 L -1 9.932 L 0 9.932 L 1 9.932 L 1 5.15 L 0 5.15 Z M 0 9.932 L -1 9.932 C -1 12.759 0.537 15.115 2.199 16.846 C 3.872 18.589 5.786 19.82 6.798 20.411 L 7.302 19.547 L 7.806 18.683 C 6.87 18.137 5.133 17.015 3.642 15.461 C 2.14 13.896 1 12.014 1 9.932 L 0 9.932 Z M 2.076 2.153 L 1.725 1.217 C 1.053 1.469 0.464 1.673 0.016 2.067 L 0.678 2.818 L 1.339 3.568 C 1.443 3.476 1.602 3.399 2.428 3.09 L 2.076 2.153 Z M 0 5.15 L 1 5.15 C 1 4.268 1.016 4.093 1.065 3.962 L 0.131 3.607 L -0.804 3.251 C -1.016 3.808 -1 4.432 -1 5.15 L 0 5.15 Z M 0.678 2.818 L 0.016 2.067 C -0.349 2.389 -0.631 2.796 -0.804 3.251 L 0.131 3.607 L 1.065 3.962 C 1.123 3.811 1.217 3.675 1.339 3.568 L 0.678 2.818 Z M 8.562 0.143 L 8.913 -0.794 C 8.745 -0.857 8.525 -0.945 8.286 -0.979 L 8.143 0.01 L 8 1 C 7.977 0.997 7.97 0.993 8.003 1.003 C 8.044 1.017 8.099 1.037 8.211 1.079 L 8.562 0.143 Z M 7.438 0.143 L 7.789 1.079 C 7.901 1.037 7.956 1.017 7.997 1.003 C 8.03 0.993 8.023 0.997 8 1 L 7.857 0.01 L 7.714 -0.979 C 7.475 -0.945 7.255 -0.857 7.087 -0.794 L 7.438 0.143 Z M 8.143 0.01 L 8.286 -0.979 C 8.096 -1.007 7.904 -1.007 7.714 -0.979 L 7.857 0.01 L 8 1 L 8 1 L 8.143 0.01 Z M 16 5.15 L 17 5.15 C 17 4.432 17.016 3.808 16.804 3.251 L 15.869 3.607 L 14.935 3.962 C 14.984 4.093 15 4.268 15 5.15 L 16 5.15 Z M 13.924 2.153 L 13.572 3.09 C 14.398 3.399 14.557 3.476 14.661 3.568 L 15.322 2.818 L 15.984 2.067 C 15.536 1.673 14.947 1.469 14.275 1.217 L 13.924 2.153 Z M 15.869 3.607 L 16.804 3.251 C 16.631 2.796 16.349 2.389 15.984 2.067 L 15.322 2.818 L 14.661 3.568 C 14.783 3.675 14.877 3.811 14.935 3.962 L 15.869 3.607 Z M 8.698 19.547 L 8.194 18.683 C 8.137 18.716 8.096 18.741 8.06 18.761 C 8.025 18.781 8.004 18.791 7.991 18.797 C 7.98 18.803 7.979 18.803 7.985 18.801 C 7.991 18.799 7.997 18.797 8 18.796 L 8.21 19.774 L 8.419 20.752 C 8.76 20.679 9.012 20.521 9.202 20.411 L 8.698 19.547 Z M 7.302 19.547 L 6.798 20.411 C 6.988 20.521 7.24 20.679 7.581 20.752 L 7.79 19.774 L 8 18.796 C 8.003 18.797 8.009 18.799 8.015 18.801 C 8.021 18.803 8.02 18.803 8.009 18.797 C 7.996 18.791 7.975 18.781 7.94 18.761 C 7.904 18.741 7.863 18.716 7.806 18.683 L 7.302 19.547 Z M 8.21 19.774 L 8 18.796 C 8.009 18.794 8.015 18.794 8.017 18.793 C 8.02 18.793 8.02 18.793 8.019 18.793 C 8.016 18.793 8.009 18.794 8 18.794 C 7.991 18.794 7.984 18.793 7.981 18.793 C 7.98 18.793 7.98 18.793 7.983 18.793 C 7.985 18.794 7.991 18.794 8 18.796 L 7.79 19.774 L 7.581 20.752 C 7.84 20.808 8.16 20.808 8.419 20.752 L 8.21 19.774 Z M 8 0.432 L 7 0.432 L 7 19.432 L 8 19.432 L 9 19.432 L 9 0.432 L 8 0.432 Z" fill="currentColor" fill-rule="nonzero"></path>
</svg>