<svg xmlns="http://www.w3.org/2000/svg" width="18" height="18.460" viewBox="0 0 18 18.460" fill="none">
  <path d="M 4 15 L 5 15 C 5 14.448 4.552 14 4 14 L 4 15 Z M 0.102 12.776 L 1.068 12.518 L 0.102 12.776 Z M 2.224 14.898 L 2.482 13.932 L 2.224 14.898 Z M 9.449 15.061 L 9.248 14.082 L 9.449 15.061 Z M 7.685 16.052 L 7.061 15.271 L 7.685 16.052 Z M 8.687 15.328 L 8.233 14.438 L 8.687 15.328 Z M 4.501 18.46 L 4.502 19.46 L 4.501 18.46 Z M 4.109 18.272 L 4.891 17.648 L 4.891 17.648 L 4.109 18.272 Z M 17.673 13.362 L 18.564 13.816 L 17.673 13.362 Z M 16.362 14.673 L 16.816 15.564 L 16.362 14.673 Z M 16.362 0.327 L 16.816 -0.564 L 16.362 0.327 Z M 17.673 1.638 L 18.564 1.184 L 17.673 1.638 Z M 1.638 0.327 L 1.184 -0.564 L 1.638 0.327 Z M 0.327 1.638 L -0.564 1.184 L 0.327 1.638 Z M 4 4.5 C 3.448 4.5 3 4.948 3 5.5 C 3 6.052 3.448 6.5 4 6.5 L 4 5.5 L 4 4.5 Z M 9 6.5 C 9.552 6.5 10 6.052 10 5.5 C 10 4.948 9.552 4.5 9 4.5 L 9 5.5 L 9 6.5 Z M 4 8 C 3.448 8 3 8.448 3 9 C 3 9.552 3.448 10 4 10 L 4 9 L 4 8 Z M 12 10 C 12.552 10 13 9.552 13 9 C 13 8.448 12.552 8 12 8 L 12 9 L 12 10 Z M 4.8 0 L 4.8 1 L 13.2 1 L 13.2 0 L 13.2 -1 L 4.8 -1 L 4.8 0 Z M 18 4.8 L 17 4.8 L 17 10.2 L 18 10.2 L 19 10.2 L 19 4.8 L 18 4.8 Z M 13.2 15 L 13.2 14 L 10.684 14 L 10.684 15 L 10.684 16 L 13.2 16 L 13.2 15 Z M 7.685 16.052 L 7.061 15.271 L 4.675 17.179 L 5.3 17.96 L 5.924 18.741 L 8.31 16.833 L 7.685 16.052 Z M 0 11 L 1 11 L 1 4.8 L 0 4.8 L -1 4.8 L -1 11 L 0 11 Z M 4 17.336 L 5 17.336 L 5 15 L 4 15 L 3 15 L 3 17.336 L 4 17.336 Z M 0 11 L -1 11 C -1 11.866 -1.009 12.495 -0.864 13.035 L 0.102 12.776 L 1.068 12.518 C 1.009 12.295 1 11.994 1 11 L 0 11 Z M 4 15 L 4 14 C 3.006 14 2.705 13.991 2.482 13.932 L 2.224 14.898 L 1.965 15.864 C 2.505 16.009 3.134 16 4 16 L 4 15 Z M 0.102 12.776 L -0.864 13.035 C -0.494 14.416 0.584 15.494 1.965 15.864 L 2.224 14.898 L 2.482 13.932 C 1.792 13.747 1.253 13.208 1.068 12.518 L 0.102 12.776 Z M 10.684 15 L 10.684 14 C 10.1 14 9.669 13.995 9.248 14.082 L 9.449 15.061 L 9.65 16.041 C 9.826 16.005 10.02 16 10.684 16 L 10.684 15 Z M 7.685 16.052 L 8.31 16.833 C 8.828 16.418 8.982 16.301 9.142 16.219 L 8.687 15.328 L 8.233 14.438 C 7.85 14.633 7.517 14.906 7.061 15.271 L 7.685 16.052 Z M 9.449 15.061 L 9.248 14.082 C 8.895 14.154 8.553 14.274 8.233 14.438 L 8.687 15.328 L 9.142 16.219 C 9.303 16.137 9.474 16.077 9.65 16.041 L 9.449 15.061 Z M 5.3 17.96 L 4.675 17.179 C 4.569 17.264 4.485 17.331 4.412 17.387 C 4.339 17.444 4.291 17.479 4.258 17.501 C 4.224 17.523 4.228 17.517 4.26 17.504 C 4.297 17.489 4.381 17.46 4.499 17.46 L 4.501 18.46 L 4.502 19.46 C 4.899 19.459 5.204 19.273 5.361 19.169 C 5.534 19.055 5.732 18.895 5.924 18.741 L 5.3 17.96 Z M 4 17.336 L 3 17.336 C 3 17.582 2.999 17.836 3.018 18.043 C 3.035 18.23 3.08 18.585 3.328 18.895 L 4.109 18.272 L 4.891 17.648 C 4.965 17.74 4.995 17.824 5.006 17.862 C 5.016 17.895 5.013 17.903 5.01 17.862 C 5.006 17.823 5.003 17.763 5.002 17.671 C 5 17.579 5 17.471 5 17.336 L 4 17.336 Z M 4.501 18.46 L 4.499 17.46 C 4.652 17.46 4.796 17.529 4.891 17.648 L 4.109 18.272 L 3.328 18.895 C 3.613 19.252 4.045 19.46 4.502 19.46 L 4.501 18.46 Z M 18 10.2 L 17 10.2 C 17 11.057 16.999 11.639 16.962 12.089 C 16.927 12.527 16.862 12.752 16.782 12.908 L 17.673 13.362 L 18.564 13.816 C 18.811 13.331 18.91 12.814 18.956 12.252 C 19.001 11.701 19 11.024 19 10.2 L 18 10.2 Z M 13.2 15 L 13.2 16 C 14.024 16 14.701 16.001 15.252 15.956 C 15.814 15.91 16.331 15.811 16.816 15.564 L 16.362 14.673 L 15.908 13.782 C 15.752 13.862 15.527 13.927 15.089 13.962 C 14.639 13.999 14.057 14 13.2 14 L 13.2 15 Z M 17.673 13.362 L 16.782 12.908 C 16.59 13.284 16.284 13.59 15.908 13.782 L 16.362 14.673 L 16.816 15.564 C 17.569 15.181 18.181 14.569 18.564 13.816 L 17.673 13.362 Z M 13.2 0 L 13.2 1 C 14.057 1 14.639 1.001 15.089 1.038 C 15.527 1.073 15.752 1.138 15.908 1.218 L 16.362 0.327 L 16.816 -0.564 C 16.331 -0.811 15.814 -0.91 15.252 -0.956 C 14.701 -1.001 14.024 -1 13.2 -1 L 13.2 0 Z M 18 4.8 L 19 4.8 C 19 3.976 19.001 3.299 18.956 2.748 C 18.91 2.186 18.811 1.669 18.564 1.184 L 17.673 1.638 L 16.782 2.092 C 16.862 2.248 16.927 2.473 16.962 2.911 C 16.999 3.361 17 3.943 17 4.8 L 18 4.8 Z M 16.362 0.327 L 15.908 1.218 C 16.284 1.41 16.59 1.716 16.782 2.092 L 17.673 1.638 L 18.564 1.184 C 18.181 0.431 17.569 -0.181 16.816 -0.564 L 16.362 0.327 Z M 4.8 0 L 4.8 -1 C 3.976 -1 3.299 -1.001 2.748 -0.956 C 2.186 -0.91 1.669 -0.811 1.184 -0.564 L 1.638 0.327 L 2.092 1.218 C 2.248 1.138 2.473 1.073 2.911 1.038 C 3.361 1.001 3.943 1 4.8 1 L 4.8 0 Z M 0 4.8 L 1 4.8 C 1 3.943 1.001 3.361 1.038 2.911 C 1.073 2.473 1.138 2.248 1.218 2.092 L 0.327 1.638 L -0.564 1.184 C -0.811 1.669 -0.91 2.186 -0.956 2.748 C -1.001 3.299 -1 3.976 -1 4.8 L 0 4.8 Z M 1.638 0.327 L 1.184 -0.564 C 0.431 -0.181 -0.181 0.431 -0.564 1.184 L 0.327 1.638 L 1.218 2.092 C 1.41 1.716 1.716 1.41 2.092 1.218 L 1.638 0.327 Z M 4 5.5 L 4 6.5 L 9 6.5 L 9 5.5 L 9 4.5 L 4 4.5 L 4 5.5 Z M 4 9 L 4 10 L 12 10 L 12 9 L 12 8 L 4 8 L 4 9 Z" fill="currentColor" fill-rule="nonzero"></path>
</svg>