<svg width="325" height="82" viewBox="0 0 325 82" fill="none" xmlns="http://www.w3.org/2000/svg">
<path d="M141.919 17.0724C135.646 17.0724 130.126 20.0314 127.866 24.6015L127.282 25.7635L126.39 18.0174H114.72V82H127.143V53.5873L127.866 55.0434C130.126 59.6137 135.646 62.5726 141.919 62.5726C154.005 62.5726 163.108 52.7974 163.108 39.8305C163.108 26.8634 154.005 17.0724 141.919 17.0724ZM139.567 50.7675C136.676 50.7675 133.903 49.6106 131.858 47.5509C129.814 45.4906 128.665 42.6968 128.665 39.7839C128.665 36.871 129.814 34.0767 131.858 32.0169C133.903 29.9571 136.676 28.7999 139.567 28.7999C142.458 28.7999 145.231 29.9571 147.275 32.0169C149.32 34.0767 150.469 36.871 150.469 39.7839C150.469 42.6968 149.32 45.4906 147.275 47.5509C145.231 49.6106 142.458 50.7675 139.567 50.7675Z" fill="white"></path>
<path d="M185.833 62.5726C195.058 62.5726 204.407 58.5295 204.407 49.4976C204.407 43.1458 200.117 38.6532 191.307 35.8799C189.493 35.2757 187.924 34.7796 186.602 34.3307C180.82 32.4715 179.252 31.976 179.252 30.2097C179.252 28.4436 181.774 27.2662 184.265 27.2662C186.248 27.2662 189.585 28.0253 189.939 30.7829H202.47C202.055 22.6805 194.459 17.0414 183.834 17.0414C172.733 17.0414 166.752 23.8269 166.752 30.2097C166.752 36.5922 171.026 40.9147 180.175 43.4712L183.05 44.2611C189.738 46.1202 191.984 46.74 191.984 49.2033C191.984 51.666 188.816 52.3013 186.094 52.3013C181.574 52.3013 178.406 50.6595 177.915 48.0719H165.46C165.89 57.3211 173.302 62.5726 185.833 62.5726Z" fill="white"></path>
<path d="M307.549 28.7999C308.914 28.8303 310.261 29.1249 311.515 29.6674L313.161 18.6836C311.804 17.638 310.133 17.0914 308.425 17.1343C305.35 17.1343 302.352 18.8075 299.445 22.1073L298.907 22.727L298.216 18.0794H286.545V61.6896H298.953V44.1369C298.953 34.2375 301.998 28.7999 307.549 28.7999Z" fill="white"></path>
<path d="M236.789 17.9555H226.41V4.75618H213.986V17.9555H206.652V29.683H213.986V61.6896H226.41V29.683H236.789V17.9555Z" fill="white"></path>
<path d="M281.579 40.4347C281.579 26.8944 272.461 17.0724 259.883 17.0724C247.305 17.0724 238.173 26.538 238.173 39.5517C238.173 52.8899 247.629 62.5726 260.667 62.5726C272.507 62.5726 279.426 54.2846 280.656 48.165L269.893 47.0032C268.839 48.4606 267.447 49.6373 265.84 50.4315C264.232 51.2251 262.457 51.6114 260.667 51.558C253.595 51.558 250.796 47.5919 250.519 43.9046V43.4867H281.532L281.579 40.4347ZM250.565 35.1981V34.7796C250.857 30.9068 254.763 28.0873 259.791 28.0873C265.542 28.0873 268.802 31.4494 269.016 34.7796V35.1981H250.565Z" fill="white"></path>
<path d="M96.1604 17.9555L95.2686 25.7015L94.7002 24.5396C92.424 19.892 87.0121 17.0104 80.7234 17.0104C68.5914 17.0104 59.4581 26.786 59.4581 39.7684C59.4581 52.7509 68.5914 62.5105 80.7234 62.5105C86.8737 62.5105 92.424 59.5517 94.7002 54.9814L95.2686 53.8196L96.1604 61.566H107.846V17.9555H96.1604ZM82.9835 50.7675C80.827 50.7619 78.7202 50.1112 76.9305 48.8984C75.1408 47.6857 73.7483 45.965 72.9292 43.955C72.1106 41.9449 71.9015 39.7349 72.3297 37.605C72.7573 35.4751 73.8029 33.5209 75.3332 31.9896C76.8635 30.4586 78.8102 29.4192 80.9269 29.0032C83.0443 28.5871 85.2361 28.8131 87.225 29.6525C89.2145 30.4918 90.9123 31.907 92.1032 33.7184C93.294 35.5304 93.9251 37.6572 93.9158 39.8305C93.9475 41.2823 93.6862 42.7248 93.147 44.0717C92.6077 45.4186 91.8028 46.6406 90.7802 47.6633C89.7575 48.6867 88.5387 49.4896 87.1983 50.023C85.8579 50.557 84.4238 50.8104 82.9835 50.7675Z" fill="white"></path>
<path d="M320.879 55.1222C320.893 54.7732 320.833 54.4255 320.704 54.1013C320.574 53.7772 320.378 53.4847 320.128 53.2431C319.878 53.0016 319.58 52.8159 319.253 52.6992C318.927 52.5824 318.579 52.5371 318.234 52.5657H315.62V60.0178H317.05V57.6781H317.896L319.249 59.9247H320.94L319.325 57.4148C319.789 57.244 320.188 56.9304 320.467 56.5193C320.746 56.1083 320.89 55.6196 320.879 55.1222ZM318.234 56.2529H317.05V53.9759H318.234C318.393 53.9523 318.555 53.9647 318.708 54.0125C318.862 54.061 319.003 54.1429 319.121 54.2528C319.239 54.3627 319.331 54.4975 319.39 54.6484C319.449 54.7987 319.475 54.9607 319.464 55.1222C319.467 55.2811 319.436 55.4389 319.374 55.5848C319.312 55.7307 319.22 55.8617 319.103 55.9685C318.987 56.0754 318.849 56.1561 318.699 56.2058C318.549 56.2548 318.391 56.271 318.234 56.2529Z" fill="white"></path>
<path d="M318.05 49.3736C316.676 49.3736 315.332 49.784 314.189 50.554C313.046 51.3234 312.156 52.4169 311.629 53.6961C311.103 54.9759 310.966 56.3836 311.234 57.7423C311.502 59.1003 312.164 60.3485 313.136 61.3277C314.108 62.307 315.347 62.9739 316.694 63.244C318.043 63.5141 319.44 63.3756 320.71 62.8453C321.98 62.3157 323.065 61.4178 323.829 60.2665C324.593 59.1146 325 57.7609 325 56.3762C325 54.5189 324.268 52.7379 322.965 51.4246C321.661 50.1113 319.893 49.3736 318.05 49.3736ZM318.05 61.9375C316.954 61.9406 315.882 61.6158 314.969 61.0042C314.056 60.3925 313.345 59.522 312.924 58.5017C312.503 57.4821 312.392 56.3594 312.605 55.2764C312.818 54.1929 313.346 53.1981 314.121 52.4169C314.896 51.6357 315.884 51.1048 316.959 50.89C318.034 50.6751 319.148 50.7869 320.16 51.211C321.172 51.6351 322.037 52.3523 322.644 53.272C323.251 54.191 323.573 55.2715 323.57 56.3762C323.567 57.8497 322.983 59.2624 321.949 60.3044C320.915 61.3463 319.513 61.9338 318.05 61.9375Z" fill="white"></path>
<path d="M54.3231 61.6895V0H41.8989V41.0233L12.5924 0H0V61.6895H12.4081V20.6819L41.7146 61.6895H54.3231Z" fill="white"></path>
</svg>