<svg width="539" height="512" viewBox="0 0 539 512" fill="none" xmlns="http://www.w3.org/2000/svg">
<path d="M338.221 110.509C336.262 110.508 334.304 110.629 332.36 110.873H331.969L331.718 110.565C323.584 99.9109 313.106 91.2771 301.099 85.3346C289.091 79.3921 275.876 76.3008 262.481 76.3008C249.087 76.3008 235.872 79.3921 223.864 85.3346C211.856 91.2771 201.379 99.9109 193.245 110.565L193.022 110.873H192.631C190.677 110.63 188.71 110.508 186.741 110.509H174.962V132.389L174.572 132.584C168.888 135.258 164.082 139.496 160.716 144.803C157.35 150.11 155.562 156.267 155.562 162.554C155.562 168.84 157.35 174.997 160.716 180.304C164.082 185.611 168.888 189.849 174.572 192.522L174.962 192.69V193.137C174.962 216.408 184.196 238.726 200.633 255.18C217.069 271.635 239.362 280.879 262.607 280.879C285.851 280.879 308.144 271.635 324.581 255.18C341.018 238.726 350.252 216.408 350.252 193.137V192.69L350.642 192.522C356.326 189.849 361.132 185.611 364.498 180.304C367.864 174.997 369.652 168.84 369.652 162.554C369.652 156.267 367.864 150.11 364.498 144.803C361.132 139.496 356.326 135.258 350.642 132.584L350.252 132.389V110.509H338.221ZM216.189 117.663C222.249 111.538 229.461 106.675 237.409 103.357C245.358 100.039 253.884 98.3302 262.495 98.3302C271.106 98.3302 279.633 100.039 287.582 103.357C295.529 106.675 302.741 111.538 308.802 117.663L309.444 118.333L308.634 118.781C305.302 120.611 302.103 122.675 299.061 124.956L298.697 125.207L298.334 125.012C287.234 119.316 274.968 116.265 262.495 116.098C250.022 116.265 237.757 119.316 226.656 125.012L226.265 125.207L225.93 124.956C222.878 122.675 219.67 120.611 216.328 118.781L215.519 118.25L216.189 117.663ZM326.302 192.411C326.302 209.352 319.581 225.6 307.615 237.58C295.648 249.559 279.418 256.289 262.495 256.289C245.573 256.289 229.343 249.559 217.376 237.58C205.41 225.6 198.688 209.352 198.688 192.411V136.888L199.553 137.111C210.718 139.906 221.297 152.173 223.753 155.163C228.882 150.186 234.949 146.282 241.6 143.677C248.252 141.072 255.355 139.818 262.495 139.989C269.635 139.818 276.739 141.072 283.39 143.677C290.042 146.282 296.108 150.186 301.237 155.163C303.666 152.173 314.161 139.906 325.437 137.111L326.302 136.888V192.411Z" fill="white"></path>
<path d="M250.984 355.527C243.238 355.527 236.423 359.17 233.632 364.796L232.91 366.226L231.809 356.69H217.4V435.455H232.739V400.478L233.632 402.27C236.423 407.897 243.238 411.539 250.984 411.539C265.906 411.539 277.145 399.506 277.145 383.543C277.145 367.58 265.906 355.527 250.984 355.527ZM248.079 397.007C244.509 397.007 241.086 395.583 238.561 393.047C236.037 390.511 234.619 387.071 234.619 383.486C234.619 379.9 236.037 376.46 238.561 373.924C241.086 371.388 244.509 369.964 248.079 369.964C251.649 369.964 255.073 371.388 257.597 373.924C260.122 376.46 261.54 379.9 261.54 383.486C261.54 387.071 260.122 390.511 257.597 393.047C255.073 395.583 251.649 397.007 248.079 397.007Z" fill="white"></path>
<path d="M305.207 411.539C316.597 411.539 328.14 406.561 328.14 395.443C328.14 387.624 322.843 382.093 311.965 378.679C309.725 377.935 307.789 377.325 306.156 376.772C299.017 374.483 297.081 373.873 297.081 371.699C297.081 369.525 300.195 368.075 303.27 368.075C305.719 368.075 309.839 369.01 310.276 372.405H325.748C325.235 362.43 315.857 355.488 302.739 355.488C289.031 355.488 281.646 363.842 281.646 371.699C281.646 379.556 286.924 384.877 298.22 388.024L301.77 388.997C310.028 391.285 312.801 392.048 312.801 395.081C312.801 398.112 308.89 398.894 305.529 398.894C299.948 398.894 296.037 396.873 295.43 393.688H280.052C280.583 405.074 289.734 411.539 305.207 411.539Z" fill="white"></path>
<path d="M455.488 369.966C457.174 370.003 458.836 370.366 460.386 371.034L462.418 357.512C460.742 356.225 458.678 355.552 456.57 355.605C452.773 355.605 449.071 357.665 445.483 361.727L444.818 362.49L443.964 356.768H429.555V410.454H444.875V388.846C444.875 376.659 448.634 369.966 455.488 369.966Z" fill="white"></path>
<path d="M368.118 356.616H355.303V340.367H339.964V356.616H330.908V371.053H339.964V410.454H355.303V371.053H368.118V356.616Z" fill="white"></path>
<path d="M423.426 384.287C423.426 367.618 412.168 355.527 396.638 355.527C381.108 355.527 369.831 367.179 369.831 383.2C369.831 399.619 381.507 411.539 397.606 411.539C412.224 411.539 420.768 401.336 422.286 393.803L408.997 392.373C407.695 394.167 405.977 395.615 403.992 396.593C402.008 397.57 399.816 398.045 397.606 397.98C388.873 397.98 385.418 393.097 385.076 388.558V388.044H423.368L423.426 384.287ZM385.133 377.84V377.325C385.493 372.558 390.316 369.087 396.524 369.087C403.624 369.087 407.649 373.225 407.914 377.325V377.84H385.133Z" fill="white"></path>
<path d="M194.487 356.614L193.386 366.15L192.684 364.719C189.874 358.998 183.192 355.451 175.427 355.451C160.447 355.451 149.17 367.485 149.17 383.467C149.17 399.448 160.447 411.463 175.427 411.463C183.021 411.463 189.874 407.82 192.684 402.194L193.386 400.764L194.487 410.3H208.916V356.614H194.487ZM178.217 397.007C175.555 397 172.953 396.199 170.744 394.706C168.534 393.213 166.814 391.095 165.803 388.62C164.792 386.146 164.534 383.425 165.063 380.803C165.591 378.181 166.882 375.776 168.771 373.891C170.661 372.006 173.064 370.726 175.678 370.214C178.292 369.702 180.999 369.98 183.454 371.013C185.911 372.047 188.007 373.789 189.478 376.019C190.948 378.249 191.727 380.868 191.716 383.543C191.755 385.33 191.432 387.106 190.766 388.764C190.101 390.422 189.107 391.926 187.844 393.185C186.581 394.445 185.076 395.434 183.421 396.09C181.766 396.748 179.996 397.06 178.217 397.007Z" fill="white"></path>
<path d="M142.826 410.454V334.513H127.485V385.014L91.3 334.513H75.752V410.454H91.0724V359.973L127.258 410.454H142.826Z" fill="white"></path>
</svg>