<svg width="477" height="465" viewBox="0 0 477 465" fill="none" xmlns="http://www.w3.org/2000/svg">
<g filter="url(#filter0_f_11002_3027)">
<path d="M336.309 144.312C333.774 144.31 331.241 144.467 328.726 144.782H328.22L327.895 144.384C317.373 130.583 303.818 119.4 288.283 111.702C272.749 104.004 255.652 100 238.323 100C220.994 100 203.898 104.004 188.364 111.702C172.829 119.4 159.274 130.583 148.751 144.384L148.462 144.782H147.956C145.429 144.468 142.884 144.311 140.337 144.312H125.099V172.653L124.593 172.907C117.24 176.37 111.023 181.86 106.668 188.734C102.313 195.609 100 203.584 100 211.727C100 219.87 102.313 227.846 106.668 234.72C111.023 241.595 117.24 247.084 124.593 250.547L125.099 250.765V251.344C125.099 281.487 137.045 310.397 158.309 331.711C179.573 353.025 208.414 365 238.486 365C268.557 365 297.398 353.025 318.662 331.711C339.927 310.397 351.874 281.487 351.874 251.344V250.765L352.378 250.547C359.732 247.084 365.949 241.595 370.304 234.72C374.658 227.846 376.971 219.87 376.971 211.727C376.971 203.584 374.658 195.609 370.304 188.734C365.949 181.86 359.732 176.37 352.378 172.907L351.874 172.653V144.312H336.309ZM178.434 153.578C186.274 145.644 195.605 139.345 205.887 135.047C216.17 130.749 227.2 128.536 238.341 128.536C249.482 128.536 260.513 130.749 270.796 135.047C281.078 139.345 290.408 145.644 298.249 153.578L299.08 154.447L298.032 155.026C293.721 157.397 289.582 160.071 285.647 163.025L285.176 163.351L284.707 163.098C270.346 155.719 254.478 151.767 238.341 151.551C222.205 151.767 206.337 155.719 191.975 163.098L191.47 163.351L191.036 163.025C187.088 160.07 182.937 157.397 178.614 155.026L177.567 154.338L178.434 153.578ZM320.889 250.403C320.889 272.347 312.193 293.394 296.713 308.912C281.231 324.429 260.234 333.147 238.341 333.147C216.448 333.147 195.451 324.429 179.97 308.912C164.49 293.394 155.793 272.347 155.793 250.403V178.481L156.912 178.77C171.356 182.39 185.042 198.28 188.22 202.153C194.855 195.707 202.704 190.649 211.309 187.275C219.914 183.9 229.104 182.277 238.341 182.499C247.578 182.277 256.769 183.9 265.373 187.275C273.979 190.649 281.827 195.707 288.462 202.153C291.605 198.28 305.182 182.39 319.77 178.77L320.889 178.481V250.403Z" fill="#BE369D"></path>
<path d="M336.309 144.312C333.774 144.31 331.241 144.467 328.726 144.782H328.22L327.895 144.384C317.373 130.583 303.818 119.4 288.283 111.702C272.749 104.004 255.652 100 238.323 100C220.994 100 203.898 104.004 188.364 111.702C172.829 119.4 159.274 130.583 148.751 144.384L148.462 144.782H147.956C145.429 144.468 142.884 144.311 140.337 144.312H125.099V172.653L124.593 172.907C117.24 176.37 111.023 181.86 106.668 188.734C102.313 195.609 100 203.584 100 211.727C100 219.87 102.313 227.846 106.668 234.72C111.023 241.595 117.24 247.084 124.593 250.547L125.099 250.765V251.344C125.099 281.487 137.045 310.397 158.309 331.711C179.573 353.025 208.414 365 238.486 365C268.557 365 297.398 353.025 318.662 331.711C339.927 310.397 351.874 281.487 351.874 251.344V250.765L352.378 250.547C359.732 247.084 365.949 241.595 370.304 234.72C374.658 227.846 376.971 219.87 376.971 211.727C376.971 203.584 374.658 195.609 370.304 188.734C365.949 181.86 359.732 176.37 352.378 172.907L351.874 172.653V144.312H336.309ZM178.434 153.578C186.274 145.644 195.605 139.345 205.887 135.047C216.17 130.749 227.2 128.536 238.341 128.536C249.482 128.536 260.513 130.749 270.796 135.047C281.078 139.345 290.408 145.644 298.249 153.578L299.08 154.447L298.032 155.026C293.721 157.397 289.582 160.071 285.647 163.025L285.176 163.351L284.707 163.098C270.346 155.719 254.478 151.767 238.341 151.551C222.205 151.767 206.337 155.719 191.975 163.098L191.47 163.351L191.036 163.025C187.088 160.07 182.937 157.397 178.614 155.026L177.567 154.338L178.434 153.578ZM320.889 250.403C320.889 272.347 312.193 293.394 296.713 308.912C281.231 324.429 260.234 333.147 238.341 333.147C216.448 333.147 195.451 324.429 179.97 308.912C164.49 293.394 155.793 272.347 155.793 250.403V178.481L156.912 178.77C171.356 182.39 185.042 198.28 188.22 202.153C194.855 195.707 202.704 190.649 211.309 187.275C219.914 183.9 229.104 182.277 238.341 182.499C247.578 182.277 256.769 183.9 265.373 187.275C273.979 190.649 281.827 195.707 288.462 202.153C291.605 198.28 305.182 182.39 319.77 178.77L320.889 178.481V250.403Z" fill="url(#paint0_linear_11002_3027)" fill-opacity="0.5" style="mix-blend-mode:overlay"></path>
<path d="M336.309 144.312C333.774 144.31 331.241 144.467 328.726 144.782H328.22L327.895 144.384C317.373 130.583 303.818 119.4 288.283 111.702C272.749 104.004 255.652 100 238.323 100C220.994 100 203.898 104.004 188.364 111.702C172.829 119.4 159.274 130.583 148.751 144.384L148.462 144.782H147.956C145.429 144.468 142.884 144.311 140.337 144.312H125.099V172.653L124.593 172.907C117.24 176.37 111.023 181.86 106.668 188.734C102.313 195.609 100 203.584 100 211.727C100 219.87 102.313 227.846 106.668 234.72C111.023 241.595 117.24 247.084 124.593 250.547L125.099 250.765V251.344C125.099 281.487 137.045 310.397 158.309 331.711C179.573 353.025 208.414 365 238.486 365C268.557 365 297.398 353.025 318.662 331.711C339.927 310.397 351.874 281.487 351.874 251.344V250.765L352.378 250.547C359.732 247.084 365.949 241.595 370.304 234.72C374.658 227.846 376.971 219.87 376.971 211.727C376.971 203.584 374.658 195.609 370.304 188.734C365.949 181.86 359.732 176.37 352.378 172.907L351.874 172.653V144.312H336.309ZM178.434 153.578C186.274 145.644 195.605 139.345 205.887 135.047C216.17 130.749 227.2 128.536 238.341 128.536C249.482 128.536 260.513 130.749 270.796 135.047C281.078 139.345 290.408 145.644 298.249 153.578L299.08 154.447L298.032 155.026C293.721 157.397 289.582 160.071 285.647 163.025L285.176 163.351L284.707 163.098C270.346 155.719 254.478 151.767 238.341 151.551C222.205 151.767 206.337 155.719 191.975 163.098L191.47 163.351L191.036 163.025C187.088 160.07 182.937 157.397 178.614 155.026L177.567 154.338L178.434 153.578ZM320.889 250.403C320.889 272.347 312.193 293.394 296.713 308.912C281.231 324.429 260.234 333.147 238.341 333.147C216.448 333.147 195.451 324.429 179.97 308.912C164.49 293.394 155.793 272.347 155.793 250.403V178.481L156.912 178.77C171.356 182.39 185.042 198.28 188.22 202.153C194.855 195.707 202.704 190.649 211.309 187.275C219.914 183.9 229.104 182.277 238.341 182.499C247.578 182.277 256.769 183.9 265.373 187.275C273.979 190.649 281.827 195.707 288.462 202.153C291.605 198.28 305.182 182.39 319.77 178.77L320.889 178.481V250.403Z" fill="url(#paint1_radial_11002_3027)" fill-opacity="0.5"></path>
</g>
<g filter="url(#filter1_ii_11002_3027)">
<path d="M336.309 144.312C333.774 144.31 331.241 144.467 328.726 144.782H328.22L327.895 144.384C317.373 130.583 303.818 119.4 288.283 111.702C272.749 104.004 255.652 100 238.323 100C220.994 100 203.898 104.004 188.364 111.702C172.829 119.4 159.274 130.583 148.751 144.384L148.462 144.782H147.956C145.429 144.468 142.884 144.311 140.337 144.312H125.099V172.653L124.593 172.907C117.24 176.37 111.023 181.86 106.668 188.734C102.313 195.609 100 203.584 100 211.727C100 219.87 102.313 227.846 106.668 234.72C111.023 241.595 117.24 247.084 124.593 250.547L125.099 250.765V251.344C125.099 281.487 137.045 310.397 158.309 331.711C179.573 353.025 208.414 365 238.486 365C268.557 365 297.398 353.025 318.662 331.711C339.927 310.397 351.874 281.487 351.874 251.344V250.765L352.378 250.547C359.732 247.084 365.949 241.595 370.304 234.72C374.658 227.846 376.971 219.87 376.971 211.727C376.971 203.584 374.658 195.609 370.304 188.734C365.949 181.86 359.732 176.37 352.378 172.907L351.874 172.653V144.312H336.309ZM178.434 153.578C186.274 145.644 195.605 139.345 205.887 135.047C216.17 130.749 227.2 128.536 238.341 128.536C249.482 128.536 260.513 130.749 270.796 135.047C281.078 139.345 290.408 145.644 298.249 153.578L299.08 154.447L298.032 155.026C293.721 157.397 289.582 160.071 285.647 163.025L285.176 163.351L284.707 163.098C270.346 155.719 254.478 151.767 238.341 151.551C222.205 151.767 206.337 155.719 191.975 163.098L191.47 163.351L191.036 163.025C187.088 160.07 182.937 157.397 178.614 155.026L177.567 154.338L178.434 153.578ZM320.889 250.403C320.889 272.347 312.193 293.394 296.713 308.912C281.231 324.429 260.234 333.147 238.341 333.147C216.448 333.147 195.451 324.429 179.97 308.912C164.49 293.394 155.793 272.347 155.793 250.403V178.481L156.912 178.77C171.356 182.39 185.042 198.28 188.22 202.153C194.855 195.707 202.704 190.649 211.309 187.275C219.914 183.9 229.104 182.277 238.341 182.499C247.578 182.277 256.769 183.9 265.373 187.275C273.979 190.649 281.827 195.707 288.462 202.153C291.605 198.28 305.182 182.39 319.77 178.77L320.889 178.481V250.403Z" fill="#BE369D"></path>
<path d="M336.309 144.312C333.774 144.31 331.241 144.467 328.726 144.782H328.22L327.895 144.384C317.373 130.583 303.818 119.4 288.283 111.702C272.749 104.004 255.652 100 238.323 100C220.994 100 203.898 104.004 188.364 111.702C172.829 119.4 159.274 130.583 148.751 144.384L148.462 144.782H147.956C145.429 144.468 142.884 144.311 140.337 144.312H125.099V172.653L124.593 172.907C117.24 176.37 111.023 181.86 106.668 188.734C102.313 195.609 100 203.584 100 211.727C100 219.87 102.313 227.846 106.668 234.72C111.023 241.595 117.24 247.084 124.593 250.547L125.099 250.765V251.344C125.099 281.487 137.045 310.397 158.309 331.711C179.573 353.025 208.414 365 238.486 365C268.557 365 297.398 353.025 318.662 331.711C339.927 310.397 351.874 281.487 351.874 251.344V250.765L352.378 250.547C359.732 247.084 365.949 241.595 370.304 234.72C374.658 227.846 376.971 219.87 376.971 211.727C376.971 203.584 374.658 195.609 370.304 188.734C365.949 181.86 359.732 176.37 352.378 172.907L351.874 172.653V144.312H336.309ZM178.434 153.578C186.274 145.644 195.605 139.345 205.887 135.047C216.17 130.749 227.2 128.536 238.341 128.536C249.482 128.536 260.513 130.749 270.796 135.047C281.078 139.345 290.408 145.644 298.249 153.578L299.08 154.447L298.032 155.026C293.721 157.397 289.582 160.071 285.647 163.025L285.176 163.351L284.707 163.098C270.346 155.719 254.478 151.767 238.341 151.551C222.205 151.767 206.337 155.719 191.975 163.098L191.47 163.351L191.036 163.025C187.088 160.07 182.937 157.397 178.614 155.026L177.567 154.338L178.434 153.578ZM320.889 250.403C320.889 272.347 312.193 293.394 296.713 308.912C281.231 324.429 260.234 333.147 238.341 333.147C216.448 333.147 195.451 324.429 179.97 308.912C164.49 293.394 155.793 272.347 155.793 250.403V178.481L156.912 178.77C171.356 182.39 185.042 198.28 188.22 202.153C194.855 195.707 202.704 190.649 211.309 187.275C219.914 183.9 229.104 182.277 238.341 182.499C247.578 182.277 256.769 183.9 265.373 187.275C273.979 190.649 281.827 195.707 288.462 202.153C291.605 198.28 305.182 182.39 319.77 178.77L320.889 178.481V250.403Z" fill="url(#paint2_linear_11002_3027)" fill-opacity="0.5" style="mix-blend-mode:overlay"></path>
<path d="M336.309 144.312C333.774 144.31 331.241 144.467 328.726 144.782H328.22L327.895 144.384C317.373 130.583 303.818 119.4 288.283 111.702C272.749 104.004 255.652 100 238.323 100C220.994 100 203.898 104.004 188.364 111.702C172.829 119.4 159.274 130.583 148.751 144.384L148.462 144.782H147.956C145.429 144.468 142.884 144.311 140.337 144.312H125.099V172.653L124.593 172.907C117.24 176.37 111.023 181.86 106.668 188.734C102.313 195.609 100 203.584 100 211.727C100 219.87 102.313 227.846 106.668 234.72C111.023 241.595 117.24 247.084 124.593 250.547L125.099 250.765V251.344C125.099 281.487 137.045 310.397 158.309 331.711C179.573 353.025 208.414 365 238.486 365C268.557 365 297.398 353.025 318.662 331.711C339.927 310.397 351.874 281.487 351.874 251.344V250.765L352.378 250.547C359.732 247.084 365.949 241.595 370.304 234.72C374.658 227.846 376.971 219.87 376.971 211.727C376.971 203.584 374.658 195.609 370.304 188.734C365.949 181.86 359.732 176.37 352.378 172.907L351.874 172.653V144.312H336.309ZM178.434 153.578C186.274 145.644 195.605 139.345 205.887 135.047C216.17 130.749 227.2 128.536 238.341 128.536C249.482 128.536 260.513 130.749 270.796 135.047C281.078 139.345 290.408 145.644 298.249 153.578L299.08 154.447L298.032 155.026C293.721 157.397 289.582 160.071 285.647 163.025L285.176 163.351L284.707 163.098C270.346 155.719 254.478 151.767 238.341 151.551C222.205 151.767 206.337 155.719 191.975 163.098L191.47 163.351L191.036 163.025C187.088 160.07 182.937 157.397 178.614 155.026L177.567 154.338L178.434 153.578ZM320.889 250.403C320.889 272.347 312.193 293.394 296.713 308.912C281.231 324.429 260.234 333.147 238.341 333.147C216.448 333.147 195.451 324.429 179.97 308.912C164.49 293.394 155.793 272.347 155.793 250.403V178.481L156.912 178.77C171.356 182.39 185.042 198.28 188.22 202.153C194.855 195.707 202.704 190.649 211.309 187.275C219.914 183.9 229.104 182.277 238.341 182.499C247.578 182.277 256.769 183.9 265.373 187.275C273.979 190.649 281.827 195.707 288.462 202.153C291.605 198.28 305.182 182.39 319.77 178.77L320.889 178.481V250.403Z" fill="url(#paint3_radial_11002_3027)" fill-opacity="0.5"></path>
<path d="M336.309 144.312C333.774 144.31 331.241 144.467 328.726 144.782H328.22L327.895 144.384C317.373 130.583 303.818 119.4 288.283 111.702C272.749 104.004 255.652 100 238.323 100C220.994 100 203.898 104.004 188.364 111.702C172.829 119.4 159.274 130.583 148.751 144.384L148.462 144.782H147.956C145.429 144.468 142.884 144.311 140.337 144.312H125.099V172.653L124.593 172.907C117.24 176.37 111.023 181.86 106.668 188.734C102.313 195.609 100 203.584 100 211.727C100 219.87 102.313 227.846 106.668 234.72C111.023 241.595 117.24 247.084 124.593 250.547L125.099 250.765V251.344C125.099 281.487 137.045 310.397 158.309 331.711C179.573 353.025 208.414 365 238.486 365C268.557 365 297.398 353.025 318.662 331.711C339.927 310.397 351.874 281.487 351.874 251.344V250.765L352.378 250.547C359.732 247.084 365.949 241.595 370.304 234.72C374.658 227.846 376.971 219.87 376.971 211.727C376.971 203.584 374.658 195.609 370.304 188.734C365.949 181.86 359.732 176.37 352.378 172.907L351.874 172.653V144.312H336.309ZM178.434 153.578C186.274 145.644 195.605 139.345 205.887 135.047C216.17 130.749 227.2 128.536 238.341 128.536C249.482 128.536 260.513 130.749 270.796 135.047C281.078 139.345 290.408 145.644 298.249 153.578L299.08 154.447L298.032 155.026C293.721 157.397 289.582 160.071 285.647 163.025L285.176 163.351L284.707 163.098C270.346 155.719 254.478 151.767 238.341 151.551C222.205 151.767 206.337 155.719 191.975 163.098L191.47 163.351L191.036 163.025C187.088 160.07 182.937 157.397 178.614 155.026L177.567 154.338L178.434 153.578ZM320.889 250.403C320.889 272.347 312.193 293.394 296.713 308.912C281.231 324.429 260.234 333.147 238.341 333.147C216.448 333.147 195.451 324.429 179.97 308.912C164.49 293.394 155.793 272.347 155.793 250.403V178.481L156.912 178.77C171.356 182.39 185.042 198.28 188.22 202.153C194.855 195.707 202.704 190.649 211.309 187.275C219.914 183.9 229.104 182.277 238.341 182.499C247.578 182.277 256.769 183.9 265.373 187.275C273.979 190.649 281.827 195.707 288.462 202.153C291.605 198.28 305.182 182.39 319.77 178.77L320.889 178.481V250.403Z" fill="url(#paint4_linear_11002_3027)" fill-opacity="0.6"></path>
</g>
<defs>
<filter id="filter0_f_11002_3027" x="0" y="0" width="476.971" height="465" filterUnits="userSpaceOnUse" color-interpolation-filters="sRGB">
<feFlood flood-opacity="0" result="BackgroundImageFix"></feFlood>
<feBlend mode="normal" in="SourceGraphic" in2="BackgroundImageFix" result="shape"></feBlend>
<feGaussianBlur stdDeviation="50" result="effect1_foregroundBlur_11002_3027"></feGaussianBlur>
</filter>
<filter id="filter1_ii_11002_3027" x="100" y="97.3737" width="276.971" height="268.939" filterUnits="userSpaceOnUse" color-interpolation-filters="sRGB">
<feFlood flood-opacity="0" result="BackgroundImageFix"></feFlood>
<feBlend mode="normal" in="SourceGraphic" in2="BackgroundImageFix" result="shape"></feBlend>
<feColorMatrix in="SourceAlpha" type="matrix" values="0 0 0 0 0 0 0 0 0 0 0 0 0 0 0 0 0 0 127 0" result="hardAlpha"></feColorMatrix>
<feOffset dy="2.62627"></feOffset>
<feGaussianBlur stdDeviation="0.656567"></feGaussianBlur>
<feComposite in2="hardAlpha" operator="arithmetic" k2="-1" k3="1"></feComposite>
<feColorMatrix type="matrix" values="0 0 0 0 1 0 0 0 0 1 0 0 0 0 1 0 0 0 0.3 0"></feColorMatrix>
<feBlend mode="normal" in2="shape" result="effect1_innerShadow_11002_3027"></feBlend>
<feColorMatrix in="SourceAlpha" type="matrix" values="0 0 0 0 0 0 0 0 0 0 0 0 0 0 0 0 0 0 127 0" result="hardAlpha"></feColorMatrix>
<feOffset dy="-2.62627"></feOffset>
<feGaussianBlur stdDeviation="1.31313"></feGaussianBlur>
<feComposite in2="hardAlpha" operator="arithmetic" k2="-1" k3="1"></feComposite>
<feColorMatrix type="matrix" values="0 0 0 0 0 0 0 0 0 0 0 0 0 0 0 0 0 0 0.15 0"></feColorMatrix>
<feBlend mode="normal" in2="effect1_innerShadow_11002_3027" result="effect2_innerShadow_11002_3027"></feBlend>
</filter>
<linearGradient id="paint0_linear_11002_3027" x1="238.486" y1="100" x2="238.486" y2="365" gradientUnits="userSpaceOnUse">
<stop stop-color="white"></stop>
<stop offset="1"></stop>
</linearGradient>
<radialGradient id="paint1_radial_11002_3027" cx="0" cy="0" r="1" gradientTransform="matrix(-159.791 -159 166.183 -258.375 331.697 365)" gradientUnits="userSpaceOnUse">
<stop stop-color="#FDE5D5"></stop>
<stop offset="1" stop-color="#FDE5D5" stop-opacity="0"></stop>
</radialGradient>
<linearGradient id="paint2_linear_11002_3027" x1="238.486" y1="100" x2="238.486" y2="365" gradientUnits="userSpaceOnUse">
<stop stop-color="white"></stop>
<stop offset="1"></stop>
</linearGradient>
<radialGradient id="paint3_radial_11002_3027" cx="0" cy="0" r="1" gradientTransform="matrix(-159.791 -159 166.183 -258.375 331.697 365)" gradientUnits="userSpaceOnUse">
<stop stop-color="#FDE5D5"></stop>
<stop offset="1" stop-color="#FDE5D5" stop-opacity="0"></stop>
</radialGradient>
<linearGradient id="paint4_linear_11002_3027" x1="238.486" y1="100" x2="238.486" y2="365" gradientUnits="userSpaceOnUse">
<stop stop-color="white" stop-opacity="0"></stop>
<stop offset="1" stop-color="white"></stop>
</linearGradient>
</defs>
</svg>