<svg xmlns="http://www.w3.org/2000/svg" width="490.781" height="468.473" viewBox="0 0 490.781 468.473" fill="none">
  <path d="M 418.719 78.336 C 414.226 78.336 409.743 78.612 405.283 79.168 L 404.387 79.168 L 403.81 78.466 C 385.162 54.068 361.148 34.295 333.62 20.688 C 306.097 7.082 275.801 0 245.096 0 C 214.391 0 184.101 7.082 156.573 20.688 C 129.045 34.295 105.03 54.068 86.383 78.466 L 85.873 79.168 L 84.977 79.168 C 80.5 78.612 75.989 78.336 71.473 78.336 L 44.472 78.336 L 44.472 128.442 L 43.575 128.891 C 30.548 135.012 19.532 144.718 11.811 156.869 C 4.096 169.021 0 183.122 0 197.516 C 0 211.909 4.096 226.011 11.817 238.162 C 19.532 250.313 30.548 260.02 43.581 266.14 L 44.477 266.522 L 44.477 267.545 C 44.477 320.832 65.646 371.943 103.321 409.622 C 140.996 447.301 192.102 468.473 245.388 468.473 C 298.673 468.473 349.773 447.301 387.454 409.622 C 425.135 371.943 446.303 320.832 446.303 267.545 L 446.303 266.522 L 447.2 266.14 C 460.233 260.02 471.248 250.313 478.964 238.162 C 486.679 226.011 490.781 211.909 490.781 197.516 C 490.781 183.122 486.685 169.021 478.964 156.869 C 471.248 144.718 460.233 135.012 447.2 128.891 L 446.303 128.442 L 446.303 78.336 L 418.725 78.336 L 418.719 78.336 Z M 138.979 94.72 C 152.869 80.691 169.404 69.557 187.625 61.959 C 205.847 54.36 225.39 50.448 245.13 50.448 C 264.87 50.448 284.413 54.36 302.634 61.959 C 320.856 69.557 337.385 80.691 351.28 94.72 L 352.754 96.254 L 350.899 97.277 C 343.262 101.47 335.928 106.196 328.952 111.418 L 328.117 111.991 L 327.288 111.541 C 301.839 98.497 273.722 91.51 245.135 91.128 C 216.543 91.51 188.427 98.497 162.977 111.541 L 162.081 111.991 L 161.313 111.418 C 154.315 106.196 146.964 101.47 139.304 97.277 L 137.45 96.063 L 138.985 94.72 L 138.979 94.72 Z M 391.393 265.887 C 391.393 304.679 375.985 341.891 348.552 369.324 C 321.119 396.757 283.914 412.168 245.124 412.168 C 206.334 412.168 169.129 396.757 141.697 369.324 C 114.264 341.891 98.855 304.684 98.855 265.887 L 98.855 138.738 L 100.839 139.25 C 126.434 145.651 150.684 173.742 156.315 180.587 C 168.07 169.189 181.977 160.253 197.229 154.284 C 212.475 148.321 228.758 145.449 245.13 145.842 C 261.496 145.449 277.779 148.321 293.025 154.284 C 308.277 160.247 322.178 169.189 333.939 180.587 C 339.508 173.742 363.562 145.651 389.415 139.25 L 391.399 138.738 L 391.399 265.887 L 391.393 265.887 Z" fill="currentColor" fill-rule="nonzero"></path>
</svg>