<svg width="524" height="512" viewBox="0 0 524 512" fill="none" xmlns="http://www.w3.org/2000/svg">
<path d="M352.444 174.221C350.092 174.221 347.746 174.365 345.412 174.656H344.942L344.64 174.289C334.88 161.518 322.311 151.169 307.902 144.047C293.496 136.925 277.639 133.219 261.568 133.219C245.496 133.219 229.642 136.925 215.234 144.047C200.825 151.169 188.255 161.518 178.495 174.289L178.228 174.656H177.759C175.416 174.365 173.055 174.221 170.691 174.221H156.558V200.447L156.089 200.682C149.271 203.886 143.505 208.966 139.463 215.326C135.425 221.686 133.281 229.067 133.281 236.601C133.281 244.135 135.425 251.516 139.466 257.876C143.505 264.236 149.271 269.316 156.092 272.52L156.561 272.72V273.255C156.561 301.146 167.641 327.899 187.361 347.62C207.081 367.342 233.83 378.423 261.72 378.423C289.611 378.423 316.357 367.342 336.08 347.62C355.802 327.899 366.882 301.146 366.882 273.255V272.72L367.351 272.52C374.173 269.316 379.939 264.236 383.977 257.876C388.016 251.516 390.162 244.135 390.162 236.601C390.162 229.067 388.018 221.686 383.977 215.326C379.939 208.966 374.173 203.886 367.351 200.682L366.882 200.447V174.221H352.444ZM206.025 182.796C213.295 175.454 221.949 169.626 231.487 165.649C241.024 161.671 251.253 159.624 261.585 159.624C271.917 159.624 282.147 161.671 291.684 165.649C301.221 169.626 309.873 175.454 317.146 182.796L317.917 183.599L316.947 184.135C312.949 186.329 309.11 188.803 305.459 191.536L305.022 191.836L304.588 191.601C291.268 184.773 276.551 181.117 261.588 180.916C246.623 181.117 231.906 184.773 218.586 191.601L218.116 191.836L217.715 191.536C214.052 188.803 210.204 186.329 206.195 184.135L205.224 183.499L206.028 182.796H206.025ZM338.141 272.388C338.141 292.692 330.076 312.169 315.718 326.528C301.359 340.886 281.886 348.953 261.582 348.953C241.279 348.953 221.806 340.886 207.447 326.528C193.088 312.169 185.023 292.695 185.023 272.388V205.836L186.062 206.104C199.458 209.454 212.151 224.157 215.099 227.74C221.252 221.775 228.531 217.097 236.513 213.973C244.493 210.852 253.016 209.349 261.585 209.555C270.152 209.349 278.674 210.852 286.654 213.973C294.637 217.094 301.913 221.775 308.069 227.74C310.984 224.157 323.575 209.454 337.106 206.104L338.144 205.836V272.388H338.141Z" fill="white"></path>
</svg>