<svg xmlns="http://www.w3.org/2000/svg" width="20.230" height="19.310" viewBox="0 0 20.230 19.310" fill="none">
  <path d="M 17.259 3.229 C 17.074 3.229 16.889 3.24 16.706 3.263 L 16.669 3.263 L 16.645 3.234 C 15.876 2.229 14.886 1.414 13.752 0.853 C 12.617 0.292 11.368 0 10.103 0 C 8.837 0 7.589 0.292 6.454 0.853 C 5.319 1.414 4.329 2.229 3.561 3.234 L 3.54 3.263 L 3.503 3.263 C 3.318 3.24 3.132 3.229 2.946 3.229 L 1.833 3.229 L 1.833 5.294 L 1.796 5.313 C 1.259 5.565 0.805 5.965 0.487 6.466 C 0.169 6.967 0 7.548 0 8.142 C 0 8.735 0.169 9.316 0.487 9.817 C 0.805 10.318 1.259 10.718 1.796 10.97 L 1.833 10.986 L 1.833 11.028 C 1.833 13.225 2.706 15.331 4.259 16.885 C 5.812 18.438 7.918 19.31 10.115 19.31 C 12.311 19.31 14.418 18.438 15.971 16.885 C 17.524 15.331 18.397 13.225 18.397 11.028 L 18.397 10.986 L 18.433 10.97 C 18.971 10.718 19.425 10.318 19.743 9.817 C 20.061 9.316 20.23 8.735 20.23 8.142 C 20.23 7.548 20.061 6.967 19.743 6.466 C 19.425 5.965 18.971 5.565 18.433 5.313 L 18.397 5.294 L 18.397 3.229 L 17.26 3.229 L 17.259 3.229 Z M 5.729 3.904 C 6.301 3.326 6.983 2.867 7.734 2.554 C 8.485 2.241 9.291 2.079 10.104 2.079 C 10.918 2.079 11.723 2.241 12.475 2.554 C 13.226 2.867 13.907 3.326 14.48 3.904 L 14.54 3.968 L 14.464 4.01 C 14.149 4.183 13.847 4.377 13.559 4.593 L 13.525 4.616 L 13.491 4.598 C 12.442 4.06 11.283 3.772 10.104 3.756 C 8.926 3.772 7.767 4.06 6.718 4.598 L 6.681 4.616 L 6.649 4.593 C 6.361 4.377 6.058 4.183 5.742 4.01 L 5.666 3.96 L 5.729 3.904 L 5.729 3.904 Z M 16.133 10.96 C 16.133 12.559 15.498 14.093 14.367 15.224 C 13.236 16.354 11.703 16.99 10.104 16.99 C 8.505 16.99 6.971 16.354 5.841 15.224 C 4.71 14.093 4.075 12.559 4.075 10.96 L 4.075 5.719 L 4.157 5.74 C 5.212 6.004 6.211 7.162 6.443 7.444 C 6.928 6.974 7.501 6.606 8.13 6.36 C 8.758 6.114 9.429 5.995 10.104 6.012 C 10.779 5.995 11.45 6.114 12.078 6.36 C 12.707 6.605 13.28 6.974 13.765 7.444 C 13.994 7.162 14.986 6.004 16.052 5.74 L 16.133 5.719 L 16.133 10.96 L 16.133 10.96 Z" fill="currentColor" fill-rule="nonzero"></path>
</svg>